<?xml version="1.0" encoding="utf-8" standalone="no"?>
<!DOCTYPE svg PUBLIC "-//W3C//DTD SVG 1.1//EN"
  "http://www.w3.org/Graphics/SVG/1.1/DTD/svg11.dtd">
<svg xmlns:xlink="http://www.w3.org/1999/xlink" width="1061.542173pt" height="433.44pt" viewBox="0 0 1061.542173 433.44" xmlns="http://www.w3.org/2000/svg" version="1.1">
 <metadata>
  <rdf:RDF xmlns:dc="http://purl.org/dc/elements/1.1/" xmlns:cc="http://creativecommons.org/ns#" xmlns:rdf="http://www.w3.org/1999/02/22-rdf-syntax-ns#">
   <cc:Work>
    <dc:type rdf:resource="http://purl.org/dc/dcmitype/StillImage"/>
    <dc:date>2026-05-28T06:41:02.728656</dc:date>
    <dc:format>image/svg+xml</dc:format>
    <dc:creator>
     <cc:Agent>
      <dc:title>Matplotlib v3.10.9, https://matplotlib.org/</dc:title>
     </cc:Agent>
    </dc:creator>
   </cc:Work>
  </rdf:RDF>
 </metadata>
 <defs>
  <style type="text/css">*{stroke-linejoin: round; stroke-linecap: butt}</style>
 </defs>
 <g id="figure_1">
  <g id="patch_1">
   <path d="M 0 433.44 
L 1061.542173 433.44 
L 1061.542173 0 
L 0 0 
z
" style="fill: #ffffff"/>
  </g>
  <g id="axes_1">
   <g id="patch_2">
    <path d="M 43.19125 198.87 
L 366.227405 198.87 
L 366.227405 47.04 
L 43.19125 47.04 
z
" style="fill: #ffffff"/>
   </g>
   <g id="FillBetweenPolyCollection_1">
    <defs>
     <path id="m730a43456b" d="M 57.874712 -261.985761 
L 57.874712 -260.780676 
L 64.122993 -271.428498 
L 70.371275 -278.891097 
L 76.619556 -283.258019 
L 82.867838 -286.996294 
L 89.116119 -291.916854 
L 95.364401 -293.71698 
L 101.612682 -293.465317 
L 107.860964 -293.129145 
L 114.109245 -298.053103 
L 120.357527 -297.363993 
L 126.605808 -297.582239 
L 132.85409 -295.632072 
L 139.102372 -297.191624 
L 145.350653 -291.881754 
L 151.598935 -294.655893 
L 157.847216 -303.173891 
L 164.095498 -302.714076 
L 170.343779 -302.077979 
L 176.592061 -298.20123 
L 182.840342 -302.132307 
L 189.088624 -298.054065 
L 195.336905 -303.580944 
L 201.585187 -302.529895 
L 207.833468 -301.691531 
L 214.08175 -297.814197 
L 220.330031 -297.140425 
L 226.578313 -300.894357 
L 232.826594 -296.507349 
L 239.074876 -296.540971 
L 245.323158 -300.751661 
L 251.571439 -296.016135 
L 257.819721 -296.340449 
L 264.068002 -294.276946 
L 270.316284 -289.863021 
L 276.564565 -292.275484 
L 282.812847 -293.258152 
L 289.061128 -287.862387 
L 295.30941 -291.709317 
L 301.557691 -291.114977 
L 307.805973 -288.720664 
L 314.054254 -289.008123 
L 320.302536 -288.641202 
L 326.550817 -288.754152 
L 332.799099 -284.945082 
L 339.047381 -285.401778 
L 345.295662 -282.389515 
L 351.543944 -293.345468 
L 351.543944 -295.700827 
L 351.543944 -295.700827 
L 345.295662 -292.741961 
L 339.047381 -293.816402 
L 332.799099 -290.21502 
L 326.550817 -292.96737 
L 320.302536 -295.632291 
L 314.054254 -292.875813 
L 307.805973 -289.920324 
L 301.557691 -292.283492 
L 295.30941 -297.937779 
L 289.061128 -291.569128 
L 282.812847 -295.440539 
L 276.564565 -294.045258 
L 270.316284 -293.585106 
L 264.068002 -299.420078 
L 257.819721 -297.553617 
L 251.571439 -301.048264 
L 245.323158 -302.662353 
L 239.074876 -301.68263 
L 232.826594 -299.024001 
L 226.578313 -304.917965 
L 220.330031 -299.446608 
L 214.08175 -301.338255 
L 207.833468 -304.973755 
L 201.585187 -302.707845 
L 195.336905 -306.960511 
L 189.088624 -304.47261 
L 182.840342 -308.893912 
L 176.592061 -304.549529 
L 170.343779 -304.489098 
L 164.095498 -306.301905 
L 157.847216 -306.925421 
L 151.598935 -302.759767 
L 145.350653 -298.210704 
L 139.102372 -302.062221 
L 132.85409 -301.206733 
L 126.605808 -306.49403 
L 120.357527 -299.253214 
L 114.109245 -299.499593 
L 107.860964 -301.504889 
L 101.612682 -296.624815 
L 95.364401 -295.914812 
L 89.116119 -294.371277 
L 82.867838 -289.159617 
L 76.619556 -286.736823 
L 70.371275 -280.763342 
L 64.122993 -274.234 
L 57.874712 -261.985761 
z
" style="stroke: #1f77b4; stroke-opacity: 0.25"/>
    </defs>
    <g clip-path="url(#p05fe47637a)">
     <use xlink:href="#m730a43456b" x="0" y="433.44" style="fill: #1f77b4; fill-opacity: 0.25; stroke: #1f77b4; stroke-opacity: 0.25"/>
    </g>
   </g>
   <g id="matplotlib.axis_1">
    <g id="xtick_1">
     <g id="line2d_1">
      <path d="M 51.62643 198.87 
L 51.62643 47.04 
" clip-path="url(#p05fe47637a)" style="fill: none; stroke: #b0b0b0; stroke-opacity: 0.3; stroke-width: 0.8; stroke-linecap: square"/>
     </g>
     <g id="line2d_2">
      <defs>
       <path id="m3144117050" d="M 0 0 
L 0 3.5 
" style="stroke: #000000; stroke-width: 0.8"/>
      </defs>
      <g>
       <use xlink:href="#m3144117050" x="51.62643" y="198.87" style="stroke: #000000; stroke-width: 0.8"/>
      </g>
     </g>
    </g>
    <g id="xtick_2">
     <g id="line2d_3">
      <path d="M 114.109245 198.87 
L 114.109245 47.04 
" clip-path="url(#p05fe47637a)" style="fill: none; stroke: #b0b0b0; stroke-opacity: 0.3; stroke-width: 0.8; stroke-linecap: square"/>
     </g>
     <g id="line2d_4">
      <g>
       <use xlink:href="#m3144117050" x="114.109245" y="198.87" style="stroke: #000000; stroke-width: 0.8"/>
      </g>
     </g>
    </g>
    <g id="xtick_3">
     <g id="line2d_5">
      <path d="M 176.592061 198.87 
L 176.592061 47.04 
" clip-path="url(#p05fe47637a)" style="fill: none; stroke: #b0b0b0; stroke-opacity: 0.3; stroke-width: 0.8; stroke-linecap: square"/>
     </g>
     <g id="line2d_6">
      <g>
       <use xlink:href="#m3144117050" x="176.592061" y="198.87" style="stroke: #000000; stroke-width: 0.8"/>
      </g>
     </g>
    </g>
    <g id="xtick_4">
     <g id="line2d_7">
      <path d="M 239.074876 198.87 
L 239.074876 47.04 
" clip-path="url(#p05fe47637a)" style="fill: none; stroke: #b0b0b0; stroke-opacity: 0.3; stroke-width: 0.8; stroke-linecap: square"/>
     </g>
     <g id="line2d_8">
      <g>
       <use xlink:href="#m3144117050" x="239.074876" y="198.87" style="stroke: #000000; stroke-width: 0.8"/>
      </g>
     </g>
    </g>
    <g id="xtick_5">
     <g id="line2d_9">
      <path d="M 301.557691 198.87 
L 301.557691 47.04 
" clip-path="url(#p05fe47637a)" style="fill: none; stroke: #b0b0b0; stroke-opacity: 0.3; stroke-width: 0.8; stroke-linecap: square"/>
     </g>
     <g id="line2d_10">
      <g>
       <use xlink:href="#m3144117050" x="301.557691" y="198.87" style="stroke: #000000; stroke-width: 0.8"/>
      </g>
     </g>
    </g>
    <g id="xtick_6">
     <g id="line2d_11">
      <path d="M 364.040507 198.87 
L 364.040507 47.04 
" clip-path="url(#p05fe47637a)" style="fill: none; stroke: #b0b0b0; stroke-opacity: 0.3; stroke-width: 0.8; stroke-linecap: square"/>
     </g>
     <g id="line2d_12">
      <g>
       <use xlink:href="#m3144117050" x="364.040507" y="198.87" style="stroke: #000000; stroke-width: 0.8"/>
      </g>
     </g>
    </g>
   </g>
   <g id="matplotlib.axis_2">
    <g id="ytick_1">
     <g id="line2d_13">
      <path d="M 43.19125 174.14862 
L 366.227405 174.14862 
" clip-path="url(#p05fe47637a)" style="fill: none; stroke: #b0b0b0; stroke-opacity: 0.3; stroke-width: 0.8; stroke-linecap: square"/>
     </g>
     <g id="line2d_14">
      <defs>
       <path id="m2e79b91de9" d="M 0 0 
L -3.5 0 
" style="stroke: #000000; stroke-width: 0.8"/>
      </defs>
      <g>
       <use xlink:href="#m2e79b91de9" x="43.19125" y="174.14862" style="stroke: #000000; stroke-width: 0.8"/>
      </g>
     </g>
     <g id="text_1">
      <!-- 0.2 -->
      <g transform="translate(20.288125 177.947838) scale(0.1 -0.1)">
       <defs>
        <path id="DejaVuSans-30" d="M 2034 4250 
Q 1547 4250 1301 3770 
Q 1056 3291 1056 2328 
Q 1056 1369 1301 889 
Q 1547 409 2034 409 
Q 2525 409 2770 889 
Q 3016 1369 3016 2328 
Q 3016 3291 2770 3770 
Q 2525 4250 2034 4250 
z
M 2034 4750 
Q 2819 4750 3233 4129 
Q 3647 3509 3647 2328 
Q 3647 1150 3233 529 
Q 2819 -91 2034 -91 
Q 1250 -91 836 529 
Q 422 1150 422 2328 
Q 422 3509 836 4129 
Q 1250 4750 2034 4750 
z
" transform="scale(0.015625)"/>
        <path id="DejaVuSans-2e" d="M 684 794 
L 1344 794 
L 1344 0 
L 684 0 
L 684 794 
z
" transform="scale(0.015625)"/>
        <path id="DejaVuSans-32" d="M 1228 531 
L 3431 531 
L 3431 0 
L 469 0 
L 469 531 
Q 828 903 1448 1529 
Q 2069 2156 2228 2338 
Q 2531 2678 2651 2914 
Q 2772 3150 2772 3378 
Q 2772 3750 2511 3984 
Q 2250 4219 1831 4219 
Q 1534 4219 1204 4116 
Q 875 4013 500 3803 
L 500 4441 
Q 881 4594 1212 4672 
Q 1544 4750 1819 4750 
Q 2544 4750 2975 4387 
Q 3406 4025 3406 3419 
Q 3406 3131 3298 2873 
Q 3191 2616 2906 2266 
Q 2828 2175 2409 1742 
Q 1991 1309 1228 531 
z
" transform="scale(0.015625)"/>
       </defs>
       <use xlink:href="#DejaVuSans-30"/>
       <use xlink:href="#DejaVuSans-2e" transform="translate(63.623047 0)"/>
       <use xlink:href="#DejaVuSans-32" transform="translate(95.410156 0)"/>
      </g>
     </g>
    </g>
    <g id="ytick_2">
     <g id="line2d_15">
      <path d="M 43.19125 145.445014 
L 366.227405 145.445014 
" clip-path="url(#p05fe47637a)" style="fill: none; stroke: #b0b0b0; stroke-opacity: 0.3; stroke-width: 0.8; stroke-linecap: square"/>
     </g>
     <g id="line2d_16">
      <g>
       <use xlink:href="#m2e79b91de9" x="43.19125" y="145.445014" style="stroke: #000000; stroke-width: 0.8"/>
      </g>
     </g>
     <g id="text_2">
      <!-- 0.4 -->
      <g transform="translate(20.288125 149.244233) scale(0.1 -0.1)">
       <defs>
        <path id="DejaVuSans-34" d="M 2419 4116 
L 825 1625 
L 2419 1625 
L 2419 4116 
z
M 2253 4666 
L 3047 4666 
L 3047 1625 
L 3713 1625 
L 3713 1100 
L 3047 1100 
L 3047 0 
L 2419 0 
L 2419 1100 
L 313 1100 
L 313 1709 
L 2253 4666 
z
" transform="scale(0.015625)"/>
       </defs>
       <use xlink:href="#DejaVuSans-30"/>
       <use xlink:href="#DejaVuSans-2e" transform="translate(63.623047 0)"/>
       <use xlink:href="#DejaVuSans-34" transform="translate(95.410156 0)"/>
      </g>
     </g>
    </g>
    <g id="ytick_3">
     <g id="line2d_17">
      <path d="M 43.19125 116.741409 
L 366.227405 116.741409 
" clip-path="url(#p05fe47637a)" style="fill: none; stroke: #b0b0b0; stroke-opacity: 0.3; stroke-width: 0.8; stroke-linecap: square"/>
     </g>
     <g id="line2d_18">
      <g>
       <use xlink:href="#m2e79b91de9" x="43.19125" y="116.741409" style="stroke: #000000; stroke-width: 0.8"/>
      </g>
     </g>
     <g id="text_3">
      <!-- 0.6 -->
      <g transform="translate(20.288125 120.540627) scale(0.1 -0.1)">
       <defs>
        <path id="DejaVuSans-36" d="M 2113 2584 
Q 1688 2584 1439 2293 
Q 1191 2003 1191 1497 
Q 1191 994 1439 701 
Q 1688 409 2113 409 
Q 2538 409 2786 701 
Q 3034 994 3034 1497 
Q 3034 2003 2786 2293 
Q 2538 2584 2113 2584 
z
M 3366 4563 
L 3366 3988 
Q 3128 4100 2886 4159 
Q 2644 4219 2406 4219 
Q 1781 4219 1451 3797 
Q 1122 3375 1075 2522 
Q 1259 2794 1537 2939 
Q 1816 3084 2150 3084 
Q 2853 3084 3261 2657 
Q 3669 2231 3669 1497 
Q 3669 778 3244 343 
Q 2819 -91 2113 -91 
Q 1303 -91 875 529 
Q 447 1150 447 2328 
Q 447 3434 972 4092 
Q 1497 4750 2381 4750 
Q 2619 4750 2861 4703 
Q 3103 4656 3366 4563 
z
" transform="scale(0.015625)"/>
       </defs>
       <use xlink:href="#DejaVuSans-30"/>
       <use xlink:href="#DejaVuSans-2e" transform="translate(63.623047 0)"/>
       <use xlink:href="#DejaVuSans-36" transform="translate(95.410156 0)"/>
      </g>
     </g>
    </g>
    <g id="ytick_4">
     <g id="line2d_19">
      <path d="M 43.19125 88.037803 
L 366.227405 88.037803 
" clip-path="url(#p05fe47637a)" style="fill: none; stroke: #b0b0b0; stroke-opacity: 0.3; stroke-width: 0.8; stroke-linecap: square"/>
     </g>
     <g id="line2d_20">
      <g>
       <use xlink:href="#m2e79b91de9" x="43.19125" y="88.037803" style="stroke: #000000; stroke-width: 0.8"/>
      </g>
     </g>
     <g id="text_4">
      <!-- 0.8 -->
      <g transform="translate(20.288125 91.837022) scale(0.1 -0.1)">
       <defs>
        <path id="DejaVuSans-38" d="M 2034 2216 
Q 1584 2216 1326 1975 
Q 1069 1734 1069 1313 
Q 1069 891 1326 650 
Q 1584 409 2034 409 
Q 2484 409 2743 651 
Q 3003 894 3003 1313 
Q 3003 1734 2745 1975 
Q 2488 2216 2034 2216 
z
M 1403 2484 
Q 997 2584 770 2862 
Q 544 3141 544 3541 
Q 544 4100 942 4425 
Q 1341 4750 2034 4750 
Q 2731 4750 3128 4425 
Q 3525 4100 3525 3541 
Q 3525 3141 3298 2862 
Q 3072 2584 2669 2484 
Q 3125 2378 3379 2068 
Q 3634 1759 3634 1313 
Q 3634 634 3220 271 
Q 2806 -91 2034 -91 
Q 1263 -91 848 271 
Q 434 634 434 1313 
Q 434 1759 690 2068 
Q 947 2378 1403 2484 
z
M 1172 3481 
Q 1172 3119 1398 2916 
Q 1625 2713 2034 2713 
Q 2441 2713 2670 2916 
Q 2900 3119 2900 3481 
Q 2900 3844 2670 4047 
Q 2441 4250 2034 4250 
Q 1625 4250 1398 4047 
Q 1172 3844 1172 3481 
z
" transform="scale(0.015625)"/>
       </defs>
       <use xlink:href="#DejaVuSans-30"/>
       <use xlink:href="#DejaVuSans-2e" transform="translate(63.623047 0)"/>
       <use xlink:href="#DejaVuSans-38" transform="translate(95.410156 0)"/>
      </g>
     </g>
    </g>
    <g id="ytick_5">
     <g id="line2d_21">
      <path d="M 43.19125 59.334198 
L 366.227405 59.334198 
" clip-path="url(#p05fe47637a)" style="fill: none; stroke: #b0b0b0; stroke-opacity: 0.3; stroke-width: 0.8; stroke-linecap: square"/>
     </g>
     <g id="line2d_22">
      <g>
       <use xlink:href="#m2e79b91de9" x="43.19125" y="59.334198" style="stroke: #000000; stroke-width: 0.8"/>
      </g>
     </g>
     <g id="text_5">
      <!-- 1.0 -->
      <g transform="translate(20.288125 63.133417) scale(0.1 -0.1)">
       <defs>
        <path id="DejaVuSans-31" d="M 794 531 
L 1825 531 
L 1825 4091 
L 703 3866 
L 703 4441 
L 1819 4666 
L 2450 4666 
L 2450 531 
L 3481 531 
L 3481 0 
L 794 0 
L 794 531 
z
" transform="scale(0.015625)"/>
       </defs>
       <use xlink:href="#DejaVuSans-31"/>
       <use xlink:href="#DejaVuSans-2e" transform="translate(63.623047 0)"/>
       <use xlink:href="#DejaVuSans-30" transform="translate(95.410156 0)"/>
      </g>
     </g>
    </g>
   </g>
   <g id="line2d_23">
    <path d="M 57.874712 171.519432 
L 64.122993 160.130149 
L 70.371275 153.044707 
L 76.619556 147.879878 
L 82.867838 144.438375 
L 89.116119 140.756784 
L 95.364401 138.771821 
L 101.612682 139.189702 
L 107.860964 133.695109 
L 114.109245 134.025962 
L 120.357527 134.89592 
L 126.605808 134.446702 
L 132.85409 135.518774 
L 139.102372 133.213966 
L 145.350653 137.470963 
L 151.598935 131.30504 
L 157.847216 128.758814 
L 164.095498 130.218003 
L 170.343779 130.499619 
L 176.592061 128.990086 
L 182.840342 128.296491 
L 189.088624 133.78974 
L 195.336905 127.688029 
L 201.585187 130.802031 
L 207.833468 131.361529 
L 214.08175 133.735354 
L 220.330031 134.083654 
L 226.578313 129.272639 
L 232.826594 135.880019 
L 239.074876 135.315277 
L 245.323158 131.485837 
L 251.571439 136.912673 
L 257.819721 135.920369 
L 264.068002 135.427112 
L 270.316284 140.606844 
L 276.564565 140.555087 
L 282.812847 140.14449 
L 289.061128 143.073953 
L 295.30941 140.359406 
L 301.557691 141.66723 
L 307.805973 144.556468 
L 314.054254 144.020634 
L 320.302536 143.228864 
L 326.550817 143.432888 
L 332.799099 144.126254 
L 339.047381 145.050358 
L 345.295662 141.607735 
L 351.543944 139.752179 
" clip-path="url(#p05fe47637a)" style="fill: none; stroke: #1f77b4; stroke-width: 1.5; stroke-linecap: square"/>
   </g>
   <g id="patch_3">
    <path d="M 43.19125 198.87 
L 43.19125 47.04 
" style="fill: none; stroke: #000000; stroke-width: 0.8; stroke-linejoin: miter; stroke-linecap: square"/>
   </g>
   <g id="patch_4">
    <path d="M 366.227405 198.87 
L 366.227405 47.04 
" style="fill: none; stroke: #000000; stroke-width: 0.8; stroke-linejoin: miter; stroke-linecap: square"/>
   </g>
   <g id="patch_5">
    <path d="M 43.19125 198.87 
L 366.227405 198.87 
" style="fill: none; stroke: #000000; stroke-width: 0.8; stroke-linejoin: miter; stroke-linecap: square"/>
   </g>
   <g id="patch_6">
    <path d="M 43.19125 47.04 
L 366.227405 47.04 
" style="fill: none; stroke: #000000; stroke-width: 0.8; stroke-linejoin: miter; stroke-linecap: square"/>
   </g>
   <g id="text_6">
    <!-- variant=V0  market=DJIA -->
    <g transform="translate(140.928078 41.04) scale(0.1 -0.1)">
     <defs>
      <path id="DejaVuSans-76" d="M 191 3500 
L 800 3500 
L 1894 563 
L 2988 3500 
L 3597 3500 
L 2284 0 
L 1503 0 
L 191 3500 
z
" transform="scale(0.015625)"/>
      <path id="DejaVuSans-61" d="M 2194 1759 
Q 1497 1759 1228 1600 
Q 959 1441 959 1056 
Q 959 750 1161 570 
Q 1363 391 1709 391 
Q 2188 391 2477 730 
Q 2766 1069 2766 1631 
L 2766 1759 
L 2194 1759 
z
M 3341 1997 
L 3341 0 
L 2766 0 
L 2766 531 
Q 2569 213 2275 61 
Q 1981 -91 1556 -91 
Q 1019 -91 701 211 
Q 384 513 384 1019 
Q 384 1609 779 1909 
Q 1175 2209 1959 2209 
L 2766 2209 
L 2766 2266 
Q 2766 2663 2505 2880 
Q 2244 3097 1772 3097 
Q 1472 3097 1187 3025 
Q 903 2953 641 2809 
L 641 3341 
Q 956 3463 1253 3523 
Q 1550 3584 1831 3584 
Q 2591 3584 2966 3190 
Q 3341 2797 3341 1997 
z
" transform="scale(0.015625)"/>
      <path id="DejaVuSans-72" d="M 2631 2963 
Q 2534 3019 2420 3045 
Q 2306 3072 2169 3072 
Q 1681 3072 1420 2755 
Q 1159 2438 1159 1844 
L 1159 0 
L 581 0 
L 581 3500 
L 1159 3500 
L 1159 2956 
Q 1341 3275 1631 3429 
Q 1922 3584 2338 3584 
Q 2397 3584 2469 3576 
Q 2541 3569 2628 3553 
L 2631 2963 
z
" transform="scale(0.015625)"/>
      <path id="DejaVuSans-69" d="M 603 3500 
L 1178 3500 
L 1178 0 
L 603 0 
L 603 3500 
z
M 603 4863 
L 1178 4863 
L 1178 4134 
L 603 4134 
L 603 4863 
z
" transform="scale(0.015625)"/>
      <path id="DejaVuSans-6e" d="M 3513 2113 
L 3513 0 
L 2938 0 
L 2938 2094 
Q 2938 2591 2744 2837 
Q 2550 3084 2163 3084 
Q 1697 3084 1428 2787 
Q 1159 2491 1159 1978 
L 1159 0 
L 581 0 
L 581 3500 
L 1159 3500 
L 1159 2956 
Q 1366 3272 1645 3428 
Q 1925 3584 2291 3584 
Q 2894 3584 3203 3211 
Q 3513 2838 3513 2113 
z
" transform="scale(0.015625)"/>
      <path id="DejaVuSans-74" d="M 1172 4494 
L 1172 3500 
L 2356 3500 
L 2356 3053 
L 1172 3053 
L 1172 1153 
Q 1172 725 1289 603 
Q 1406 481 1766 481 
L 2356 481 
L 2356 0 
L 1766 0 
Q 1100 0 847 248 
Q 594 497 594 1153 
L 594 3053 
L 172 3053 
L 172 3500 
L 594 3500 
L 594 4494 
L 1172 4494 
z
" transform="scale(0.015625)"/>
      <path id="DejaVuSans-3d" d="M 678 2906 
L 4684 2906 
L 4684 2381 
L 678 2381 
L 678 2906 
z
M 678 1631 
L 4684 1631 
L 4684 1100 
L 678 1100 
L 678 1631 
z
" transform="scale(0.015625)"/>
      <path id="DejaVuSans-56" d="M 1831 0 
L 50 4666 
L 709 4666 
L 2188 738 
L 3669 4666 
L 4325 4666 
L 2547 0 
L 1831 0 
z
" transform="scale(0.015625)"/>
      <path id="DejaVuSans-20" transform="scale(0.015625)"/>
      <path id="DejaVuSans-6d" d="M 3328 2828 
Q 3544 3216 3844 3400 
Q 4144 3584 4550 3584 
Q 5097 3584 5394 3201 
Q 5691 2819 5691 2113 
L 5691 0 
L 5113 0 
L 5113 2094 
Q 5113 2597 4934 2840 
Q 4756 3084 4391 3084 
Q 3944 3084 3684 2787 
Q 3425 2491 3425 1978 
L 3425 0 
L 2847 0 
L 2847 2094 
Q 2847 2600 2669 2842 
Q 2491 3084 2119 3084 
Q 1678 3084 1418 2786 
Q 1159 2488 1159 1978 
L 1159 0 
L 581 0 
L 581 3500 
L 1159 3500 
L 1159 2956 
Q 1356 3278 1631 3431 
Q 1906 3584 2284 3584 
Q 2666 3584 2933 3390 
Q 3200 3197 3328 2828 
z
" transform="scale(0.015625)"/>
      <path id="DejaVuSans-6b" d="M 581 4863 
L 1159 4863 
L 1159 1991 
L 2875 3500 
L 3609 3500 
L 1753 1863 
L 3688 0 
L 2938 0 
L 1159 1709 
L 1159 0 
L 581 0 
L 581 4863 
z
" transform="scale(0.015625)"/>
      <path id="DejaVuSans-65" d="M 3597 1894 
L 3597 1613 
L 953 1613 
Q 991 1019 1311 708 
Q 1631 397 2203 397 
Q 2534 397 2845 478 
Q 3156 559 3463 722 
L 3463 178 
Q 3153 47 2828 -22 
Q 2503 -91 2169 -91 
Q 1331 -91 842 396 
Q 353 884 353 1716 
Q 353 2575 817 3079 
Q 1281 3584 2069 3584 
Q 2775 3584 3186 3129 
Q 3597 2675 3597 1894 
z
M 3022 2063 
Q 3016 2534 2758 2815 
Q 2500 3097 2075 3097 
Q 1594 3097 1305 2825 
Q 1016 2553 972 2059 
L 3022 2063 
z
" transform="scale(0.015625)"/>
      <path id="DejaVuSans-44" d="M 1259 4147 
L 1259 519 
L 2022 519 
Q 2988 519 3436 956 
Q 3884 1394 3884 2338 
Q 3884 3275 3436 3711 
Q 2988 4147 2022 4147 
L 1259 4147 
z
M 628 4666 
L 1925 4666 
Q 3281 4666 3915 4102 
Q 4550 3538 4550 2338 
Q 4550 1131 3912 565 
Q 3275 0 1925 0 
L 628 0 
L 628 4666 
z
" transform="scale(0.015625)"/>
      <path id="DejaVuSans-4a" d="M 628 4666 
L 1259 4666 
L 1259 325 
Q 1259 -519 939 -900 
Q 619 -1281 -91 -1281 
L -331 -1281 
L -331 -750 
L -134 -750 
Q 284 -750 456 -515 
Q 628 -281 628 325 
L 628 4666 
z
" transform="scale(0.015625)"/>
      <path id="DejaVuSans-49" d="M 628 4666 
L 1259 4666 
L 1259 0 
L 628 0 
L 628 4666 
z
" transform="scale(0.015625)"/>
      <path id="DejaVuSans-41" d="M 2188 4044 
L 1331 1722 
L 3047 1722 
L 2188 4044 
z
M 1831 4666 
L 2547 4666 
L 4325 0 
L 3669 0 
L 3244 1197 
L 1141 1197 
L 716 0 
L 50 0 
L 1831 4666 
z
" transform="scale(0.015625)"/>
     </defs>
     <use xlink:href="#DejaVuSans-76"/>
     <use xlink:href="#DejaVuSans-61" transform="translate(59.179688 0)"/>
     <use xlink:href="#DejaVuSans-72" transform="translate(120.458984 0)"/>
     <use xlink:href="#DejaVuSans-69" transform="translate(161.572266 0)"/>
     <use xlink:href="#DejaVuSans-61" transform="translate(189.355469 0)"/>
     <use xlink:href="#DejaVuSans-6e" transform="translate(250.634766 0)"/>
     <use xlink:href="#DejaVuSans-74" transform="translate(314.013672 0)"/>
     <use xlink:href="#DejaVuSans-3d" transform="translate(353.222656 0)"/>
     <use xlink:href="#DejaVuSans-56" transform="translate(437.011719 0)"/>
     <use xlink:href="#DejaVuSans-30" transform="translate(505.419922 0)"/>
     <use xlink:href="#DejaVuSans-20" transform="translate(569.042969 0)"/>
     <use xlink:href="#DejaVuSans-20" transform="translate(600.830078 0)"/>
     <use xlink:href="#DejaVuSans-6d" transform="translate(632.617188 0)"/>
     <use xlink:href="#DejaVuSans-61" transform="translate(730.029297 0)"/>
     <use xlink:href="#DejaVuSans-72" transform="translate(791.308594 0)"/>
     <use xlink:href="#DejaVuSans-6b" transform="translate(832.421875 0)"/>
     <use xlink:href="#DejaVuSans-65" transform="translate(886.707031 0)"/>
     <use xlink:href="#DejaVuSans-74" transform="translate(948.230469 0)"/>
     <use xlink:href="#DejaVuSans-3d" transform="translate(987.439453 0)"/>
     <use xlink:href="#DejaVuSans-44" transform="translate(1071.228516 0)"/>
     <use xlink:href="#DejaVuSans-4a" transform="translate(1148.230469 0)"/>
     <use xlink:href="#DejaVuSans-49" transform="translate(1177.722656 0)"/>
     <use xlink:href="#DejaVuSans-41" transform="translate(1207.214844 0)"/>
    </g>
   </g>
  </g>
  <g id="axes_2">
   <g id="patch_7">
    <path d="M 385.160833 198.87 
L 708.196989 198.87 
L 708.196989 47.04 
L 385.160833 47.04 
z
" style="fill: #ffffff"/>
   </g>
   <g id="FillBetweenPolyCollection_2">
    <defs>
     <path id="m22eed00cf3" d="M 399.844295 -260.902382 
L 399.844295 -259.847852 
L 406.092576 -269.14199 
L 412.340858 -277.391337 
L 418.58914 -280.98654 
L 424.837421 -285.853753 
L 431.085703 -290.844987 
L 437.333984 -293.754161 
L 443.582266 -292.069491 
L 449.830547 -293.321621 
L 456.078829 -295.947104 
L 462.32711 -296.8004 
L 468.575392 -295.689072 
L 474.823673 -296.334525 
L 481.071955 -297.544474 
L 487.320236 -292.214919 
L 493.568518 -293.663533 
L 499.816799 -303.423314 
L 506.065081 -302.137485 
L 512.313363 -301.670055 
L 518.561644 -297.598897 
L 524.809926 -304.599142 
L 531.058207 -297.921402 
L 537.306489 -302.858174 
L 543.55477 -301.748678 
L 549.803052 -301.417466 
L 556.051333 -296.864966 
L 562.299615 -297.841692 
L 568.547896 -297.241181 
L 574.796178 -297.13154 
L 581.044459 -296.468316 
L 587.292741 -300.484667 
L 593.541022 -293.159117 
L 599.789304 -296.646378 
L 606.037585 -293.866353 
L 612.285867 -290.134361 
L 618.534149 -292.052193 
L 624.78243 -291.519276 
L 631.030712 -290.17817 
L 637.278993 -291.896673 
L 643.527275 -289.16013 
L 649.775556 -290.823531 
L 656.023838 -289.725336 
L 662.272119 -289.676923 
L 668.520401 -288.838755 
L 674.768682 -284.593701 
L 681.016964 -286.449917 
L 687.265245 -282.838308 
L 693.513527 -291.599284 
L 693.513527 -296.309867 
L 693.513527 -296.309867 
L 687.265245 -291.91287 
L 681.016964 -292.224841 
L 674.768682 -293.665613 
L 668.520401 -292.880352 
L 662.272119 -295.39004 
L 656.023838 -294.82642 
L 649.775556 -290.921377 
L 643.527275 -294.701217 
L 637.278993 -301.649144 
L 631.030712 -291.149891 
L 624.78243 -296.786176 
L 618.534149 -295.186136 
L 612.285867 -293.400372 
L 606.037585 -300.107179 
L 599.789304 -299.354004 
L 593.541022 -303.642663 
L 587.292741 -304.132392 
L 581.044459 -303.638839 
L 574.796178 -299.299108 
L 568.547896 -304.33834 
L 562.299615 -301.619281 
L 556.051333 -305.068214 
L 549.803052 -305.632563 
L 543.55477 -304.032056 
L 537.306489 -309.255555 
L 531.058207 -305.723127 
L 524.809926 -308.516845 
L 518.561644 -303.842393 
L 512.313363 -302.608225 
L 506.065081 -303.878465 
L 499.816799 -307.195639 
L 493.568518 -300.931231 
L 487.320236 -298.259468 
L 481.071955 -301.230533 
L 474.823673 -299.790591 
L 468.575392 -304.583642 
L 462.32711 -299.453458 
L 456.078829 -299.085902 
L 449.830547 -299.087864 
L 443.582266 -294.380009 
L 437.333984 -293.991545 
L 431.085703 -291.739544 
L 424.837421 -287.950515 
L 418.58914 -283.608475 
L 412.340858 -278.72059 
L 406.092576 -272.033299 
L 399.844295 -260.902382 
z
" style="stroke: #1f77b4; stroke-opacity: 0.25"/>
    </defs>
    <g clip-path="url(#pe787d5bf80)">
     <use xlink:href="#m22eed00cf3" x="0" y="433.44" style="fill: #1f77b4; fill-opacity: 0.25; stroke: #1f77b4; stroke-opacity: 0.25"/>
    </g>
   </g>
   <g id="matplotlib.axis_3">
    <g id="xtick_7">
     <g id="line2d_24">
      <path d="M 393.596013 198.87 
L 393.596013 47.04 
" clip-path="url(#pe787d5bf80)" style="fill: none; stroke: #b0b0b0; stroke-opacity: 0.3; stroke-width: 0.8; stroke-linecap: square"/>
     </g>
     <g id="line2d_25">
      <g>
       <use xlink:href="#m3144117050" x="393.596013" y="198.87" style="stroke: #000000; stroke-width: 0.8"/>
      </g>
     </g>
    </g>
    <g id="xtick_8">
     <g id="line2d_26">
      <path d="M 456.078829 198.87 
L 456.078829 47.04 
" clip-path="url(#pe787d5bf80)" style="fill: none; stroke: #b0b0b0; stroke-opacity: 0.3; stroke-width: 0.8; stroke-linecap: square"/>
     </g>
     <g id="line2d_27">
      <g>
       <use xlink:href="#m3144117050" x="456.078829" y="198.87" style="stroke: #000000; stroke-width: 0.8"/>
      </g>
     </g>
    </g>
    <g id="xtick_9">
     <g id="line2d_28">
      <path d="M 518.561644 198.87 
L 518.561644 47.04 
" clip-path="url(#pe787d5bf80)" style="fill: none; stroke: #b0b0b0; stroke-opacity: 0.3; stroke-width: 0.8; stroke-linecap: square"/>
     </g>
     <g id="line2d_29">
      <g>
       <use xlink:href="#m3144117050" x="518.561644" y="198.87" style="stroke: #000000; stroke-width: 0.8"/>
      </g>
     </g>
    </g>
    <g id="xtick_10">
     <g id="line2d_30">
      <path d="M 581.044459 198.87 
L 581.044459 47.04 
" clip-path="url(#pe787d5bf80)" style="fill: none; stroke: #b0b0b0; stroke-opacity: 0.3; stroke-width: 0.8; stroke-linecap: square"/>
     </g>
     <g id="line2d_31">
      <g>
       <use xlink:href="#m3144117050" x="581.044459" y="198.87" style="stroke: #000000; stroke-width: 0.8"/>
      </g>
     </g>
    </g>
    <g id="xtick_11">
     <g id="line2d_32">
      <path d="M 643.527275 198.87 
L 643.527275 47.04 
" clip-path="url(#pe787d5bf80)" style="fill: none; stroke: #b0b0b0; stroke-opacity: 0.3; stroke-width: 0.8; stroke-linecap: square"/>
     </g>
     <g id="line2d_33">
      <g>
       <use xlink:href="#m3144117050" x="643.527275" y="198.87" style="stroke: #000000; stroke-width: 0.8"/>
      </g>
     </g>
    </g>
    <g id="xtick_12">
     <g id="line2d_34">
      <path d="M 706.01009 198.87 
L 706.01009 47.04 
" clip-path="url(#pe787d5bf80)" style="fill: none; stroke: #b0b0b0; stroke-opacity: 0.3; stroke-width: 0.8; stroke-linecap: square"/>
     </g>
     <g id="line2d_35">
      <g>
       <use xlink:href="#m3144117050" x="706.01009" y="198.87" style="stroke: #000000; stroke-width: 0.8"/>
      </g>
     </g>
    </g>
   </g>
   <g id="matplotlib.axis_4">
    <g id="ytick_6">
     <g id="line2d_36">
      <path d="M 385.160833 174.14862 
L 708.196989 174.14862 
" clip-path="url(#pe787d5bf80)" style="fill: none; stroke: #b0b0b0; stroke-opacity: 0.3; stroke-width: 0.8; stroke-linecap: square"/>
     </g>
     <g id="line2d_37">
      <g>
       <use xlink:href="#m2e79b91de9" x="385.160833" y="174.14862" style="stroke: #000000; stroke-width: 0.8"/>
      </g>
     </g>
    </g>
    <g id="ytick_7">
     <g id="line2d_38">
      <path d="M 385.160833 145.445014 
L 708.196989 145.445014 
" clip-path="url(#pe787d5bf80)" style="fill: none; stroke: #b0b0b0; stroke-opacity: 0.3; stroke-width: 0.8; stroke-linecap: square"/>
     </g>
     <g id="line2d_39">
      <g>
       <use xlink:href="#m2e79b91de9" x="385.160833" y="145.445014" style="stroke: #000000; stroke-width: 0.8"/>
      </g>
     </g>
    </g>
    <g id="ytick_8">
     <g id="line2d_40">
      <path d="M 385.160833 116.741409 
L 708.196989 116.741409 
" clip-path="url(#pe787d5bf80)" style="fill: none; stroke: #b0b0b0; stroke-opacity: 0.3; stroke-width: 0.8; stroke-linecap: square"/>
     </g>
     <g id="line2d_41">
      <g>
       <use xlink:href="#m2e79b91de9" x="385.160833" y="116.741409" style="stroke: #000000; stroke-width: 0.8"/>
      </g>
     </g>
    </g>
    <g id="ytick_9">
     <g id="line2d_42">
      <path d="M 385.160833 88.037803 
L 708.196989 88.037803 
" clip-path="url(#pe787d5bf80)" style="fill: none; stroke: #b0b0b0; stroke-opacity: 0.3; stroke-width: 0.8; stroke-linecap: square"/>
     </g>
     <g id="line2d_43">
      <g>
       <use xlink:href="#m2e79b91de9" x="385.160833" y="88.037803" style="stroke: #000000; stroke-width: 0.8"/>
      </g>
     </g>
    </g>
    <g id="ytick_10">
     <g id="line2d_44">
      <path d="M 385.160833 59.334198 
L 708.196989 59.334198 
" clip-path="url(#pe787d5bf80)" style="fill: none; stroke: #b0b0b0; stroke-opacity: 0.3; stroke-width: 0.8; stroke-linecap: square"/>
     </g>
     <g id="line2d_45">
      <g>
       <use xlink:href="#m2e79b91de9" x="385.160833" y="59.334198" style="stroke: #000000; stroke-width: 0.8"/>
      </g>
     </g>
    </g>
   </g>
   <g id="line2d_46">
    <path d="M 399.844295 172.728212 
L 406.092576 161.992211 
L 412.340858 155.14793 
L 418.58914 150.045877 
L 424.837421 147.095531 
L 431.085703 141.9254 
L 437.333984 139.592382 
L 443.582266 141.156622 
L 449.830547 135.050265 
L 456.078829 136.788932 
L 462.32711 134.571104 
L 468.575392 133.325137 
L 474.823673 136.270277 
L 481.071955 133.021835 
L 487.320236 136.725791 
L 493.568518 133.972935 
L 499.816799 129.055245 
L 506.065081 130.018658 
L 512.313363 130.977262 
L 518.561644 129.750234 
L 524.809926 127.974646 
L 531.058207 133.252882 
L 537.306489 127.606581 
L 543.55477 129.858163 
L 549.803052 128.346225 
L 556.051333 130.877354 
L 562.299615 132.562494 
L 568.547896 131.585255 
L 574.796178 135.313375 
L 581.044459 135.219889 
L 587.292741 130.009572 
L 593.541022 136.772992 
L 599.789304 135.549853 
L 606.037585 134.350782 
L 612.285867 141.704501 
L 618.534149 140.804014 
L 624.78243 137.825918 
L 631.030712 142.551091 
L 637.278993 139.495995 
L 643.527275 139.930638 
L 649.775556 142.544316 
L 656.023838 141.823061 
L 662.272119 141.216342 
L 668.520401 140.799794 
L 674.768682 145.305052 
L 681.016964 145.695644 
L 687.265245 141.5297 
L 693.513527 140.874226 
" clip-path="url(#pe787d5bf80)" style="fill: none; stroke: #1f77b4; stroke-width: 1.5; stroke-linecap: square"/>
   </g>
   <g id="patch_8">
    <path d="M 385.160833 198.87 
L 385.160833 47.04 
" style="fill: none; stroke: #000000; stroke-width: 0.8; stroke-linejoin: miter; stroke-linecap: square"/>
   </g>
   <g id="patch_9">
    <path d="M 708.196989 198.87 
L 708.196989 47.04 
" style="fill: none; stroke: #000000; stroke-width: 0.8; stroke-linejoin: miter; stroke-linecap: square"/>
   </g>
   <g id="patch_10">
    <path d="M 385.160833 198.87 
L 708.196989 198.87 
" style="fill: none; stroke: #000000; stroke-width: 0.8; stroke-linejoin: miter; stroke-linecap: square"/>
   </g>
   <g id="patch_11">
    <path d="M 385.160833 47.04 
L 708.196989 47.04 
" style="fill: none; stroke: #000000; stroke-width: 0.8; stroke-linejoin: miter; stroke-linecap: square"/>
   </g>
   <g id="text_7">
    <!-- variant=V0  market=IBEX -->
    <g transform="translate(481.62813 41.04) scale(0.1 -0.1)">
     <defs>
      <path id="DejaVuSans-42" d="M 1259 2228 
L 1259 519 
L 2272 519 
Q 2781 519 3026 730 
Q 3272 941 3272 1375 
Q 3272 1813 3026 2020 
Q 2781 2228 2272 2228 
L 1259 2228 
z
M 1259 4147 
L 1259 2741 
L 2194 2741 
Q 2656 2741 2882 2914 
Q 3109 3088 3109 3444 
Q 3109 3797 2882 3972 
Q 2656 4147 2194 4147 
L 1259 4147 
z
M 628 4666 
L 2241 4666 
Q 2963 4666 3353 4366 
Q 3744 4066 3744 3513 
Q 3744 3084 3544 2831 
Q 3344 2578 2956 2516 
Q 3422 2416 3680 2098 
Q 3938 1781 3938 1306 
Q 3938 681 3513 340 
Q 3088 0 2303 0 
L 628 0 
L 628 4666 
z
" transform="scale(0.015625)"/>
      <path id="DejaVuSans-45" d="M 628 4666 
L 3578 4666 
L 3578 4134 
L 1259 4134 
L 1259 2753 
L 3481 2753 
L 3481 2222 
L 1259 2222 
L 1259 531 
L 3634 531 
L 3634 0 
L 628 0 
L 628 4666 
z
" transform="scale(0.015625)"/>
      <path id="DejaVuSans-58" d="M 403 4666 
L 1081 4666 
L 2241 2931 
L 3406 4666 
L 4084 4666 
L 2584 2425 
L 4184 0 
L 3506 0 
L 2194 1984 
L 872 0 
L 191 0 
L 1856 2491 
L 403 4666 
z
" transform="scale(0.015625)"/>
     </defs>
     <use xlink:href="#DejaVuSans-76"/>
     <use xlink:href="#DejaVuSans-61" transform="translate(59.179688 0)"/>
     <use xlink:href="#DejaVuSans-72" transform="translate(120.458984 0)"/>
     <use xlink:href="#DejaVuSans-69" transform="translate(161.572266 0)"/>
     <use xlink:href="#DejaVuSans-61" transform="translate(189.355469 0)"/>
     <use xlink:href="#DejaVuSans-6e" transform="translate(250.634766 0)"/>
     <use xlink:href="#DejaVuSans-74" transform="translate(314.013672 0)"/>
     <use xlink:href="#DejaVuSans-3d" transform="translate(353.222656 0)"/>
     <use xlink:href="#DejaVuSans-56" transform="translate(437.011719 0)"/>
     <use xlink:href="#DejaVuSans-30" transform="translate(505.419922 0)"/>
     <use xlink:href="#DejaVuSans-20" transform="translate(569.042969 0)"/>
     <use xlink:href="#DejaVuSans-20" transform="translate(600.830078 0)"/>
     <use xlink:href="#DejaVuSans-6d" transform="translate(632.617188 0)"/>
     <use xlink:href="#DejaVuSans-61" transform="translate(730.029297 0)"/>
     <use xlink:href="#DejaVuSans-72" transform="translate(791.308594 0)"/>
     <use xlink:href="#DejaVuSans-6b" transform="translate(832.421875 0)"/>
     <use xlink:href="#DejaVuSans-65" transform="translate(886.707031 0)"/>
     <use xlink:href="#DejaVuSans-74" transform="translate(948.230469 0)"/>
     <use xlink:href="#DejaVuSans-3d" transform="translate(987.439453 0)"/>
     <use xlink:href="#DejaVuSans-49" transform="translate(1071.228516 0)"/>
     <use xlink:href="#DejaVuSans-42" transform="translate(1100.720703 0)"/>
     <use xlink:href="#DejaVuSans-45" transform="translate(1169.324219 0)"/>
     <use xlink:href="#DejaVuSans-58" transform="translate(1232.507812 0)"/>
    </g>
   </g>
  </g>
  <g id="axes_3">
   <g id="patch_12">
    <path d="M 727.130417 198.87 
L 1050.166572 198.87 
L 1050.166572 47.04 
L 727.130417 47.04 
z
" style="fill: #ffffff"/>
   </g>
   <g id="FillBetweenPolyCollection_3">
    <defs>
     <path id="m1a8ed36682" d="M 741.813878 -288.616075 
L 741.813878 -285.669262 
L 748.06216 -307.623874 
L 754.310441 -316.233993 
L 760.558723 -323.358907 
L 766.807004 -329.686387 
L 773.055286 -333.585839 
L 779.303567 -334.731342 
L 785.551849 -330.825401 
L 791.800131 -333.407551 
L 798.048412 -336.950365 
L 804.296694 -333.684066 
L 810.544975 -331.202145 
L 816.793257 -327.353206 
L 823.041538 -327.479552 
L 829.28982 -320.889692 
L 835.538101 -321.413193 
L 841.786383 -329.761928 
L 848.034664 -330.852643 
L 854.282946 -325.314646 
L 860.531227 -319.938834 
L 866.779509 -327.606365 
L 873.02779 -316.505941 
L 879.276072 -327.462841 
L 885.524353 -317.823602 
L 891.772635 -317.777776 
L 898.020917 -313.262809 
L 904.269198 -312.419728 
L 910.51748 -313.783913 
L 916.765761 -311.802803 
L 923.014043 -306.699613 
L 929.262324 -310.902282 
L 935.510606 -303.147893 
L 941.758887 -307.461536 
L 948.007169 -304.838014 
L 954.25545 -298.91229 
L 960.503732 -300.219809 
L 966.752013 -300.262702 
L 973.000295 -295.17903 
L 979.248576 -300.134941 
L 985.496858 -298.935948 
L 991.74514 -292.176102 
L 997.993421 -290.661775 
L 1004.241703 -292.392701 
L 1010.489984 -292.747525 
L 1016.738266 -287.835927 
L 1022.986547 -291.212149 
L 1029.234829 -287.716497 
L 1035.48311 -294.654688 
L 1035.48311 -302.029775 
L 1035.48311 -302.029775 
L 1029.234829 -296.977958 
L 1022.986547 -295.967738 
L 1016.738266 -297.270396 
L 1010.489984 -296.962188 
L 1004.241703 -302.548767 
L 997.993421 -298.776166 
L 991.74514 -295.878954 
L 985.496858 -300.331188 
L 979.248576 -308.581626 
L 973.000295 -298.284743 
L 966.752013 -305.464332 
L 960.503732 -303.098676 
L 954.25545 -302.095837 
L 948.007169 -312.349643 
L 941.758887 -308.507851 
L 935.510606 -315.581563 
L 929.262324 -318.308119 
L 923.014043 -316.327767 
L 916.765761 -312.658406 
L 910.51748 -317.965722 
L 904.269198 -318.544938 
L 898.020917 -322.991205 
L 891.772635 -327.616087 
L 885.524353 -323.882935 
L 879.276072 -331.845227 
L 873.02779 -327.971644 
L 866.779509 -333.644013 
L 860.531227 -329.16887 
L 854.282946 -332.082612 
L 848.034664 -332.807622 
L 841.786383 -337.123484 
L 835.538101 -334.731311 
L 829.28982 -328.187956 
L 823.041538 -336.375077 
L 816.793257 -336.172898 
L 810.544975 -345.861961 
L 804.296694 -337.190163 
L 798.048412 -339.324846 
L 791.800131 -345.961775 
L 785.551849 -337.28467 
L 779.303567 -339.169161 
L 773.055286 -335.484076 
L 766.807004 -332.214497 
L 760.558723 -328.54914 
L 754.310441 -323.562798 
L 748.06216 -311.653553 
L 741.813878 -288.616075 
z
" style="stroke: #1f77b4; stroke-opacity: 0.25"/>
    </defs>
    <g clip-path="url(#pc19e3b2f5f)">
     <use xlink:href="#m1a8ed36682" x="0" y="433.44" style="fill: #1f77b4; fill-opacity: 0.25; stroke: #1f77b4; stroke-opacity: 0.25"/>
    </g>
   </g>
   <g id="matplotlib.axis_5">
    <g id="xtick_13">
     <g id="line2d_47">
      <path d="M 735.565597 198.87 
L 735.565597 47.04 
" clip-path="url(#pc19e3b2f5f)" style="fill: none; stroke: #b0b0b0; stroke-opacity: 0.3; stroke-width: 0.8; stroke-linecap: square"/>
     </g>
     <g id="line2d_48">
      <g>
       <use xlink:href="#m3144117050" x="735.565597" y="198.87" style="stroke: #000000; stroke-width: 0.8"/>
      </g>
     </g>
    </g>
    <g id="xtick_14">
     <g id="line2d_49">
      <path d="M 798.048412 198.87 
L 798.048412 47.04 
" clip-path="url(#pc19e3b2f5f)" style="fill: none; stroke: #b0b0b0; stroke-opacity: 0.3; stroke-width: 0.8; stroke-linecap: square"/>
     </g>
     <g id="line2d_50">
      <g>
       <use xlink:href="#m3144117050" x="798.048412" y="198.87" style="stroke: #000000; stroke-width: 0.8"/>
      </g>
     </g>
    </g>
    <g id="xtick_15">
     <g id="line2d_51">
      <path d="M 860.531227 198.87 
L 860.531227 47.04 
" clip-path="url(#pc19e3b2f5f)" style="fill: none; stroke: #b0b0b0; stroke-opacity: 0.3; stroke-width: 0.8; stroke-linecap: square"/>
     </g>
     <g id="line2d_52">
      <g>
       <use xlink:href="#m3144117050" x="860.531227" y="198.87" style="stroke: #000000; stroke-width: 0.8"/>
      </g>
     </g>
    </g>
    <g id="xtick_16">
     <g id="line2d_53">
      <path d="M 923.014043 198.87 
L 923.014043 47.04 
" clip-path="url(#pc19e3b2f5f)" style="fill: none; stroke: #b0b0b0; stroke-opacity: 0.3; stroke-width: 0.8; stroke-linecap: square"/>
     </g>
     <g id="line2d_54">
      <g>
       <use xlink:href="#m3144117050" x="923.014043" y="198.87" style="stroke: #000000; stroke-width: 0.8"/>
      </g>
     </g>
    </g>
    <g id="xtick_17">
     <g id="line2d_55">
      <path d="M 985.496858 198.87 
L 985.496858 47.04 
" clip-path="url(#pc19e3b2f5f)" style="fill: none; stroke: #b0b0b0; stroke-opacity: 0.3; stroke-width: 0.8; stroke-linecap: square"/>
     </g>
     <g id="line2d_56">
      <g>
       <use xlink:href="#m3144117050" x="985.496858" y="198.87" style="stroke: #000000; stroke-width: 0.8"/>
      </g>
     </g>
    </g>
    <g id="xtick_18">
     <g id="line2d_57">
      <path d="M 1047.979673 198.87 
L 1047.979673 47.04 
" clip-path="url(#pc19e3b2f5f)" style="fill: none; stroke: #b0b0b0; stroke-opacity: 0.3; stroke-width: 0.8; stroke-linecap: square"/>
     </g>
     <g id="line2d_58">
      <g>
       <use xlink:href="#m3144117050" x="1047.979673" y="198.87" style="stroke: #000000; stroke-width: 0.8"/>
      </g>
     </g>
    </g>
   </g>
   <g id="matplotlib.axis_6">
    <g id="ytick_11">
     <g id="line2d_59">
      <path d="M 727.130417 174.14862 
L 1050.166572 174.14862 
" clip-path="url(#pc19e3b2f5f)" style="fill: none; stroke: #b0b0b0; stroke-opacity: 0.3; stroke-width: 0.8; stroke-linecap: square"/>
     </g>
     <g id="line2d_60">
      <g>
       <use xlink:href="#m2e79b91de9" x="727.130417" y="174.14862" style="stroke: #000000; stroke-width: 0.8"/>
      </g>
     </g>
    </g>
    <g id="ytick_12">
     <g id="line2d_61">
      <path d="M 727.130417 145.445014 
L 1050.166572 145.445014 
" clip-path="url(#pc19e3b2f5f)" style="fill: none; stroke: #b0b0b0; stroke-opacity: 0.3; stroke-width: 0.8; stroke-linecap: square"/>
     </g>
     <g id="line2d_62">
      <g>
       <use xlink:href="#m2e79b91de9" x="727.130417" y="145.445014" style="stroke: #000000; stroke-width: 0.8"/>
      </g>
     </g>
    </g>
    <g id="ytick_13">
     <g id="line2d_63">
      <path d="M 727.130417 116.741409 
L 1050.166572 116.741409 
" clip-path="url(#pc19e3b2f5f)" style="fill: none; stroke: #b0b0b0; stroke-opacity: 0.3; stroke-width: 0.8; stroke-linecap: square"/>
     </g>
     <g id="line2d_64">
      <g>
       <use xlink:href="#m2e79b91de9" x="727.130417" y="116.741409" style="stroke: #000000; stroke-width: 0.8"/>
      </g>
     </g>
    </g>
    <g id="ytick_14">
     <g id="line2d_65">
      <path d="M 727.130417 88.037803 
L 1050.166572 88.037803 
" clip-path="url(#pc19e3b2f5f)" style="fill: none; stroke: #b0b0b0; stroke-opacity: 0.3; stroke-width: 0.8; stroke-linecap: square"/>
     </g>
     <g id="line2d_66">
      <g>
       <use xlink:href="#m2e79b91de9" x="727.130417" y="88.037803" style="stroke: #000000; stroke-width: 0.8"/>
      </g>
     </g>
    </g>
    <g id="ytick_15">
     <g id="line2d_67">
      <path d="M 727.130417 59.334198 
L 1050.166572 59.334198 
" clip-path="url(#pc19e3b2f5f)" style="fill: none; stroke: #b0b0b0; stroke-opacity: 0.3; stroke-width: 0.8; stroke-linecap: square"/>
     </g>
     <g id="line2d_68">
      <g>
       <use xlink:href="#m2e79b91de9" x="727.130417" y="59.334198" style="stroke: #000000; stroke-width: 0.8"/>
      </g>
     </g>
    </g>
   </g>
   <g id="line2d_69">
    <path d="M 741.813878 144.942618 
L 748.06216 122.662283 
L 754.310441 113.904771 
L 760.558723 105.891346 
L 766.807004 102.947101 
L 773.055286 99.75399 
L 779.303567 96.333344 
L 785.551849 98.657578 
L 791.800131 94.201191 
L 798.048412 94.15677 
L 804.296694 98.32414 
L 810.544975 98.815078 
L 816.793257 104.416014 
L 823.041538 102.86727 
L 829.28982 106.052956 
L 835.538101 99.410616 
L 841.786383 97.27362 
L 848.034664 101.986902 
L 854.282946 102.583844 
L 860.531227 108.432705 
L 866.779509 104.588384 
L 873.02779 114.656448 
L 879.276072 104.462011 
L 885.524353 110.934163 
L 891.772635 107.280236 
L 898.020917 113.651047 
L 904.269198 118.684734 
L 910.51748 115.683196 
L 916.765761 120.908004 
L 923.014043 123.058087 
L 929.262324 115.508171 
L 935.510606 126.222887 
L 941.758887 125.145723 
L 948.007169 122.057928 
L 954.25545 131.37076 
L 960.503732 132.437918 
L 966.752013 129.928805 
L 973.000295 138.258253 
L 979.248576 133.060601 
L 985.496858 133.773403 
L 991.74514 139.00539 
L 997.993421 135.448053 
L 1004.241703 137.34693 
L 1010.489984 136.503093 
L 1016.738266 140.816253 
L 1022.986547 139.979649 
L 1029.234829 137.26062 
L 1035.48311 136.356953 
" clip-path="url(#pc19e3b2f5f)" style="fill: none; stroke: #1f77b4; stroke-width: 1.5; stroke-linecap: square"/>
   </g>
   <g id="patch_13">
    <path d="M 727.130417 198.87 
L 727.130417 47.04 
" style="fill: none; stroke: #000000; stroke-width: 0.8; stroke-linejoin: miter; stroke-linecap: square"/>
   </g>
   <g id="patch_14">
    <path d="M 1050.166572 198.87 
L 1050.166572 47.04 
" style="fill: none; stroke: #000000; stroke-width: 0.8; stroke-linejoin: miter; stroke-linecap: square"/>
   </g>
   <g id="patch_15">
    <path d="M 727.130417 198.87 
L 1050.166572 198.87 
" style="fill: none; stroke: #000000; stroke-width: 0.8; stroke-linejoin: miter; stroke-linecap: square"/>
   </g>
   <g id="patch_16">
    <path d="M 727.130417 47.04 
L 1050.166572 47.04 
" style="fill: none; stroke: #000000; stroke-width: 0.8; stroke-linejoin: miter; stroke-linecap: square"/>
   </g>
   <g id="text_8">
    <!-- variant=V0  market=SP50 -->
    <g transform="translate(822.535994 41.04) scale(0.1 -0.1)">
     <defs>
      <path id="DejaVuSans-53" d="M 3425 4513 
L 3425 3897 
Q 3066 4069 2747 4153 
Q 2428 4238 2131 4238 
Q 1616 4238 1336 4038 
Q 1056 3838 1056 3469 
Q 1056 3159 1242 3001 
Q 1428 2844 1947 2747 
L 2328 2669 
Q 3034 2534 3370 2195 
Q 3706 1856 3706 1288 
Q 3706 609 3251 259 
Q 2797 -91 1919 -91 
Q 1588 -91 1214 -16 
Q 841 59 441 206 
L 441 856 
Q 825 641 1194 531 
Q 1563 422 1919 422 
Q 2459 422 2753 634 
Q 3047 847 3047 1241 
Q 3047 1584 2836 1778 
Q 2625 1972 2144 2069 
L 1759 2144 
Q 1053 2284 737 2584 
Q 422 2884 422 3419 
Q 422 4038 858 4394 
Q 1294 4750 2059 4750 
Q 2388 4750 2728 4690 
Q 3069 4631 3425 4513 
z
" transform="scale(0.015625)"/>
      <path id="DejaVuSans-50" d="M 1259 4147 
L 1259 2394 
L 2053 2394 
Q 2494 2394 2734 2622 
Q 2975 2850 2975 3272 
Q 2975 3691 2734 3919 
Q 2494 4147 2053 4147 
L 1259 4147 
z
M 628 4666 
L 2053 4666 
Q 2838 4666 3239 4311 
Q 3641 3956 3641 3272 
Q 3641 2581 3239 2228 
Q 2838 1875 2053 1875 
L 1259 1875 
L 1259 0 
L 628 0 
L 628 4666 
z
" transform="scale(0.015625)"/>
      <path id="DejaVuSans-35" d="M 691 4666 
L 3169 4666 
L 3169 4134 
L 1269 4134 
L 1269 2991 
Q 1406 3038 1543 3061 
Q 1681 3084 1819 3084 
Q 2600 3084 3056 2656 
Q 3513 2228 3513 1497 
Q 3513 744 3044 326 
Q 2575 -91 1722 -91 
Q 1428 -91 1123 -41 
Q 819 9 494 109 
L 494 744 
Q 775 591 1075 516 
Q 1375 441 1709 441 
Q 2250 441 2565 725 
Q 2881 1009 2881 1497 
Q 2881 1984 2565 2268 
Q 2250 2553 1709 2553 
Q 1456 2553 1204 2497 
Q 953 2441 691 2322 
L 691 4666 
z
" transform="scale(0.015625)"/>
     </defs>
     <use xlink:href="#DejaVuSans-76"/>
     <use xlink:href="#DejaVuSans-61" transform="translate(59.179688 0)"/>
     <use xlink:href="#DejaVuSans-72" transform="translate(120.458984 0)"/>
     <use xlink:href="#DejaVuSans-69" transform="translate(161.572266 0)"/>
     <use xlink:href="#DejaVuSans-61" transform="translate(189.355469 0)"/>
     <use xlink:href="#DejaVuSans-6e" transform="translate(250.634766 0)"/>
     <use xlink:href="#DejaVuSans-74" transform="translate(314.013672 0)"/>
     <use xlink:href="#DejaVuSans-3d" transform="translate(353.222656 0)"/>
     <use xlink:href="#DejaVuSans-56" transform="translate(437.011719 0)"/>
     <use xlink:href="#DejaVuSans-30" transform="translate(505.419922 0)"/>
     <use xlink:href="#DejaVuSans-20" transform="translate(569.042969 0)"/>
     <use xlink:href="#DejaVuSans-20" transform="translate(600.830078 0)"/>
     <use xlink:href="#DejaVuSans-6d" transform="translate(632.617188 0)"/>
     <use xlink:href="#DejaVuSans-61" transform="translate(730.029297 0)"/>
     <use xlink:href="#DejaVuSans-72" transform="translate(791.308594 0)"/>
     <use xlink:href="#DejaVuSans-6b" transform="translate(832.421875 0)"/>
     <use xlink:href="#DejaVuSans-65" transform="translate(886.707031 0)"/>
     <use xlink:href="#DejaVuSans-74" transform="translate(948.230469 0)"/>
     <use xlink:href="#DejaVuSans-3d" transform="translate(987.439453 0)"/>
     <use xlink:href="#DejaVuSans-53" transform="translate(1071.228516 0)"/>
     <use xlink:href="#DejaVuSans-50" transform="translate(1134.705078 0)"/>
     <use xlink:href="#DejaVuSans-35" transform="translate(1195.007812 0)"/>
     <use xlink:href="#DejaVuSans-30" transform="translate(1258.630859 0)"/>
    </g>
   </g>
  </g>
  <g id="axes_4">
   <g id="patch_17">
    <path d="M 43.19125 378.92 
L 366.227405 378.92 
L 366.227405 227.09 
L 43.19125 227.09 
z
" style="fill: #ffffff"/>
   </g>
   <g id="FillBetweenPolyCollection_4">
    <defs>
     <path id="mec9260f36c" d="M 57.874712 -66.189576 
L 57.874712 -64.805462 
L 64.122993 -69.245122 
L 70.371275 -71.941966 
L 76.619556 -75.075865 
L 82.867838 -78.93448 
L 89.116119 -82.927468 
L 95.364401 -89.165497 
L 101.612682 -90.671103 
L 107.860964 -93.414792 
L 114.109245 -92.738191 
L 120.357527 -106.813684 
L 126.605808 -100.916006 
L 132.85409 -102.602392 
L 139.102372 -101.502621 
L 145.350653 -109.363312 
L 151.598935 -104.352406 
L 157.847216 -102.501781 
L 164.095498 -97.975521 
L 170.343779 -100.316953 
L 176.592061 -100.781049 
L 182.840342 -96.274377 
L 189.088624 -95.906003 
L 195.336905 -97.30352 
L 201.585187 -89.398233 
L 207.833468 -88.381797 
L 214.08175 -89.910644 
L 220.330031 -89.332825 
L 226.578313 -87.320397 
L 232.826594 -87.838733 
L 239.074876 -86.994907 
L 245.323158 -90.853153 
L 251.571439 -84.124057 
L 257.819721 -86.393876 
L 264.068002 -92.320812 
L 270.316284 -92.882394 
L 276.564565 -92.022259 
L 282.812847 -88.151406 
L 289.061128 -90.538792 
L 295.30941 -97.322707 
L 301.557691 -88.328465 
L 307.805973 -89.656207 
L 314.054254 -91.021982 
L 320.302536 -90.797094 
L 326.550817 -92.005224 
L 332.799099 -95.997816 
L 339.047381 -90.124186 
L 345.295662 -92.210809 
L 351.543944 -96.56199 
L 351.543944 -102.03008 
L 351.543944 -102.03008 
L 345.295662 -97.084814 
L 339.047381 -99.437453 
L 332.799099 -100.431562 
L 326.550817 -101.010836 
L 320.302536 -101.884316 
L 314.054254 -101.292192 
L 307.805973 -90.301514 
L 301.557691 -99.446985 
L 295.30941 -98.053281 
L 289.061128 -90.603121 
L 282.812847 -97.137415 
L 276.564565 -93.234583 
L 270.316284 -95.949008 
L 264.068002 -97.509289 
L 257.819721 -98.800497 
L 251.571439 -101.286225 
L 245.323158 -93.322328 
L 239.074876 -99.539512 
L 232.826594 -90.609212 
L 226.578313 -89.625319 
L 220.330031 -91.529239 
L 214.08175 -92.90917 
L 207.833468 -94.752751 
L 201.585187 -94.536687 
L 195.336905 -98.827215 
L 189.088624 -96.664628 
L 182.840342 -101.534455 
L 176.592061 -103.32561 
L 170.343779 -107.169685 
L 164.095498 -107.892991 
L 157.847216 -104.965396 
L 151.598935 -114.170904 
L 145.350653 -110.789732 
L 139.102372 -110.806001 
L 132.85409 -111.864387 
L 126.605808 -103.21137 
L 120.357527 -108.689213 
L 114.109245 -99.980742 
L 107.860964 -97.282463 
L 101.612682 -93.344571 
L 95.364401 -91.999914 
L 89.116119 -87.898226 
L 82.867838 -81.216115 
L 76.619556 -77.526942 
L 70.371275 -72.257103 
L 64.122993 -72.789096 
L 57.874712 -66.189576 
z
" style="stroke: #1f77b4; stroke-opacity: 0.25"/>
    </defs>
    <g clip-path="url(#p53dccaf863)">
     <use xlink:href="#mec9260f36c" x="0" y="433.44" style="fill: #1f77b4; fill-opacity: 0.25; stroke: #1f77b4; stroke-opacity: 0.25"/>
    </g>
   </g>
   <g id="matplotlib.axis_7">
    <g id="xtick_19">
     <g id="line2d_70">
      <path d="M 51.62643 378.92 
L 51.62643 227.09 
" clip-path="url(#p53dccaf863)" style="fill: none; stroke: #b0b0b0; stroke-opacity: 0.3; stroke-width: 0.8; stroke-linecap: square"/>
     </g>
     <g id="line2d_71">
      <g>
       <use xlink:href="#m3144117050" x="51.62643" y="378.92" style="stroke: #000000; stroke-width: 0.8"/>
      </g>
     </g>
     <g id="text_9">
      <!-- 0 -->
      <g transform="translate(48.44518 393.518437) scale(0.1 -0.1)">
       <use xlink:href="#DejaVuSans-30"/>
      </g>
     </g>
    </g>
    <g id="xtick_20">
     <g id="line2d_72">
      <path d="M 114.109245 378.92 
L 114.109245 227.09 
" clip-path="url(#p53dccaf863)" style="fill: none; stroke: #b0b0b0; stroke-opacity: 0.3; stroke-width: 0.8; stroke-linecap: square"/>
     </g>
     <g id="line2d_73">
      <g>
       <use xlink:href="#m3144117050" x="114.109245" y="378.92" style="stroke: #000000; stroke-width: 0.8"/>
      </g>
     </g>
     <g id="text_10">
      <!-- 10 -->
      <g transform="translate(107.746745 393.518437) scale(0.1 -0.1)">
       <use xlink:href="#DejaVuSans-31"/>
       <use xlink:href="#DejaVuSans-30" transform="translate(63.623047 0)"/>
      </g>
     </g>
    </g>
    <g id="xtick_21">
     <g id="line2d_74">
      <path d="M 176.592061 378.92 
L 176.592061 227.09 
" clip-path="url(#p53dccaf863)" style="fill: none; stroke: #b0b0b0; stroke-opacity: 0.3; stroke-width: 0.8; stroke-linecap: square"/>
     </g>
     <g id="line2d_75">
      <g>
       <use xlink:href="#m3144117050" x="176.592061" y="378.92" style="stroke: #000000; stroke-width: 0.8"/>
      </g>
     </g>
     <g id="text_11">
      <!-- 20 -->
      <g transform="translate(170.229561 393.518437) scale(0.1 -0.1)">
       <use xlink:href="#DejaVuSans-32"/>
       <use xlink:href="#DejaVuSans-30" transform="translate(63.623047 0)"/>
      </g>
     </g>
    </g>
    <g id="xtick_22">
     <g id="line2d_76">
      <path d="M 239.074876 378.92 
L 239.074876 227.09 
" clip-path="url(#p53dccaf863)" style="fill: none; stroke: #b0b0b0; stroke-opacity: 0.3; stroke-width: 0.8; stroke-linecap: square"/>
     </g>
     <g id="line2d_77">
      <g>
       <use xlink:href="#m3144117050" x="239.074876" y="378.92" style="stroke: #000000; stroke-width: 0.8"/>
      </g>
     </g>
     <g id="text_12">
      <!-- 30 -->
      <g transform="translate(232.712376 393.518437) scale(0.1 -0.1)">
       <defs>
        <path id="DejaVuSans-33" d="M 2597 2516 
Q 3050 2419 3304 2112 
Q 3559 1806 3559 1356 
Q 3559 666 3084 287 
Q 2609 -91 1734 -91 
Q 1441 -91 1130 -33 
Q 819 25 488 141 
L 488 750 
Q 750 597 1062 519 
Q 1375 441 1716 441 
Q 2309 441 2620 675 
Q 2931 909 2931 1356 
Q 2931 1769 2642 2001 
Q 2353 2234 1838 2234 
L 1294 2234 
L 1294 2753 
L 1863 2753 
Q 2328 2753 2575 2939 
Q 2822 3125 2822 3475 
Q 2822 3834 2567 4026 
Q 2313 4219 1838 4219 
Q 1578 4219 1281 4162 
Q 984 4106 628 3988 
L 628 4550 
Q 988 4650 1302 4700 
Q 1616 4750 1894 4750 
Q 2613 4750 3031 4423 
Q 3450 4097 3450 3541 
Q 3450 3153 3228 2886 
Q 3006 2619 2597 2516 
z
" transform="scale(0.015625)"/>
       </defs>
       <use xlink:href="#DejaVuSans-33"/>
       <use xlink:href="#DejaVuSans-30" transform="translate(63.623047 0)"/>
      </g>
     </g>
    </g>
    <g id="xtick_23">
     <g id="line2d_78">
      <path d="M 301.557691 378.92 
L 301.557691 227.09 
" clip-path="url(#p53dccaf863)" style="fill: none; stroke: #b0b0b0; stroke-opacity: 0.3; stroke-width: 0.8; stroke-linecap: square"/>
     </g>
     <g id="line2d_79">
      <g>
       <use xlink:href="#m3144117050" x="301.557691" y="378.92" style="stroke: #000000; stroke-width: 0.8"/>
      </g>
     </g>
     <g id="text_13">
      <!-- 40 -->
      <g transform="translate(295.195191 393.518437) scale(0.1 -0.1)">
       <use xlink:href="#DejaVuSans-34"/>
       <use xlink:href="#DejaVuSans-30" transform="translate(63.623047 0)"/>
      </g>
     </g>
    </g>
    <g id="xtick_24">
     <g id="line2d_80">
      <path d="M 364.040507 378.92 
L 364.040507 227.09 
" clip-path="url(#p53dccaf863)" style="fill: none; stroke: #b0b0b0; stroke-opacity: 0.3; stroke-width: 0.8; stroke-linecap: square"/>
     </g>
     <g id="line2d_81">
      <g>
       <use xlink:href="#m3144117050" x="364.040507" y="378.92" style="stroke: #000000; stroke-width: 0.8"/>
      </g>
     </g>
     <g id="text_14">
      <!-- 50 -->
      <g transform="translate(357.678007 393.518437) scale(0.1 -0.1)">
       <use xlink:href="#DejaVuSans-35"/>
       <use xlink:href="#DejaVuSans-30" transform="translate(63.623047 0)"/>
      </g>
     </g>
    </g>
   </g>
   <g id="matplotlib.axis_8">
    <g id="ytick_16">
     <g id="line2d_82">
      <path d="M 43.19125 354.19862 
L 366.227405 354.19862 
" clip-path="url(#p53dccaf863)" style="fill: none; stroke: #b0b0b0; stroke-opacity: 0.3; stroke-width: 0.8; stroke-linecap: square"/>
     </g>
     <g id="line2d_83">
      <g>
       <use xlink:href="#m2e79b91de9" x="43.19125" y="354.19862" style="stroke: #000000; stroke-width: 0.8"/>
      </g>
     </g>
     <g id="text_15">
      <!-- 0.2 -->
      <g transform="translate(20.288125 357.997838) scale(0.1 -0.1)">
       <use xlink:href="#DejaVuSans-30"/>
       <use xlink:href="#DejaVuSans-2e" transform="translate(63.623047 0)"/>
       <use xlink:href="#DejaVuSans-32" transform="translate(95.410156 0)"/>
      </g>
     </g>
    </g>
    <g id="ytick_17">
     <g id="line2d_84">
      <path d="M 43.19125 325.495014 
L 366.227405 325.495014 
" clip-path="url(#p53dccaf863)" style="fill: none; stroke: #b0b0b0; stroke-opacity: 0.3; stroke-width: 0.8; stroke-linecap: square"/>
     </g>
     <g id="line2d_85">
      <g>
       <use xlink:href="#m2e79b91de9" x="43.19125" y="325.495014" style="stroke: #000000; stroke-width: 0.8"/>
      </g>
     </g>
     <g id="text_16">
      <!-- 0.4 -->
      <g transform="translate(20.288125 329.294233) scale(0.1 -0.1)">
       <use xlink:href="#DejaVuSans-30"/>
       <use xlink:href="#DejaVuSans-2e" transform="translate(63.623047 0)"/>
       <use xlink:href="#DejaVuSans-34" transform="translate(95.410156 0)"/>
      </g>
     </g>
    </g>
    <g id="ytick_18">
     <g id="line2d_86">
      <path d="M 43.19125 296.791409 
L 366.227405 296.791409 
" clip-path="url(#p53dccaf863)" style="fill: none; stroke: #b0b0b0; stroke-opacity: 0.3; stroke-width: 0.8; stroke-linecap: square"/>
     </g>
     <g id="line2d_87">
      <g>
       <use xlink:href="#m2e79b91de9" x="43.19125" y="296.791409" style="stroke: #000000; stroke-width: 0.8"/>
      </g>
     </g>
     <g id="text_17">
      <!-- 0.6 -->
      <g transform="translate(20.288125 300.590627) scale(0.1 -0.1)">
       <use xlink:href="#DejaVuSans-30"/>
       <use xlink:href="#DejaVuSans-2e" transform="translate(63.623047 0)"/>
       <use xlink:href="#DejaVuSans-36" transform="translate(95.410156 0)"/>
      </g>
     </g>
    </g>
    <g id="ytick_19">
     <g id="line2d_88">
      <path d="M 43.19125 268.087803 
L 366.227405 268.087803 
" clip-path="url(#p53dccaf863)" style="fill: none; stroke: #b0b0b0; stroke-opacity: 0.3; stroke-width: 0.8; stroke-linecap: square"/>
     </g>
     <g id="line2d_89">
      <g>
       <use xlink:href="#m2e79b91de9" x="43.19125" y="268.087803" style="stroke: #000000; stroke-width: 0.8"/>
      </g>
     </g>
     <g id="text_18">
      <!-- 0.8 -->
      <g transform="translate(20.288125 271.887022) scale(0.1 -0.1)">
       <use xlink:href="#DejaVuSans-30"/>
       <use xlink:href="#DejaVuSans-2e" transform="translate(63.623047 0)"/>
       <use xlink:href="#DejaVuSans-38" transform="translate(95.410156 0)"/>
      </g>
     </g>
    </g>
    <g id="ytick_20">
     <g id="line2d_90">
      <path d="M 43.19125 239.384198 
L 366.227405 239.384198 
" clip-path="url(#p53dccaf863)" style="fill: none; stroke: #b0b0b0; stroke-opacity: 0.3; stroke-width: 0.8; stroke-linecap: square"/>
     </g>
     <g id="line2d_91">
      <g>
       <use xlink:href="#m2e79b91de9" x="43.19125" y="239.384198" style="stroke: #000000; stroke-width: 0.8"/>
      </g>
     </g>
     <g id="text_19">
      <!-- 1.0 -->
      <g transform="translate(20.288125 243.183417) scale(0.1 -0.1)">
       <use xlink:href="#DejaVuSans-31"/>
       <use xlink:href="#DejaVuSans-2e" transform="translate(63.623047 0)"/>
       <use xlink:href="#DejaVuSans-30" transform="translate(95.410156 0)"/>
      </g>
     </g>
    </g>
   </g>
   <g id="line2d_92">
    <path d="M 57.874712 367.381123 
L 64.122993 364.184674 
L 70.371275 361.43501 
L 76.619556 356.900937 
L 82.867838 354.229277 
L 89.116119 349.157855 
L 95.364401 342.223398 
L 101.612682 342.426715 
L 107.860964 337.047148 
L 114.109245 338.765389 
L 120.357527 325.383433 
L 126.605808 332.168868 
L 132.85409 324.383063 
L 139.102372 328.343697 
L 145.350653 322.869986 
L 151.598935 323.38378 
L 157.847216 328.495164 
L 164.095498 330.203079 
L 170.343779 332.225427 
L 176.592061 330.568877 
L 182.840342 336.033967 
L 189.088624 337.049629 
L 195.336905 335.720845 
L 201.585187 339.679422 
L 207.833468 341.062491 
L 214.08175 343.146568 
L 220.330031 343.705185 
L 226.578313 343.93122 
L 232.826594 345.168674 
L 239.074876 345.575344 
L 245.323158 340.876551 
L 251.571439 341.617942 
L 257.819721 344.076925 
L 264.068002 340.797749 
L 270.316284 339.518646 
L 276.564565 341.344286 
L 282.812847 338.309359 
L 289.061128 342.891806 
L 295.30941 335.682057 
L 301.557691 341.683511 
L 307.805973 343.553431 
L 314.054254 341.967537 
L 320.302536 338.208547 
L 326.550817 340.047001 
L 332.799099 336.684773 
L 339.047381 337.27274 
L 345.295662 337.659512 
L 351.543944 335.26835 
" clip-path="url(#p53dccaf863)" style="fill: none; stroke: #1f77b4; stroke-width: 1.5; stroke-linecap: square"/>
   </g>
   <g id="patch_18">
    <path d="M 43.19125 378.92 
L 43.19125 227.09 
" style="fill: none; stroke: #000000; stroke-width: 0.8; stroke-linejoin: miter; stroke-linecap: square"/>
   </g>
   <g id="patch_19">
    <path d="M 366.227405 378.92 
L 366.227405 227.09 
" style="fill: none; stroke: #000000; stroke-width: 0.8; stroke-linejoin: miter; stroke-linecap: square"/>
   </g>
   <g id="patch_20">
    <path d="M 43.19125 378.92 
L 366.227405 378.92 
" style="fill: none; stroke: #000000; stroke-width: 0.8; stroke-linejoin: miter; stroke-linecap: square"/>
   </g>
   <g id="patch_21">
    <path d="M 43.19125 227.09 
L 366.227405 227.09 
" style="fill: none; stroke: #000000; stroke-width: 0.8; stroke-linejoin: miter; stroke-linecap: square"/>
   </g>
   <g id="text_20">
    <!-- variant=V4  market=DJIA -->
    <g transform="translate(140.928078 221.09) scale(0.1 -0.1)">
     <use xlink:href="#DejaVuSans-76"/>
     <use xlink:href="#DejaVuSans-61" transform="translate(59.179688 0)"/>
     <use xlink:href="#DejaVuSans-72" transform="translate(120.458984 0)"/>
     <use xlink:href="#DejaVuSans-69" transform="translate(161.572266 0)"/>
     <use xlink:href="#DejaVuSans-61" transform="translate(189.355469 0)"/>
     <use xlink:href="#DejaVuSans-6e" transform="translate(250.634766 0)"/>
     <use xlink:href="#DejaVuSans-74" transform="translate(314.013672 0)"/>
     <use xlink:href="#DejaVuSans-3d" transform="translate(353.222656 0)"/>
     <use xlink:href="#DejaVuSans-56" transform="translate(437.011719 0)"/>
     <use xlink:href="#DejaVuSans-34" transform="translate(505.419922 0)"/>
     <use xlink:href="#DejaVuSans-20" transform="translate(569.042969 0)"/>
     <use xlink:href="#DejaVuSans-20" transform="translate(600.830078 0)"/>
     <use xlink:href="#DejaVuSans-6d" transform="translate(632.617188 0)"/>
     <use xlink:href="#DejaVuSans-61" transform="translate(730.029297 0)"/>
     <use xlink:href="#DejaVuSans-72" transform="translate(791.308594 0)"/>
     <use xlink:href="#DejaVuSans-6b" transform="translate(832.421875 0)"/>
     <use xlink:href="#DejaVuSans-65" transform="translate(886.707031 0)"/>
     <use xlink:href="#DejaVuSans-74" transform="translate(948.230469 0)"/>
     <use xlink:href="#DejaVuSans-3d" transform="translate(987.439453 0)"/>
     <use xlink:href="#DejaVuSans-44" transform="translate(1071.228516 0)"/>
     <use xlink:href="#DejaVuSans-4a" transform="translate(1148.230469 0)"/>
     <use xlink:href="#DejaVuSans-49" transform="translate(1177.722656 0)"/>
     <use xlink:href="#DejaVuSans-41" transform="translate(1207.214844 0)"/>
    </g>
   </g>
  </g>
  <g id="axes_5">
   <g id="patch_22">
    <path d="M 385.160833 378.92 
L 708.196989 378.92 
L 708.196989 227.09 
L 385.160833 227.09 
z
" style="fill: #ffffff"/>
   </g>
   <g id="FillBetweenPolyCollection_5">
    <defs>
     <path id="m55c52f6083" d="M 399.844295 -61.952665 
L 399.844295 -61.421364 
L 406.092576 -63.967017 
L 412.340858 -65.190963 
L 418.58914 -67.336749 
L 424.837421 -68.367563 
L 431.085703 -72.620613 
L 437.333984 -74.550907 
L 443.582266 -75.676294 
L 449.830547 -78.09936 
L 456.078829 -77.543416 
L 462.32711 -83.988043 
L 468.575392 -82.011969 
L 474.823673 -81.677059 
L 481.071955 -84.006071 
L 487.320236 -86.25981 
L 493.568518 -88.514911 
L 499.816799 -84.880232 
L 506.065081 -83.108784 
L 512.313363 -82.239775 
L 518.561644 -84.788164 
L 524.809926 -84.407167 
L 531.058207 -84.730375 
L 537.306489 -86.397992 
L 543.55477 -84.756896 
L 549.803052 -86.088866 
L 556.051333 -87.4459 
L 562.299615 -87.026546 
L 568.547896 -86.905016 
L 574.796178 -87.633978 
L 581.044459 -89.15604 
L 587.292741 -88.947353 
L 593.541022 -87.003481 
L 599.789304 -88.620542 
L 606.037585 -91.735012 
L 612.285867 -93.104031 
L 618.534149 -92.887738 
L 624.78243 -87.712667 
L 631.030712 -89.736665 
L 637.278993 -94.848285 
L 643.527275 -89.343291 
L 649.775556 -91.593485 
L 656.023838 -89.915721 
L 662.272119 -93.449801 
L 668.520401 -93.46217 
L 674.768682 -94.086596 
L 681.016964 -92.986027 
L 687.265245 -91.400352 
L 693.513527 -100.229956 
L 693.513527 -105.768874 
L 693.513527 -105.768874 
L 687.265245 -99.323571 
L 681.016964 -95.300461 
L 674.768682 -99.295262 
L 668.520401 -95.985111 
L 662.272119 -98.882822 
L 656.023838 -98.284635 
L 649.775556 -92.964915 
L 643.527275 -102.704526 
L 637.278993 -100.723153 
L 631.030712 -91.733583 
L 624.78243 -101.116103 
L 618.534149 -95.869482 
L 612.285867 -96.884618 
L 606.037585 -96.618668 
L 599.789304 -97.733287 
L 593.541022 -97.839949 
L 587.292741 -95.171404 
L 581.044459 -98.479959 
L 574.796178 -90.727027 
L 568.547896 -89.316079 
L 562.299615 -89.447601 
L 556.051333 -89.050343 
L 549.803052 -90.461962 
L 543.55477 -86.661829 
L 537.306489 -91.555624 
L 531.058207 -87.980221 
L 524.809926 -88.41389 
L 518.561644 -89.959154 
L 512.313363 -89.222059 
L 506.065081 -87.591894 
L 499.816799 -87.074498 
L 493.568518 -90.430803 
L 487.320236 -89.197448 
L 481.071955 -87.540136 
L 474.823673 -83.639304 
L 468.575392 -84.872873 
L 462.32711 -84.789117 
L 456.078829 -77.85464 
L 449.830547 -79.959938 
L 443.582266 -78.151396 
L 437.333984 -76.664624 
L 431.085703 -72.912577 
L 424.837421 -72.096019 
L 418.58914 -69.515408 
L 412.340858 -66.957834 
L 406.092576 -65.36313 
L 399.844295 -61.952665 
z
" style="stroke: #1f77b4; stroke-opacity: 0.25"/>
    </defs>
    <g clip-path="url(#pb89af22d51)">
     <use xlink:href="#m55c52f6083" x="0" y="433.44" style="fill: #1f77b4; fill-opacity: 0.25; stroke: #1f77b4; stroke-opacity: 0.25"/>
    </g>
   </g>
   <g id="matplotlib.axis_9">
    <g id="xtick_25">
     <g id="line2d_93">
      <path d="M 393.596013 378.92 
L 393.596013 227.09 
" clip-path="url(#pb89af22d51)" style="fill: none; stroke: #b0b0b0; stroke-opacity: 0.3; stroke-width: 0.8; stroke-linecap: square"/>
     </g>
     <g id="line2d_94">
      <g>
       <use xlink:href="#m3144117050" x="393.596013" y="378.92" style="stroke: #000000; stroke-width: 0.8"/>
      </g>
     </g>
     <g id="text_21">
      <!-- 0 -->
      <g transform="translate(390.414763 393.518437) scale(0.1 -0.1)">
       <use xlink:href="#DejaVuSans-30"/>
      </g>
     </g>
    </g>
    <g id="xtick_26">
     <g id="line2d_95">
      <path d="M 456.078829 378.92 
L 456.078829 227.09 
" clip-path="url(#pb89af22d51)" style="fill: none; stroke: #b0b0b0; stroke-opacity: 0.3; stroke-width: 0.8; stroke-linecap: square"/>
     </g>
     <g id="line2d_96">
      <g>
       <use xlink:href="#m3144117050" x="456.078829" y="378.92" style="stroke: #000000; stroke-width: 0.8"/>
      </g>
     </g>
     <g id="text_22">
      <!-- 10 -->
      <g transform="translate(449.716329 393.518437) scale(0.1 -0.1)">
       <use xlink:href="#DejaVuSans-31"/>
       <use xlink:href="#DejaVuSans-30" transform="translate(63.623047 0)"/>
      </g>
     </g>
    </g>
    <g id="xtick_27">
     <g id="line2d_97">
      <path d="M 518.561644 378.92 
L 518.561644 227.09 
" clip-path="url(#pb89af22d51)" style="fill: none; stroke: #b0b0b0; stroke-opacity: 0.3; stroke-width: 0.8; stroke-linecap: square"/>
     </g>
     <g id="line2d_98">
      <g>
       <use xlink:href="#m3144117050" x="518.561644" y="378.92" style="stroke: #000000; stroke-width: 0.8"/>
      </g>
     </g>
     <g id="text_23">
      <!-- 20 -->
      <g transform="translate(512.199144 393.518437) scale(0.1 -0.1)">
       <use xlink:href="#DejaVuSans-32"/>
       <use xlink:href="#DejaVuSans-30" transform="translate(63.623047 0)"/>
      </g>
     </g>
    </g>
    <g id="xtick_28">
     <g id="line2d_99">
      <path d="M 581.044459 378.92 
L 581.044459 227.09 
" clip-path="url(#pb89af22d51)" style="fill: none; stroke: #b0b0b0; stroke-opacity: 0.3; stroke-width: 0.8; stroke-linecap: square"/>
     </g>
     <g id="line2d_100">
      <g>
       <use xlink:href="#m3144117050" x="581.044459" y="378.92" style="stroke: #000000; stroke-width: 0.8"/>
      </g>
     </g>
     <g id="text_24">
      <!-- 30 -->
      <g transform="translate(574.681959 393.518437) scale(0.1 -0.1)">
       <use xlink:href="#DejaVuSans-33"/>
       <use xlink:href="#DejaVuSans-30" transform="translate(63.623047 0)"/>
      </g>
     </g>
    </g>
    <g id="xtick_29">
     <g id="line2d_101">
      <path d="M 643.527275 378.92 
L 643.527275 227.09 
" clip-path="url(#pb89af22d51)" style="fill: none; stroke: #b0b0b0; stroke-opacity: 0.3; stroke-width: 0.8; stroke-linecap: square"/>
     </g>
     <g id="line2d_102">
      <g>
       <use xlink:href="#m3144117050" x="643.527275" y="378.92" style="stroke: #000000; stroke-width: 0.8"/>
      </g>
     </g>
     <g id="text_25">
      <!-- 40 -->
      <g transform="translate(637.164775 393.518437) scale(0.1 -0.1)">
       <use xlink:href="#DejaVuSans-34"/>
       <use xlink:href="#DejaVuSans-30" transform="translate(63.623047 0)"/>
      </g>
     </g>
    </g>
    <g id="xtick_30">
     <g id="line2d_103">
      <path d="M 706.01009 378.92 
L 706.01009 227.09 
" clip-path="url(#pb89af22d51)" style="fill: none; stroke: #b0b0b0; stroke-opacity: 0.3; stroke-width: 0.8; stroke-linecap: square"/>
     </g>
     <g id="line2d_104">
      <g>
       <use xlink:href="#m3144117050" x="706.01009" y="378.92" style="stroke: #000000; stroke-width: 0.8"/>
      </g>
     </g>
     <g id="text_26">
      <!-- 50 -->
      <g transform="translate(699.64759 393.518437) scale(0.1 -0.1)">
       <use xlink:href="#DejaVuSans-35"/>
       <use xlink:href="#DejaVuSans-30" transform="translate(63.623047 0)"/>
      </g>
     </g>
    </g>
   </g>
   <g id="matplotlib.axis_10">
    <g id="ytick_21">
     <g id="line2d_105">
      <path d="M 385.160833 354.19862 
L 708.196989 354.19862 
" clip-path="url(#pb89af22d51)" style="fill: none; stroke: #b0b0b0; stroke-opacity: 0.3; stroke-width: 0.8; stroke-linecap: square"/>
     </g>
     <g id="line2d_106">
      <g>
       <use xlink:href="#m2e79b91de9" x="385.160833" y="354.19862" style="stroke: #000000; stroke-width: 0.8"/>
      </g>
     </g>
    </g>
    <g id="ytick_22">
     <g id="line2d_107">
      <path d="M 385.160833 325.495014 
L 708.196989 325.495014 
" clip-path="url(#pb89af22d51)" style="fill: none; stroke: #b0b0b0; stroke-opacity: 0.3; stroke-width: 0.8; stroke-linecap: square"/>
     </g>
     <g id="line2d_108">
      <g>
       <use xlink:href="#m2e79b91de9" x="385.160833" y="325.495014" style="stroke: #000000; stroke-width: 0.8"/>
      </g>
     </g>
    </g>
    <g id="ytick_23">
     <g id="line2d_109">
      <path d="M 385.160833 296.791409 
L 708.196989 296.791409 
" clip-path="url(#pb89af22d51)" style="fill: none; stroke: #b0b0b0; stroke-opacity: 0.3; stroke-width: 0.8; stroke-linecap: square"/>
     </g>
     <g id="line2d_110">
      <g>
       <use xlink:href="#m2e79b91de9" x="385.160833" y="296.791409" style="stroke: #000000; stroke-width: 0.8"/>
      </g>
     </g>
    </g>
    <g id="ytick_24">
     <g id="line2d_111">
      <path d="M 385.160833 268.087803 
L 708.196989 268.087803 
" clip-path="url(#pb89af22d51)" style="fill: none; stroke: #b0b0b0; stroke-opacity: 0.3; stroke-width: 0.8; stroke-linecap: square"/>
     </g>
     <g id="line2d_112">
      <g>
       <use xlink:href="#m2e79b91de9" x="385.160833" y="268.087803" style="stroke: #000000; stroke-width: 0.8"/>
      </g>
     </g>
    </g>
    <g id="ytick_25">
     <g id="line2d_113">
      <path d="M 385.160833 239.384198 
L 708.196989 239.384198 
" clip-path="url(#pb89af22d51)" style="fill: none; stroke: #b0b0b0; stroke-opacity: 0.3; stroke-width: 0.8; stroke-linecap: square"/>
     </g>
     <g id="line2d_114">
      <g>
       <use xlink:href="#m2e79b91de9" x="385.160833" y="239.384198" style="stroke: #000000; stroke-width: 0.8"/>
      </g>
     </g>
    </g>
   </g>
   <g id="line2d_115">
    <path d="M 399.844295 371.561055 
L 406.092576 368.91503 
L 412.340858 367.299842 
L 418.58914 364.976502 
L 424.837421 362.904951 
L 431.085703 360.732654 
L 437.333984 357.246103 
L 443.582266 356.471536 
L 449.830547 355.306015 
L 456.078829 355.797286 
L 462.32711 348.729916 
L 468.575392 349.459174 
L 474.823673 349.979701 
L 481.071955 347.755435 
L 487.320236 346.539889 
L 493.568518 344.500808 
L 499.816799 347.559337 
L 506.065081 346.321689 
L 512.313363 344.640133 
L 518.561644 344.594355 
L 524.809926 348.299792 
L 531.058207 345.83438 
L 537.306489 346.945551 
L 543.55477 346.875411 
L 549.803052 346.339239 
L 556.051333 345.532453 
L 562.299615 346.023699 
L 568.547896 344.847174 
L 574.796178 345.744805 
L 581.044459 335.242151 
L 587.292741 340.99496 
L 593.541022 336.691616 
L 599.789304 341.730737 
L 606.037585 337.248596 
L 612.285867 337.83773 
L 618.534149 340.466283 
L 624.78243 341.486087 
L 631.030712 343.170294 
L 637.278993 333.44523 
L 643.527275 336.905751 
L 649.775556 341.424962 
L 656.023838 336.466869 
L 662.272119 338.738166 
L 668.520401 338.804505 
L 674.768682 335.663104 
L 681.016964 338.808178 
L 687.265245 338.064103 
L 693.513527 331.730417 
" clip-path="url(#pb89af22d51)" style="fill: none; stroke: #1f77b4; stroke-width: 1.5; stroke-linecap: square"/>
   </g>
   <g id="patch_23">
    <path d="M 385.160833 378.92 
L 385.160833 227.09 
" style="fill: none; stroke: #000000; stroke-width: 0.8; stroke-linejoin: miter; stroke-linecap: square"/>
   </g>
   <g id="patch_24">
    <path d="M 708.196989 378.92 
L 708.196989 227.09 
" style="fill: none; stroke: #000000; stroke-width: 0.8; stroke-linejoin: miter; stroke-linecap: square"/>
   </g>
   <g id="patch_25">
    <path d="M 385.160833 378.92 
L 708.196989 378.92 
" style="fill: none; stroke: #000000; stroke-width: 0.8; stroke-linejoin: miter; stroke-linecap: square"/>
   </g>
   <g id="patch_26">
    <path d="M 385.160833 227.09 
L 708.196989 227.09 
" style="fill: none; stroke: #000000; stroke-width: 0.8; stroke-linejoin: miter; stroke-linecap: square"/>
   </g>
   <g id="text_27">
    <!-- variant=V4  market=IBEX -->
    <g transform="translate(481.62813 221.09) scale(0.1 -0.1)">
     <use xlink:href="#DejaVuSans-76"/>
     <use xlink:href="#DejaVuSans-61" transform="translate(59.179688 0)"/>
     <use xlink:href="#DejaVuSans-72" transform="translate(120.458984 0)"/>
     <use xlink:href="#DejaVuSans-69" transform="translate(161.572266 0)"/>
     <use xlink:href="#DejaVuSans-61" transform="translate(189.355469 0)"/>
     <use xlink:href="#DejaVuSans-6e" transform="translate(250.634766 0)"/>
     <use xlink:href="#DejaVuSans-74" transform="translate(314.013672 0)"/>
     <use xlink:href="#DejaVuSans-3d" transform="translate(353.222656 0)"/>
     <use xlink:href="#DejaVuSans-56" transform="translate(437.011719 0)"/>
     <use xlink:href="#DejaVuSans-34" transform="translate(505.419922 0)"/>
     <use xlink:href="#DejaVuSans-20" transform="translate(569.042969 0)"/>
     <use xlink:href="#DejaVuSans-20" transform="translate(600.830078 0)"/>
     <use xlink:href="#DejaVuSans-6d" transform="translate(632.617188 0)"/>
     <use xlink:href="#DejaVuSans-61" transform="translate(730.029297 0)"/>
     <use xlink:href="#DejaVuSans-72" transform="translate(791.308594 0)"/>
     <use xlink:href="#DejaVuSans-6b" transform="translate(832.421875 0)"/>
     <use xlink:href="#DejaVuSans-65" transform="translate(886.707031 0)"/>
     <use xlink:href="#DejaVuSans-74" transform="translate(948.230469 0)"/>
     <use xlink:href="#DejaVuSans-3d" transform="translate(987.439453 0)"/>
     <use xlink:href="#DejaVuSans-49" transform="translate(1071.228516 0)"/>
     <use xlink:href="#DejaVuSans-42" transform="translate(1100.720703 0)"/>
     <use xlink:href="#DejaVuSans-45" transform="translate(1169.324219 0)"/>
     <use xlink:href="#DejaVuSans-58" transform="translate(1232.507812 0)"/>
    </g>
   </g>
  </g>
  <g id="axes_6">
   <g id="patch_27">
    <path d="M 727.130417 378.92 
L 1050.166572 378.92 
L 1050.166572 227.09 
L 727.130417 227.09 
z
" style="fill: #ffffff"/>
   </g>
   <g id="FillBetweenPolyCollection_6">
    <defs>
     <path id="m8f8bb2f31d" d="M 741.813878 -83.521809 
L 741.813878 -78.508069 
L 748.06216 -86.950442 
L 754.310441 -93.033986 
L 760.558723 -106.879967 
L 766.807004 -126.416325 
L 773.055286 -134.200811 
L 779.303567 -155.477642 
L 785.551849 -162.728812 
L 791.800131 -163.637115 
L 798.048412 -166.764102 
L 804.296694 -188.46138 
L 810.544975 -164.507237 
L 816.793257 -166.641309 
L 823.041538 -153.675283 
L 829.28982 -175.456146 
L 835.538101 -154.873083 
L 841.786383 -150.204116 
L 848.034664 -143.799269 
L 854.282946 -150.940871 
L 860.531227 -145.927378 
L 866.779509 -132.203612 
L 873.02779 -128.045444 
L 879.276072 -141.76269 
L 885.524353 -122.19249 
L 891.772635 -117.786208 
L 898.020917 -120.107848 
L 904.269198 -114.199347 
L 910.51748 -115.17896 
L 916.765761 -109.241436 
L 923.014043 -103.985688 
L 929.262324 -103.661182 
L 935.510606 -96.436538 
L 941.758887 -98.771331 
L 948.007169 -99.315336 
L 954.25545 -98.411239 
L 960.503732 -92.299798 
L 966.752013 -92.419137 
L 973.000295 -88.722313 
L 979.248576 -99.2843 
L 985.496858 -94.94386 
L 991.74514 -93.630794 
L 997.993421 -91.240833 
L 1004.241703 -93.498794 
L 1010.489984 -94.701091 
L 1016.738266 -97.535818 
L 1022.986547 -93.970773 
L 1029.234829 -91.17476 
L 1035.48311 -100.868748 
L 1035.48311 -108.118694 
L 1035.48311 -108.118694 
L 1029.234829 -105.055279 
L 1022.986547 -98.645489 
L 1016.738266 -104.908343 
L 1010.489984 -100.179446 
L 1004.241703 -99.622804 
L 997.993421 -107.910857 
L 991.74514 -94.775483 
L 985.496858 -102.845193 
L 979.248576 -102.468549 
L 973.000295 -98.099852 
L 966.752013 -107.768039 
L 960.503732 -108.356795 
L 954.25545 -108.264919 
L 948.007169 -109.582811 
L 941.758887 -109.75969 
L 935.510606 -116.607971 
L 929.262324 -111.660157 
L 923.014043 -129.974964 
L 916.765761 -117.535046 
L 910.51748 -116.4517 
L 904.269198 -123.03888 
L 898.020917 -123.217736 
L 891.772635 -124.583347 
L 885.524353 -131.062064 
L 879.276072 -145.326162 
L 873.02779 -135.341627 
L 866.779509 -138.849636 
L 860.531227 -161.131164 
L 854.282946 -156.682699 
L 848.034664 -167.45297 
L 841.786383 -154.166255 
L 835.538101 -179.732821 
L 829.28982 -179.412663 
L 823.041538 -174.10651 
L 816.793257 -193.377523 
L 810.544975 -172.625848 
L 804.296694 -199.448636 
L 798.048412 -173.332366 
L 791.800131 -184.512682 
L 785.551849 -179.67575 
L 779.303567 -163.166186 
L 773.055286 -153.122862 
L 766.807004 -128.794159 
L 760.558723 -115.77586 
L 754.310441 -100.54707 
L 748.06216 -94.965215 
L 741.813878 -83.521809 
z
" style="stroke: #1f77b4; stroke-opacity: 0.25"/>
    </defs>
    <g clip-path="url(#p379eb92a75)">
     <use xlink:href="#m8f8bb2f31d" x="0" y="433.44" style="fill: #1f77b4; fill-opacity: 0.25; stroke: #1f77b4; stroke-opacity: 0.25"/>
    </g>
   </g>
   <g id="matplotlib.axis_11">
    <g id="xtick_31">
     <g id="line2d_116">
      <path d="M 735.565597 378.92 
L 735.565597 227.09 
" clip-path="url(#p379eb92a75)" style="fill: none; stroke: #b0b0b0; stroke-opacity: 0.3; stroke-width: 0.8; stroke-linecap: square"/>
     </g>
     <g id="line2d_117">
      <g>
       <use xlink:href="#m3144117050" x="735.565597" y="378.92" style="stroke: #000000; stroke-width: 0.8"/>
      </g>
     </g>
     <g id="text_28">
      <!-- 0 -->
      <g transform="translate(732.384347 393.518437) scale(0.1 -0.1)">
       <use xlink:href="#DejaVuSans-30"/>
      </g>
     </g>
    </g>
    <g id="xtick_32">
     <g id="line2d_118">
      <path d="M 798.048412 378.92 
L 798.048412 227.09 
" clip-path="url(#p379eb92a75)" style="fill: none; stroke: #b0b0b0; stroke-opacity: 0.3; stroke-width: 0.8; stroke-linecap: square"/>
     </g>
     <g id="line2d_119">
      <g>
       <use xlink:href="#m3144117050" x="798.048412" y="378.92" style="stroke: #000000; stroke-width: 0.8"/>
      </g>
     </g>
     <g id="text_29">
      <!-- 10 -->
      <g transform="translate(791.685912 393.518437) scale(0.1 -0.1)">
       <use xlink:href="#DejaVuSans-31"/>
       <use xlink:href="#DejaVuSans-30" transform="translate(63.623047 0)"/>
      </g>
     </g>
    </g>
    <g id="xtick_33">
     <g id="line2d_120">
      <path d="M 860.531227 378.92 
L 860.531227 227.09 
" clip-path="url(#p379eb92a75)" style="fill: none; stroke: #b0b0b0; stroke-opacity: 0.3; stroke-width: 0.8; stroke-linecap: square"/>
     </g>
     <g id="line2d_121">
      <g>
       <use xlink:href="#m3144117050" x="860.531227" y="378.92" style="stroke: #000000; stroke-width: 0.8"/>
      </g>
     </g>
     <g id="text_30">
      <!-- 20 -->
      <g transform="translate(854.168727 393.518437) scale(0.1 -0.1)">
       <use xlink:href="#DejaVuSans-32"/>
       <use xlink:href="#DejaVuSans-30" transform="translate(63.623047 0)"/>
      </g>
     </g>
    </g>
    <g id="xtick_34">
     <g id="line2d_122">
      <path d="M 923.014043 378.92 
L 923.014043 227.09 
" clip-path="url(#p379eb92a75)" style="fill: none; stroke: #b0b0b0; stroke-opacity: 0.3; stroke-width: 0.8; stroke-linecap: square"/>
     </g>
     <g id="line2d_123">
      <g>
       <use xlink:href="#m3144117050" x="923.014043" y="378.92" style="stroke: #000000; stroke-width: 0.8"/>
      </g>
     </g>
     <g id="text_31">
      <!-- 30 -->
      <g transform="translate(916.651543 393.518437) scale(0.1 -0.1)">
       <use xlink:href="#DejaVuSans-33"/>
       <use xlink:href="#DejaVuSans-30" transform="translate(63.623047 0)"/>
      </g>
     </g>
    </g>
    <g id="xtick_35">
     <g id="line2d_124">
      <path d="M 985.496858 378.92 
L 985.496858 227.09 
" clip-path="url(#p379eb92a75)" style="fill: none; stroke: #b0b0b0; stroke-opacity: 0.3; stroke-width: 0.8; stroke-linecap: square"/>
     </g>
     <g id="line2d_125">
      <g>
       <use xlink:href="#m3144117050" x="985.496858" y="378.92" style="stroke: #000000; stroke-width: 0.8"/>
      </g>
     </g>
     <g id="text_32">
      <!-- 40 -->
      <g transform="translate(979.134358 393.518437) scale(0.1 -0.1)">
       <use xlink:href="#DejaVuSans-34"/>
       <use xlink:href="#DejaVuSans-30" transform="translate(63.623047 0)"/>
      </g>
     </g>
    </g>
    <g id="xtick_36">
     <g id="line2d_126">
      <path d="M 1047.979673 378.92 
L 1047.979673 227.09 
" clip-path="url(#p379eb92a75)" style="fill: none; stroke: #b0b0b0; stroke-opacity: 0.3; stroke-width: 0.8; stroke-linecap: square"/>
     </g>
     <g id="line2d_127">
      <g>
       <use xlink:href="#m3144117050" x="1047.979673" y="378.92" style="stroke: #000000; stroke-width: 0.8"/>
      </g>
     </g>
     <g id="text_33">
      <!-- 50 -->
      <g transform="translate(1041.617173 393.518437) scale(0.1 -0.1)">
       <use xlink:href="#DejaVuSans-35"/>
       <use xlink:href="#DejaVuSans-30" transform="translate(63.623047 0)"/>
      </g>
     </g>
    </g>
   </g>
   <g id="matplotlib.axis_12">
    <g id="ytick_26">
     <g id="line2d_128">
      <path d="M 727.130417 354.19862 
L 1050.166572 354.19862 
" clip-path="url(#p379eb92a75)" style="fill: none; stroke: #b0b0b0; stroke-opacity: 0.3; stroke-width: 0.8; stroke-linecap: square"/>
     </g>
     <g id="line2d_129">
      <g>
       <use xlink:href="#m2e79b91de9" x="727.130417" y="354.19862" style="stroke: #000000; stroke-width: 0.8"/>
      </g>
     </g>
    </g>
    <g id="ytick_27">
     <g id="line2d_130">
      <path d="M 727.130417 325.495014 
L 1050.166572 325.495014 
" clip-path="url(#p379eb92a75)" style="fill: none; stroke: #b0b0b0; stroke-opacity: 0.3; stroke-width: 0.8; stroke-linecap: square"/>
     </g>
     <g id="line2d_131">
      <g>
       <use xlink:href="#m2e79b91de9" x="727.130417" y="325.495014" style="stroke: #000000; stroke-width: 0.8"/>
      </g>
     </g>
    </g>
    <g id="ytick_28">
     <g id="line2d_132">
      <path d="M 727.130417 296.791409 
L 1050.166572 296.791409 
" clip-path="url(#p379eb92a75)" style="fill: none; stroke: #b0b0b0; stroke-opacity: 0.3; stroke-width: 0.8; stroke-linecap: square"/>
     </g>
     <g id="line2d_133">
      <g>
       <use xlink:href="#m2e79b91de9" x="727.130417" y="296.791409" style="stroke: #000000; stroke-width: 0.8"/>
      </g>
     </g>
    </g>
    <g id="ytick_29">
     <g id="line2d_134">
      <path d="M 727.130417 268.087803 
L 1050.166572 268.087803 
" clip-path="url(#p379eb92a75)" style="fill: none; stroke: #b0b0b0; stroke-opacity: 0.3; stroke-width: 0.8; stroke-linecap: square"/>
     </g>
     <g id="line2d_135">
      <g>
       <use xlink:href="#m2e79b91de9" x="727.130417" y="268.087803" style="stroke: #000000; stroke-width: 0.8"/>
      </g>
     </g>
    </g>
    <g id="ytick_30">
     <g id="line2d_136">
      <path d="M 727.130417 239.384198 
L 1050.166572 239.384198 
" clip-path="url(#p379eb92a75)" style="fill: none; stroke: #b0b0b0; stroke-opacity: 0.3; stroke-width: 0.8; stroke-linecap: square"/>
     </g>
     <g id="line2d_137">
      <g>
       <use xlink:href="#m2e79b91de9" x="727.130417" y="239.384198" style="stroke: #000000; stroke-width: 0.8"/>
      </g>
     </g>
    </g>
   </g>
   <g id="line2d_138">
    <path d="M 741.813878 352.399842 
L 748.06216 345.248914 
L 754.310441 338.305764 
L 760.558723 324.698976 
L 766.807004 306.097521 
L 773.055286 280.4865 
L 779.303567 271.196379 
L 785.551849 268.636953 
L 791.800131 267.87015 
L 798.048412 264.849966 
L 804.296694 241.597513 
L 810.544975 266.420464 
L 816.793257 242.583383 
L 823.041538 261.333473 
L 829.28982 257.212298 
L 835.538101 262.465333 
L 841.786383 279.76014 
L 848.034664 276.777557 
L 854.282946 280.725645 
L 860.531227 284.02979 
L 866.779509 296.695745 
L 873.02779 301.863278 
L 879.276072 291.536135 
L 885.524353 310.254995 
L 891.772635 311.581837 
L 898.020917 311.791691 
L 904.269198 313.621811 
L 910.51748 317.824629 
L 916.765761 321.780063 
L 923.014043 313.882309 
L 929.262324 324.291521 
L 935.510606 322.329741 
L 941.758887 334.452062 
L 948.007169 332.783488 
L 954.25545 325.520225 
L 960.503732 330.168465 
L 966.752013 331.529844 
L 973.000295 339.874248 
L 979.248576 333.155088 
L 985.496858 331.325652 
L 991.74514 338.673302 
L 997.993421 340.952856 
L 1004.241703 337.558668 
L 1010.489984 336.671257 
L 1016.738266 328.854615 
L 1022.986547 335.494117 
L 1029.234829 333.509789 
L 1035.48311 331.981102 
" clip-path="url(#p379eb92a75)" style="fill: none; stroke: #1f77b4; stroke-width: 1.5; stroke-linecap: square"/>
   </g>
   <g id="patch_28">
    <path d="M 727.130417 378.92 
L 727.130417 227.09 
" style="fill: none; stroke: #000000; stroke-width: 0.8; stroke-linejoin: miter; stroke-linecap: square"/>
   </g>
   <g id="patch_29">
    <path d="M 1050.166572 378.92 
L 1050.166572 227.09 
" style="fill: none; stroke: #000000; stroke-width: 0.8; stroke-linejoin: miter; stroke-linecap: square"/>
   </g>
   <g id="patch_30">
    <path d="M 727.130417 378.92 
L 1050.166572 378.92 
" style="fill: none; stroke: #000000; stroke-width: 0.8; stroke-linejoin: miter; stroke-linecap: square"/>
   </g>
   <g id="patch_31">
    <path d="M 727.130417 227.09 
L 1050.166572 227.09 
" style="fill: none; stroke: #000000; stroke-width: 0.8; stroke-linejoin: miter; stroke-linecap: square"/>
   </g>
   <g id="text_34">
    <!-- variant=V4  market=SP50 -->
    <g transform="translate(822.535994 221.09) scale(0.1 -0.1)">
     <use xlink:href="#DejaVuSans-76"/>
     <use xlink:href="#DejaVuSans-61" transform="translate(59.179688 0)"/>
     <use xlink:href="#DejaVuSans-72" transform="translate(120.458984 0)"/>
     <use xlink:href="#DejaVuSans-69" transform="translate(161.572266 0)"/>
     <use xlink:href="#DejaVuSans-61" transform="translate(189.355469 0)"/>
     <use xlink:href="#DejaVuSans-6e" transform="translate(250.634766 0)"/>
     <use xlink:href="#DejaVuSans-74" transform="translate(314.013672 0)"/>
     <use xlink:href="#DejaVuSans-3d" transform="translate(353.222656 0)"/>
     <use xlink:href="#DejaVuSans-56" transform="translate(437.011719 0)"/>
     <use xlink:href="#DejaVuSans-34" transform="translate(505.419922 0)"/>
     <use xlink:href="#DejaVuSans-20" transform="translate(569.042969 0)"/>
     <use xlink:href="#DejaVuSans-20" transform="translate(600.830078 0)"/>
     <use xlink:href="#DejaVuSans-6d" transform="translate(632.617188 0)"/>
     <use xlink:href="#DejaVuSans-61" transform="translate(730.029297 0)"/>
     <use xlink:href="#DejaVuSans-72" transform="translate(791.308594 0)"/>
     <use xlink:href="#DejaVuSans-6b" transform="translate(832.421875 0)"/>
     <use xlink:href="#DejaVuSans-65" transform="translate(886.707031 0)"/>
     <use xlink:href="#DejaVuSans-74" transform="translate(948.230469 0)"/>
     <use xlink:href="#DejaVuSans-3d" transform="translate(987.439453 0)"/>
     <use xlink:href="#DejaVuSans-53" transform="translate(1071.228516 0)"/>
     <use xlink:href="#DejaVuSans-50" transform="translate(1134.705078 0)"/>
     <use xlink:href="#DejaVuSans-35" transform="translate(1195.007812 0)"/>
     <use xlink:href="#DejaVuSans-30" transform="translate(1258.630859 0)"/>
    </g>
   </g>
  </g>
  <g id="text_35">
   <!-- approx_kl -->
   <g transform="translate(492.96375 16.318125) scale(0.12 -0.12)">
    <defs>
     <path id="DejaVuSans-Bold-61" d="M 2106 1575 
Q 1756 1575 1579 1456 
Q 1403 1338 1403 1106 
Q 1403 894 1545 773 
Q 1688 653 1941 653 
Q 2256 653 2472 879 
Q 2688 1106 2688 1447 
L 2688 1575 
L 2106 1575 
z
M 3816 1997 
L 3816 0 
L 2688 0 
L 2688 519 
Q 2463 200 2181 54 
Q 1900 -91 1497 -91 
Q 953 -91 614 226 
Q 275 544 275 1050 
Q 275 1666 698 1953 
Q 1122 2241 2028 2241 
L 2688 2241 
L 2688 2328 
Q 2688 2594 2478 2717 
Q 2269 2841 1825 2841 
Q 1466 2841 1156 2769 
Q 847 2697 581 2553 
L 581 3406 
Q 941 3494 1303 3539 
Q 1666 3584 2028 3584 
Q 2975 3584 3395 3211 
Q 3816 2838 3816 1997 
z
" transform="scale(0.015625)"/>
     <path id="DejaVuSans-Bold-70" d="M 1656 506 
L 1656 -1331 
L 538 -1331 
L 538 3500 
L 1656 3500 
L 1656 2988 
Q 1888 3294 2169 3439 
Q 2450 3584 2816 3584 
Q 3463 3584 3878 3070 
Q 4294 2556 4294 1747 
Q 4294 938 3878 423 
Q 3463 -91 2816 -91 
Q 2450 -91 2169 54 
Q 1888 200 1656 506 
z
M 2400 2772 
Q 2041 2772 1848 2508 
Q 1656 2244 1656 1747 
Q 1656 1250 1848 986 
Q 2041 722 2400 722 
Q 2759 722 2948 984 
Q 3138 1247 3138 1747 
Q 3138 2247 2948 2509 
Q 2759 2772 2400 2772 
z
" transform="scale(0.015625)"/>
     <path id="DejaVuSans-Bold-72" d="M 3138 2547 
Q 2991 2616 2845 2648 
Q 2700 2681 2553 2681 
Q 2122 2681 1889 2404 
Q 1656 2128 1656 1613 
L 1656 0 
L 538 0 
L 538 3500 
L 1656 3500 
L 1656 2925 
Q 1872 3269 2151 3426 
Q 2431 3584 2822 3584 
Q 2878 3584 2943 3579 
Q 3009 3575 3134 3559 
L 3138 2547 
z
" transform="scale(0.015625)"/>
     <path id="DejaVuSans-Bold-6f" d="M 2203 2784 
Q 1831 2784 1636 2517 
Q 1441 2250 1441 1747 
Q 1441 1244 1636 976 
Q 1831 709 2203 709 
Q 2569 709 2762 976 
Q 2956 1244 2956 1747 
Q 2956 2250 2762 2517 
Q 2569 2784 2203 2784 
z
M 2203 3584 
Q 3106 3584 3614 3096 
Q 4122 2609 4122 1747 
Q 4122 884 3614 396 
Q 3106 -91 2203 -91 
Q 1297 -91 786 396 
Q 275 884 275 1747 
Q 275 2609 786 3096 
Q 1297 3584 2203 3584 
z
" transform="scale(0.015625)"/>
     <path id="DejaVuSans-Bold-78" d="M 1422 1791 
L 159 3500 
L 1344 3500 
L 2059 2463 
L 2784 3500 
L 3969 3500 
L 2706 1797 
L 4031 0 
L 2847 0 
L 2059 1106 
L 1281 0 
L 97 0 
L 1422 1791 
z
" transform="scale(0.015625)"/>
     <path id="DejaVuSans-Bold-5f" d="M 3200 -916 
L 3200 -1509 
L 0 -1509 
L 0 -916 
L 3200 -916 
z
" transform="scale(0.015625)"/>
     <path id="DejaVuSans-Bold-6b" d="M 538 4863 
L 1656 4863 
L 1656 2216 
L 2944 3500 
L 4244 3500 
L 2534 1894 
L 4378 0 
L 3022 0 
L 1656 1459 
L 1656 0 
L 538 0 
L 538 4863 
z
" transform="scale(0.015625)"/>
     <path id="DejaVuSans-Bold-6c" d="M 538 4863 
L 1656 4863 
L 1656 0 
L 538 0 
L 538 4863 
z
" transform="scale(0.015625)"/>
    </defs>
    <use xlink:href="#DejaVuSans-Bold-61"/>
    <use xlink:href="#DejaVuSans-Bold-70" transform="translate(67.480469 0)"/>
    <use xlink:href="#DejaVuSans-Bold-70" transform="translate(139.0625 0)"/>
    <use xlink:href="#DejaVuSans-Bold-72" transform="translate(210.644531 0)"/>
    <use xlink:href="#DejaVuSans-Bold-6f" transform="translate(259.960938 0)"/>
    <use xlink:href="#DejaVuSans-Bold-78" transform="translate(328.662109 0)"/>
    <use xlink:href="#DejaVuSans-Bold-5f" transform="translate(393.164062 0)"/>
    <use xlink:href="#DejaVuSans-Bold-6b" transform="translate(443.164062 0)"/>
    <use xlink:href="#DejaVuSans-Bold-6c" transform="translate(509.667969 0)"/>
   </g>
  </g>
  <g id="text_36">
   <!-- PPO rollout iteration -->
   <g transform="translate(465.317813 423.744375) scale(0.12 -0.12)">
    <defs>
     <path id="DejaVuSans-4f" d="M 2522 4238 
Q 1834 4238 1429 3725 
Q 1025 3213 1025 2328 
Q 1025 1447 1429 934 
Q 1834 422 2522 422 
Q 3209 422 3611 934 
Q 4013 1447 4013 2328 
Q 4013 3213 3611 3725 
Q 3209 4238 2522 4238 
z
M 2522 4750 
Q 3503 4750 4090 4092 
Q 4678 3434 4678 2328 
Q 4678 1225 4090 567 
Q 3503 -91 2522 -91 
Q 1538 -91 948 565 
Q 359 1222 359 2328 
Q 359 3434 948 4092 
Q 1538 4750 2522 4750 
z
" transform="scale(0.015625)"/>
     <path id="DejaVuSans-6f" d="M 1959 3097 
Q 1497 3097 1228 2736 
Q 959 2375 959 1747 
Q 959 1119 1226 758 
Q 1494 397 1959 397 
Q 2419 397 2687 759 
Q 2956 1122 2956 1747 
Q 2956 2369 2687 2733 
Q 2419 3097 1959 3097 
z
M 1959 3584 
Q 2709 3584 3137 3096 
Q 3566 2609 3566 1747 
Q 3566 888 3137 398 
Q 2709 -91 1959 -91 
Q 1206 -91 779 398 
Q 353 888 353 1747 
Q 353 2609 779 3096 
Q 1206 3584 1959 3584 
z
" transform="scale(0.015625)"/>
     <path id="DejaVuSans-6c" d="M 603 4863 
L 1178 4863 
L 1178 0 
L 603 0 
L 603 4863 
z
" transform="scale(0.015625)"/>
     <path id="DejaVuSans-75" d="M 544 1381 
L 544 3500 
L 1119 3500 
L 1119 1403 
Q 1119 906 1312 657 
Q 1506 409 1894 409 
Q 2359 409 2629 706 
Q 2900 1003 2900 1516 
L 2900 3500 
L 3475 3500 
L 3475 0 
L 2900 0 
L 2900 538 
Q 2691 219 2414 64 
Q 2138 -91 1772 -91 
Q 1169 -91 856 284 
Q 544 659 544 1381 
z
M 1991 3584 
L 1991 3584 
z
" transform="scale(0.015625)"/>
    </defs>
    <use xlink:href="#DejaVuSans-50"/>
    <use xlink:href="#DejaVuSans-50" transform="translate(60.302734 0)"/>
    <use xlink:href="#DejaVuSans-4f" transform="translate(120.605469 0)"/>
    <use xlink:href="#DejaVuSans-20" transform="translate(199.316406 0)"/>
    <use xlink:href="#DejaVuSans-72" transform="translate(231.103516 0)"/>
    <use xlink:href="#DejaVuSans-6f" transform="translate(269.966797 0)"/>
    <use xlink:href="#DejaVuSans-6c" transform="translate(331.148438 0)"/>
    <use xlink:href="#DejaVuSans-6c" transform="translate(358.931641 0)"/>
    <use xlink:href="#DejaVuSans-6f" transform="translate(386.714844 0)"/>
    <use xlink:href="#DejaVuSans-75" transform="translate(447.896484 0)"/>
    <use xlink:href="#DejaVuSans-74" transform="translate(511.275391 0)"/>
    <use xlink:href="#DejaVuSans-20" transform="translate(550.484375 0)"/>
    <use xlink:href="#DejaVuSans-69" transform="translate(582.271484 0)"/>
    <use xlink:href="#DejaVuSans-74" transform="translate(610.054688 0)"/>
    <use xlink:href="#DejaVuSans-65" transform="translate(649.263672 0)"/>
    <use xlink:href="#DejaVuSans-72" transform="translate(710.787109 0)"/>
    <use xlink:href="#DejaVuSans-61" transform="translate(751.900391 0)"/>
    <use xlink:href="#DejaVuSans-74" transform="translate(813.179688 0)"/>
    <use xlink:href="#DejaVuSans-69" transform="translate(852.388672 0)"/>
    <use xlink:href="#DejaVuSans-6f" transform="translate(880.171875 0)"/>
    <use xlink:href="#DejaVuSans-6e" transform="translate(941.353516 0)"/>
   </g>
  </g>
  <g id="text_37">
   <!-- approx_kl -->
   <g transform="translate(16.318125 243.362812) rotate(-90) scale(0.12 -0.12)">
    <defs>
     <path id="DejaVuSans-70" d="M 1159 525 
L 1159 -1331 
L 581 -1331 
L 581 3500 
L 1159 3500 
L 1159 2969 
Q 1341 3281 1617 3432 
Q 1894 3584 2278 3584 
Q 2916 3584 3314 3078 
Q 3713 2572 3713 1747 
Q 3713 922 3314 415 
Q 2916 -91 2278 -91 
Q 1894 -91 1617 61 
Q 1341 213 1159 525 
z
M 3116 1747 
Q 3116 2381 2855 2742 
Q 2594 3103 2138 3103 
Q 1681 3103 1420 2742 
Q 1159 2381 1159 1747 
Q 1159 1113 1420 752 
Q 1681 391 2138 391 
Q 2594 391 2855 752 
Q 3116 1113 3116 1747 
z
" transform="scale(0.015625)"/>
     <path id="DejaVuSans-78" d="M 3513 3500 
L 2247 1797 
L 3578 0 
L 2900 0 
L 1881 1375 
L 863 0 
L 184 0 
L 1544 1831 
L 300 3500 
L 978 3500 
L 1906 2253 
L 2834 3500 
L 3513 3500 
z
" transform="scale(0.015625)"/>
     <path id="DejaVuSans-5f" d="M 3263 -1063 
L 3263 -1509 
L -63 -1509 
L -63 -1063 
L 3263 -1063 
z
" transform="scale(0.015625)"/>
    </defs>
    <use xlink:href="#DejaVuSans-61"/>
    <use xlink:href="#DejaVuSans-70" transform="translate(61.279297 0)"/>
    <use xlink:href="#DejaVuSans-70" transform="translate(124.755859 0)"/>
    <use xlink:href="#DejaVuSans-72" transform="translate(188.232422 0)"/>
    <use xlink:href="#DejaVuSans-6f" transform="translate(227.095703 0)"/>
    <use xlink:href="#DejaVuSans-78" transform="translate(285.152344 0)"/>
    <use xlink:href="#DejaVuSans-5f" transform="translate(344.332031 0)"/>
    <use xlink:href="#DejaVuSans-6b" transform="translate(394.332031 0)"/>
    <use xlink:href="#DejaVuSans-6c" transform="translate(452.242188 0)"/>
   </g>
  </g>
 </g>
 <defs>
  <clipPath id="p05fe47637a">
   <rect x="43.19125" y="47.04" width="323.036155" height="151.83"/>
  </clipPath>
  <clipPath id="pe787d5bf80">
   <rect x="385.160833" y="47.04" width="323.036155" height="151.83"/>
  </clipPath>
  <clipPath id="pc19e3b2f5f">
   <rect x="727.130417" y="47.04" width="323.036155" height="151.83"/>
  </clipPath>
  <clipPath id="p53dccaf863">
   <rect x="43.19125" y="227.09" width="323.036155" height="151.83"/>
  </clipPath>
  <clipPath id="pb89af22d51">
   <rect x="385.160833" y="227.09" width="323.036155" height="151.83"/>
  </clipPath>
  <clipPath id="p379eb92a75">
   <rect x="727.130417" y="227.09" width="323.036155" height="151.83"/>
  </clipPath>
 </defs>
</svg>
