<?xml version="1.0" encoding="utf-8" standalone="no"?>
<!DOCTYPE svg PUBLIC "-//W3C//DTD SVG 1.1//EN"
  "http://www.w3.org/Graphics/SVG/1.1/DTD/svg11.dtd">
<svg xmlns:xlink="http://www.w3.org/1999/xlink" width="1061.535065pt" height="433.44pt" viewBox="0 0 1061.535065 433.44" xmlns="http://www.w3.org/2000/svg" version="1.1">
 <metadata>
  <rdf:RDF xmlns:dc="http://purl.org/dc/elements/1.1/" xmlns:cc="http://creativecommons.org/ns#" xmlns:rdf="http://www.w3.org/1999/02/22-rdf-syntax-ns#">
   <cc:Work>
    <dc:type rdf:resource="http://purl.org/dc/dcmitype/StillImage"/>
    <dc:date>2026-05-28T06:41:04.938214</dc:date>
    <dc:format>image/svg+xml</dc:format>
    <dc:creator>
     <cc:Agent>
      <dc:title>Matplotlib v3.10.9, https://matplotlib.org/</dc:title>
     </cc:Agent>
    </dc:creator>
   </cc:Work>
  </rdf:RDF>
 </metadata>
 <defs>
  <style type="text/css">*{stroke-linejoin: round; stroke-linecap: butt}</style>
 </defs>
 <g id="figure_1">
  <g id="patch_1">
   <path d="M 0 433.44 
L 1061.535065 433.44 
L 1061.535065 0 
L 0 0 
z
" style="fill: #ffffff"/>
  </g>
  <g id="axes_1">
   <g id="patch_2">
    <path d="M 40.04125 198.87 
L 364.127405 198.87 
L 364.127405 47.04 
L 40.04125 47.04 
z
" style="fill: #ffffff"/>
   </g>
   <g id="FillBetweenPolyCollection_1">
    <defs>
     <path id="m9a088bafd5" d="M 54.772439 -241.731514 
L 54.772439 -241.704247 
L 61.04103 -241.488303 
L 67.309621 -241.480456 
L 73.578212 -241.479812 
L 79.846803 -241.479238 
L 86.115394 -241.478618 
L 92.383985 -241.476323 
L 98.652576 -241.475067 
L 104.921167 -241.474619 
L 111.189758 -241.474708 
L 117.458349 -241.473697 
L 123.72694 -241.472887 
L 129.995531 -241.472812 
L 136.264122 -241.472587 
L 142.532713 -241.472203 
L 148.801304 -241.472415 
L 155.069895 -241.47227 
L 161.338486 -241.472251 
L 167.607077 -241.471972 
L 173.875668 -241.471948 
L 180.144259 -241.471816 
L 186.41285 -241.471664 
L 192.681441 -241.471726 
L 198.950032 -241.471673 
L 205.218623 -241.471625 
L 211.487214 -241.471567 
L 217.755805 -241.471521 
L 224.024396 -241.471667 
L 230.292987 -241.471616 
L 236.561578 -241.471498 
L 242.830169 -241.471517 
L 249.09876 -241.471465 
L 255.367351 -241.471479 
L 261.635942 -241.471495 
L 267.904533 -241.471641 
L 274.173124 -241.471512 
L 280.441715 -241.471603 
L 286.710306 -241.471529 
L 292.978897 -241.471635 
L 299.247488 -241.471643 
L 305.516079 -241.471597 
L 311.78467 -241.471566 
L 318.053261 -241.471548 
L 324.321852 -241.47156 
L 330.590443 -241.471633 
L 336.859034 -241.471684 
L 343.127625 -241.471676 
L 349.396216 -241.471623 
L 349.396216 -241.471717 
L 349.396216 -241.471717 
L 343.127625 -241.471713 
L 336.859034 -241.471753 
L 330.590443 -241.471765 
L 324.321852 -241.471623 
L 318.053261 -241.471736 
L 311.78467 -241.471779 
L 305.516079 -241.471628 
L 299.247488 -241.471653 
L 292.978897 -241.471713 
L 286.710306 -241.471687 
L 280.441715 -241.471623 
L 274.173124 -241.471587 
L 267.904533 -241.471656 
L 261.635942 -241.471653 
L 255.367351 -241.471732 
L 249.09876 -241.471638 
L 242.830169 -241.471652 
L 236.561578 -241.471639 
L 230.292987 -241.47168 
L 224.024396 -241.471693 
L 217.755805 -241.471569 
L 211.487214 -241.471686 
L 205.218623 -241.47181 
L 198.950032 -241.471697 
L 192.681441 -241.471979 
L 186.41285 -241.471797 
L 180.144259 -241.472047 
L 173.875668 -241.472029 
L 167.607077 -241.472239 
L 161.338486 -241.472642 
L 155.069895 -241.472895 
L 148.801304 -241.47247 
L 142.532713 -241.472641 
L 136.264122 -241.474036 
L 129.995531 -241.473773 
L 123.72694 -241.474184 
L 117.458349 -241.473838 
L 111.189758 -241.47535 
L 104.921167 -241.475782 
L 98.652576 -241.475734 
L 92.383985 -241.478022 
L 86.115394 -241.479401 
L 79.846803 -241.480205 
L 73.578212 -241.48293 
L 67.309621 -241.485934 
L 61.04103 -241.496509 
L 54.772439 -241.731514 
z
" style="stroke: #1f77b4; stroke-opacity: 0.25"/>
    </defs>
    <g clip-path="url(#p606aad65df)">
     <use xlink:href="#m9a088bafd5" x="0" y="433.44" style="fill: #1f77b4; fill-opacity: 0.25; stroke: #1f77b4; stroke-opacity: 0.25"/>
    </g>
   </g>
   <g id="matplotlib.axis_1">
    <g id="xtick_1">
     <g id="line2d_1">
      <path d="M 48.503848 198.87 
L 48.503848 47.04 
" clip-path="url(#p606aad65df)" style="fill: none; stroke: #b0b0b0; stroke-opacity: 0.3; stroke-width: 0.8; stroke-linecap: square"/>
     </g>
     <g id="line2d_2">
      <defs>
       <path id="m5716f08ccc" d="M 0 0 
L 0 3.5 
" style="stroke: #000000; stroke-width: 0.8"/>
      </defs>
      <g>
       <use xlink:href="#m5716f08ccc" x="48.503848" y="198.87" style="stroke: #000000; stroke-width: 0.8"/>
      </g>
     </g>
    </g>
    <g id="xtick_2">
     <g id="line2d_3">
      <path d="M 111.189758 198.87 
L 111.189758 47.04 
" clip-path="url(#p606aad65df)" style="fill: none; stroke: #b0b0b0; stroke-opacity: 0.3; stroke-width: 0.8; stroke-linecap: square"/>
     </g>
     <g id="line2d_4">
      <g>
       <use xlink:href="#m5716f08ccc" x="111.189758" y="198.87" style="stroke: #000000; stroke-width: 0.8"/>
      </g>
     </g>
    </g>
    <g id="xtick_3">
     <g id="line2d_5">
      <path d="M 173.875668 198.87 
L 173.875668 47.04 
" clip-path="url(#p606aad65df)" style="fill: none; stroke: #b0b0b0; stroke-opacity: 0.3; stroke-width: 0.8; stroke-linecap: square"/>
     </g>
     <g id="line2d_6">
      <g>
       <use xlink:href="#m5716f08ccc" x="173.875668" y="198.87" style="stroke: #000000; stroke-width: 0.8"/>
      </g>
     </g>
    </g>
    <g id="xtick_4">
     <g id="line2d_7">
      <path d="M 236.561578 198.87 
L 236.561578 47.04 
" clip-path="url(#p606aad65df)" style="fill: none; stroke: #b0b0b0; stroke-opacity: 0.3; stroke-width: 0.8; stroke-linecap: square"/>
     </g>
     <g id="line2d_8">
      <g>
       <use xlink:href="#m5716f08ccc" x="236.561578" y="198.87" style="stroke: #000000; stroke-width: 0.8"/>
      </g>
     </g>
    </g>
    <g id="xtick_5">
     <g id="line2d_9">
      <path d="M 299.247488 198.87 
L 299.247488 47.04 
" clip-path="url(#p606aad65df)" style="fill: none; stroke: #b0b0b0; stroke-opacity: 0.3; stroke-width: 0.8; stroke-linecap: square"/>
     </g>
     <g id="line2d_10">
      <g>
       <use xlink:href="#m5716f08ccc" x="299.247488" y="198.87" style="stroke: #000000; stroke-width: 0.8"/>
      </g>
     </g>
    </g>
    <g id="xtick_6">
     <g id="line2d_11">
      <path d="M 361.933398 198.87 
L 361.933398 47.04 
" clip-path="url(#p606aad65df)" style="fill: none; stroke: #b0b0b0; stroke-opacity: 0.3; stroke-width: 0.8; stroke-linecap: square"/>
     </g>
     <g id="line2d_12">
      <g>
       <use xlink:href="#m5716f08ccc" x="361.933398" y="198.87" style="stroke: #000000; stroke-width: 0.8"/>
      </g>
     </g>
    </g>
   </g>
   <g id="matplotlib.axis_2">
    <g id="ytick_1">
     <g id="line2d_13">
      <path d="M 40.04125 191.969566 
L 364.127405 191.969566 
" clip-path="url(#p606aad65df)" style="fill: none; stroke: #b0b0b0; stroke-opacity: 0.3; stroke-width: 0.8; stroke-linecap: square"/>
     </g>
     <g id="line2d_14">
      <defs>
       <path id="me4824dc7fa" d="M 0 0 
L -3.5 0 
" style="stroke: #000000; stroke-width: 0.8"/>
      </defs>
      <g>
       <use xlink:href="#me4824dc7fa" x="40.04125" y="191.969566" style="stroke: #000000; stroke-width: 0.8"/>
      </g>
     </g>
     <g id="text_1">
      <!-- 0 -->
      <g transform="translate(26.67875 195.768785) scale(0.1 -0.1)">
       <defs>
        <path id="DejaVuSans-30" d="M 2034 4250 
Q 1547 4250 1301 3770 
Q 1056 3291 1056 2328 
Q 1056 1369 1301 889 
Q 1547 409 2034 409 
Q 2525 409 2770 889 
Q 3016 1369 3016 2328 
Q 3016 3291 2770 3770 
Q 2525 4250 2034 4250 
z
M 2034 4750 
Q 2819 4750 3233 4129 
Q 3647 3509 3647 2328 
Q 3647 1150 3233 529 
Q 2819 -91 2034 -91 
Q 1250 -91 836 529 
Q 422 1150 422 2328 
Q 422 3509 836 4129 
Q 1250 4750 2034 4750 
z
" transform="scale(0.015625)"/>
       </defs>
       <use xlink:href="#DejaVuSans-30"/>
      </g>
     </g>
    </g>
    <g id="ytick_2">
     <g id="line2d_15">
      <path d="M 40.04125 162.633225 
L 364.127405 162.633225 
" clip-path="url(#p606aad65df)" style="fill: none; stroke: #b0b0b0; stroke-opacity: 0.3; stroke-width: 0.8; stroke-linecap: square"/>
     </g>
     <g id="line2d_16">
      <g>
       <use xlink:href="#me4824dc7fa" x="40.04125" y="162.633225" style="stroke: #000000; stroke-width: 0.8"/>
      </g>
     </g>
     <g id="text_2">
      <!-- 5 -->
      <g transform="translate(26.67875 166.432444) scale(0.1 -0.1)">
       <defs>
        <path id="DejaVuSans-35" d="M 691 4666 
L 3169 4666 
L 3169 4134 
L 1269 4134 
L 1269 2991 
Q 1406 3038 1543 3061 
Q 1681 3084 1819 3084 
Q 2600 3084 3056 2656 
Q 3513 2228 3513 1497 
Q 3513 744 3044 326 
Q 2575 -91 1722 -91 
Q 1428 -91 1123 -41 
Q 819 9 494 109 
L 494 744 
Q 775 591 1075 516 
Q 1375 441 1709 441 
Q 2250 441 2565 725 
Q 2881 1009 2881 1497 
Q 2881 1984 2565 2268 
Q 2250 2553 1709 2553 
Q 1456 2553 1204 2497 
Q 953 2441 691 2322 
L 691 4666 
z
" transform="scale(0.015625)"/>
       </defs>
       <use xlink:href="#DejaVuSans-35"/>
      </g>
     </g>
    </g>
    <g id="ytick_3">
     <g id="line2d_17">
      <path d="M 40.04125 133.296884 
L 364.127405 133.296884 
" clip-path="url(#p606aad65df)" style="fill: none; stroke: #b0b0b0; stroke-opacity: 0.3; stroke-width: 0.8; stroke-linecap: square"/>
     </g>
     <g id="line2d_18">
      <g>
       <use xlink:href="#me4824dc7fa" x="40.04125" y="133.296884" style="stroke: #000000; stroke-width: 0.8"/>
      </g>
     </g>
     <g id="text_3">
      <!-- 10 -->
      <g transform="translate(20.31625 137.096102) scale(0.1 -0.1)">
       <defs>
        <path id="DejaVuSans-31" d="M 794 531 
L 1825 531 
L 1825 4091 
L 703 3866 
L 703 4441 
L 1819 4666 
L 2450 4666 
L 2450 531 
L 3481 531 
L 3481 0 
L 794 0 
L 794 531 
z
" transform="scale(0.015625)"/>
       </defs>
       <use xlink:href="#DejaVuSans-31"/>
       <use xlink:href="#DejaVuSans-30" transform="translate(63.623047 0)"/>
      </g>
     </g>
    </g>
    <g id="ytick_4">
     <g id="line2d_19">
      <path d="M 40.04125 103.960542 
L 364.127405 103.960542 
" clip-path="url(#p606aad65df)" style="fill: none; stroke: #b0b0b0; stroke-opacity: 0.3; stroke-width: 0.8; stroke-linecap: square"/>
     </g>
     <g id="line2d_20">
      <g>
       <use xlink:href="#me4824dc7fa" x="40.04125" y="103.960542" style="stroke: #000000; stroke-width: 0.8"/>
      </g>
     </g>
     <g id="text_4">
      <!-- 15 -->
      <g transform="translate(20.31625 107.759761) scale(0.1 -0.1)">
       <use xlink:href="#DejaVuSans-31"/>
       <use xlink:href="#DejaVuSans-35" transform="translate(63.623047 0)"/>
      </g>
     </g>
    </g>
    <g id="ytick_5">
     <g id="line2d_21">
      <path d="M 40.04125 74.624201 
L 364.127405 74.624201 
" clip-path="url(#p606aad65df)" style="fill: none; stroke: #b0b0b0; stroke-opacity: 0.3; stroke-width: 0.8; stroke-linecap: square"/>
     </g>
     <g id="line2d_22">
      <g>
       <use xlink:href="#me4824dc7fa" x="40.04125" y="74.624201" style="stroke: #000000; stroke-width: 0.8"/>
      </g>
     </g>
     <g id="text_5">
      <!-- 20 -->
      <g transform="translate(20.31625 78.423419) scale(0.1 -0.1)">
       <defs>
        <path id="DejaVuSans-32" d="M 1228 531 
L 3431 531 
L 3431 0 
L 469 0 
L 469 531 
Q 828 903 1448 1529 
Q 2069 2156 2228 2338 
Q 2531 2678 2651 2914 
Q 2772 3150 2772 3378 
Q 2772 3750 2511 3984 
Q 2250 4219 1831 4219 
Q 1534 4219 1204 4116 
Q 875 4013 500 3803 
L 500 4441 
Q 881 4594 1212 4672 
Q 1544 4750 1819 4750 
Q 2544 4750 2975 4387 
Q 3406 4025 3406 3419 
Q 3406 3131 3298 2873 
Q 3191 2616 2906 2266 
Q 2828 2175 2409 1742 
Q 1991 1309 1228 531 
z
" transform="scale(0.015625)"/>
       </defs>
       <use xlink:href="#DejaVuSans-32"/>
       <use xlink:href="#DejaVuSans-30" transform="translate(63.623047 0)"/>
      </g>
     </g>
    </g>
   </g>
   <g id="line2d_23">
    <path d="M 54.772439 191.722444 
L 61.04103 191.944667 
L 67.309621 191.956966 
L 73.578212 191.957835 
L 79.846803 191.960717 
L 86.115394 191.960956 
L 92.383985 191.963616 
L 98.652576 191.964871 
L 104.921167 191.96424 
L 111.189758 191.964975 
L 117.458349 191.966201 
L 123.72694 191.966423 
L 129.995531 191.966785 
L 136.264122 191.967232 
L 142.532713 191.967559 
L 148.801304 191.967552 
L 155.069895 191.96747 
L 161.338486 191.967635 
L 167.607077 191.967823 
L 173.875668 191.968027 
L 180.144259 191.96816 
L 186.41285 191.968277 
L 192.681441 191.968091 
L 198.950032 191.968304 
L 205.218623 191.968206 
L 211.487214 191.96836 
L 217.755805 191.968462 
L 224.024396 191.968309 
L 230.292987 191.968373 
L 236.561578 191.968461 
L 242.830169 191.968452 
L 249.09876 191.96852 
L 255.367351 191.968457 
L 261.635942 191.968405 
L 267.904533 191.968352 
L 274.173124 191.968439 
L 280.441715 191.968388 
L 286.710306 191.968457 
L 292.978897 191.968342 
L 299.247488 191.968356 
L 305.516079 191.968395 
L 311.78467 191.968301 
L 318.053261 191.968363 
L 324.321852 191.968434 
L 330.590443 191.968299 
L 336.859034 191.968263 
L 343.127625 191.968323 
L 349.396216 191.968374 
" clip-path="url(#p606aad65df)" style="fill: none; stroke: #1f77b4; stroke-width: 1.5; stroke-linecap: square"/>
   </g>
   <g id="patch_3">
    <path d="M 40.04125 198.87 
L 40.04125 47.04 
" style="fill: none; stroke: #000000; stroke-width: 0.8; stroke-linejoin: miter; stroke-linecap: square"/>
   </g>
   <g id="patch_4">
    <path d="M 364.127405 198.87 
L 364.127405 47.04 
" style="fill: none; stroke: #000000; stroke-width: 0.8; stroke-linejoin: miter; stroke-linecap: square"/>
   </g>
   <g id="patch_5">
    <path d="M 40.04125 198.87 
L 364.127405 198.87 
" style="fill: none; stroke: #000000; stroke-width: 0.8; stroke-linejoin: miter; stroke-linecap: square"/>
   </g>
   <g id="patch_6">
    <path d="M 40.04125 47.04 
L 364.127405 47.04 
" style="fill: none; stroke: #000000; stroke-width: 0.8; stroke-linejoin: miter; stroke-linecap: square"/>
   </g>
   <g id="text_6">
    <!-- variant=V0  market=DJIA -->
    <g transform="translate(138.303078 41.04) scale(0.1 -0.1)">
     <defs>
      <path id="DejaVuSans-76" d="M 191 3500 
L 800 3500 
L 1894 563 
L 2988 3500 
L 3597 3500 
L 2284 0 
L 1503 0 
L 191 3500 
z
" transform="scale(0.015625)"/>
      <path id="DejaVuSans-61" d="M 2194 1759 
Q 1497 1759 1228 1600 
Q 959 1441 959 1056 
Q 959 750 1161 570 
Q 1363 391 1709 391 
Q 2188 391 2477 730 
Q 2766 1069 2766 1631 
L 2766 1759 
L 2194 1759 
z
M 3341 1997 
L 3341 0 
L 2766 0 
L 2766 531 
Q 2569 213 2275 61 
Q 1981 -91 1556 -91 
Q 1019 -91 701 211 
Q 384 513 384 1019 
Q 384 1609 779 1909 
Q 1175 2209 1959 2209 
L 2766 2209 
L 2766 2266 
Q 2766 2663 2505 2880 
Q 2244 3097 1772 3097 
Q 1472 3097 1187 3025 
Q 903 2953 641 2809 
L 641 3341 
Q 956 3463 1253 3523 
Q 1550 3584 1831 3584 
Q 2591 3584 2966 3190 
Q 3341 2797 3341 1997 
z
" transform="scale(0.015625)"/>
      <path id="DejaVuSans-72" d="M 2631 2963 
Q 2534 3019 2420 3045 
Q 2306 3072 2169 3072 
Q 1681 3072 1420 2755 
Q 1159 2438 1159 1844 
L 1159 0 
L 581 0 
L 581 3500 
L 1159 3500 
L 1159 2956 
Q 1341 3275 1631 3429 
Q 1922 3584 2338 3584 
Q 2397 3584 2469 3576 
Q 2541 3569 2628 3553 
L 2631 2963 
z
" transform="scale(0.015625)"/>
      <path id="DejaVuSans-69" d="M 603 3500 
L 1178 3500 
L 1178 0 
L 603 0 
L 603 3500 
z
M 603 4863 
L 1178 4863 
L 1178 4134 
L 603 4134 
L 603 4863 
z
" transform="scale(0.015625)"/>
      <path id="DejaVuSans-6e" d="M 3513 2113 
L 3513 0 
L 2938 0 
L 2938 2094 
Q 2938 2591 2744 2837 
Q 2550 3084 2163 3084 
Q 1697 3084 1428 2787 
Q 1159 2491 1159 1978 
L 1159 0 
L 581 0 
L 581 3500 
L 1159 3500 
L 1159 2956 
Q 1366 3272 1645 3428 
Q 1925 3584 2291 3584 
Q 2894 3584 3203 3211 
Q 3513 2838 3513 2113 
z
" transform="scale(0.015625)"/>
      <path id="DejaVuSans-74" d="M 1172 4494 
L 1172 3500 
L 2356 3500 
L 2356 3053 
L 1172 3053 
L 1172 1153 
Q 1172 725 1289 603 
Q 1406 481 1766 481 
L 2356 481 
L 2356 0 
L 1766 0 
Q 1100 0 847 248 
Q 594 497 594 1153 
L 594 3053 
L 172 3053 
L 172 3500 
L 594 3500 
L 594 4494 
L 1172 4494 
z
" transform="scale(0.015625)"/>
      <path id="DejaVuSans-3d" d="M 678 2906 
L 4684 2906 
L 4684 2381 
L 678 2381 
L 678 2906 
z
M 678 1631 
L 4684 1631 
L 4684 1100 
L 678 1100 
L 678 1631 
z
" transform="scale(0.015625)"/>
      <path id="DejaVuSans-56" d="M 1831 0 
L 50 4666 
L 709 4666 
L 2188 738 
L 3669 4666 
L 4325 4666 
L 2547 0 
L 1831 0 
z
" transform="scale(0.015625)"/>
      <path id="DejaVuSans-20" transform="scale(0.015625)"/>
      <path id="DejaVuSans-6d" d="M 3328 2828 
Q 3544 3216 3844 3400 
Q 4144 3584 4550 3584 
Q 5097 3584 5394 3201 
Q 5691 2819 5691 2113 
L 5691 0 
L 5113 0 
L 5113 2094 
Q 5113 2597 4934 2840 
Q 4756 3084 4391 3084 
Q 3944 3084 3684 2787 
Q 3425 2491 3425 1978 
L 3425 0 
L 2847 0 
L 2847 2094 
Q 2847 2600 2669 2842 
Q 2491 3084 2119 3084 
Q 1678 3084 1418 2786 
Q 1159 2488 1159 1978 
L 1159 0 
L 581 0 
L 581 3500 
L 1159 3500 
L 1159 2956 
Q 1356 3278 1631 3431 
Q 1906 3584 2284 3584 
Q 2666 3584 2933 3390 
Q 3200 3197 3328 2828 
z
" transform="scale(0.015625)"/>
      <path id="DejaVuSans-6b" d="M 581 4863 
L 1159 4863 
L 1159 1991 
L 2875 3500 
L 3609 3500 
L 1753 1863 
L 3688 0 
L 2938 0 
L 1159 1709 
L 1159 0 
L 581 0 
L 581 4863 
z
" transform="scale(0.015625)"/>
      <path id="DejaVuSans-65" d="M 3597 1894 
L 3597 1613 
L 953 1613 
Q 991 1019 1311 708 
Q 1631 397 2203 397 
Q 2534 397 2845 478 
Q 3156 559 3463 722 
L 3463 178 
Q 3153 47 2828 -22 
Q 2503 -91 2169 -91 
Q 1331 -91 842 396 
Q 353 884 353 1716 
Q 353 2575 817 3079 
Q 1281 3584 2069 3584 
Q 2775 3584 3186 3129 
Q 3597 2675 3597 1894 
z
M 3022 2063 
Q 3016 2534 2758 2815 
Q 2500 3097 2075 3097 
Q 1594 3097 1305 2825 
Q 1016 2553 972 2059 
L 3022 2063 
z
" transform="scale(0.015625)"/>
      <path id="DejaVuSans-44" d="M 1259 4147 
L 1259 519 
L 2022 519 
Q 2988 519 3436 956 
Q 3884 1394 3884 2338 
Q 3884 3275 3436 3711 
Q 2988 4147 2022 4147 
L 1259 4147 
z
M 628 4666 
L 1925 4666 
Q 3281 4666 3915 4102 
Q 4550 3538 4550 2338 
Q 4550 1131 3912 565 
Q 3275 0 1925 0 
L 628 0 
L 628 4666 
z
" transform="scale(0.015625)"/>
      <path id="DejaVuSans-4a" d="M 628 4666 
L 1259 4666 
L 1259 325 
Q 1259 -519 939 -900 
Q 619 -1281 -91 -1281 
L -331 -1281 
L -331 -750 
L -134 -750 
Q 284 -750 456 -515 
Q 628 -281 628 325 
L 628 4666 
z
" transform="scale(0.015625)"/>
      <path id="DejaVuSans-49" d="M 628 4666 
L 1259 4666 
L 1259 0 
L 628 0 
L 628 4666 
z
" transform="scale(0.015625)"/>
      <path id="DejaVuSans-41" d="M 2188 4044 
L 1331 1722 
L 3047 1722 
L 2188 4044 
z
M 1831 4666 
L 2547 4666 
L 4325 0 
L 3669 0 
L 3244 1197 
L 1141 1197 
L 716 0 
L 50 0 
L 1831 4666 
z
" transform="scale(0.015625)"/>
     </defs>
     <use xlink:href="#DejaVuSans-76"/>
     <use xlink:href="#DejaVuSans-61" transform="translate(59.179688 0)"/>
     <use xlink:href="#DejaVuSans-72" transform="translate(120.458984 0)"/>
     <use xlink:href="#DejaVuSans-69" transform="translate(161.572266 0)"/>
     <use xlink:href="#DejaVuSans-61" transform="translate(189.355469 0)"/>
     <use xlink:href="#DejaVuSans-6e" transform="translate(250.634766 0)"/>
     <use xlink:href="#DejaVuSans-74" transform="translate(314.013672 0)"/>
     <use xlink:href="#DejaVuSans-3d" transform="translate(353.222656 0)"/>
     <use xlink:href="#DejaVuSans-56" transform="translate(437.011719 0)"/>
     <use xlink:href="#DejaVuSans-30" transform="translate(505.419922 0)"/>
     <use xlink:href="#DejaVuSans-20" transform="translate(569.042969 0)"/>
     <use xlink:href="#DejaVuSans-20" transform="translate(600.830078 0)"/>
     <use xlink:href="#DejaVuSans-6d" transform="translate(632.617188 0)"/>
     <use xlink:href="#DejaVuSans-61" transform="translate(730.029297 0)"/>
     <use xlink:href="#DejaVuSans-72" transform="translate(791.308594 0)"/>
     <use xlink:href="#DejaVuSans-6b" transform="translate(832.421875 0)"/>
     <use xlink:href="#DejaVuSans-65" transform="translate(886.707031 0)"/>
     <use xlink:href="#DejaVuSans-74" transform="translate(948.230469 0)"/>
     <use xlink:href="#DejaVuSans-3d" transform="translate(987.439453 0)"/>
     <use xlink:href="#DejaVuSans-44" transform="translate(1071.228516 0)"/>
     <use xlink:href="#DejaVuSans-4a" transform="translate(1148.230469 0)"/>
     <use xlink:href="#DejaVuSans-49" transform="translate(1177.722656 0)"/>
     <use xlink:href="#DejaVuSans-41" transform="translate(1207.214844 0)"/>
    </g>
   </g>
  </g>
  <g id="axes_2">
   <g id="patch_7">
    <path d="M 383.060833 198.87 
L 707.146989 198.87 
L 707.146989 47.04 
L 383.060833 47.04 
z
" style="fill: #ffffff"/>
   </g>
   <g id="FillBetweenPolyCollection_2">
    <defs>
     <path id="m4e641446fc" d="M 397.792022 -241.707999 
L 397.792022 -241.690518 
L 404.060613 -241.489678 
L 410.329204 -241.482481 
L 416.597795 -241.480528 
L 422.866386 -241.479152 
L 429.134977 -241.47885 
L 435.403568 -241.476559 
L 441.672159 -241.475858 
L 447.94075 -241.47468 
L 454.209341 -241.474918 
L 460.477932 -241.474356 
L 466.746523 -241.473956 
L 473.015114 -241.473758 
L 479.283705 -241.473442 
L 485.552296 -241.473128 
L 491.820887 -241.47288 
L 498.089478 -241.472809 
L 504.358069 -241.473048 
L 510.62666 -241.472754 
L 516.895251 -241.472733 
L 523.163842 -241.472531 
L 529.432433 -241.472426 
L 535.701024 -241.472525 
L 541.969615 -241.472405 
L 548.238206 -241.472568 
L 554.506797 -241.472356 
L 560.775388 -241.472379 
L 567.043979 -241.472452 
L 573.31257 -241.472433 
L 579.581161 -241.472304 
L 585.849752 -241.472242 
L 592.118343 -241.472409 
L 598.386935 -241.47253 
L 604.655526 -241.472584 
L 610.924117 -241.472563 
L 617.192708 -241.472547 
L 623.461299 -241.47282 
L 629.72989 -241.472695 
L 635.998481 -241.472585 
L 642.267072 -241.4727 
L 648.535663 -241.472714 
L 654.804254 -241.472683 
L 661.072845 -241.472864 
L 667.341436 -241.472723 
L 673.610027 -241.47298 
L 679.878618 -241.472846 
L 686.147209 -241.47274 
L 692.4158 -241.472967 
L 692.4158 -241.473062 
L 692.4158 -241.473062 
L 686.147209 -241.47305 
L 679.878618 -241.473091 
L 673.610027 -241.473101 
L 667.341436 -241.472998 
L 661.072845 -241.472922 
L 654.804254 -241.47289 
L 648.535663 -241.472947 
L 642.267072 -241.472878 
L 635.998481 -241.472729 
L 629.72989 -241.472875 
L 623.461299 -241.472914 
L 617.192708 -241.472627 
L 610.924117 -241.472601 
L 604.655526 -241.47263 
L 598.386935 -241.47276 
L 592.118343 -241.472567 
L 585.849752 -241.472683 
L 579.581161 -241.472662 
L 573.31257 -241.472629 
L 567.043979 -241.472493 
L 560.775388 -241.47251 
L 554.506797 -241.47252 
L 548.238206 -241.472621 
L 541.969615 -241.472602 
L 535.701024 -241.472823 
L 529.432433 -241.472499 
L 523.163842 -241.472865 
L 516.895251 -241.472867 
L 510.62666 -241.472977 
L 504.358069 -241.47324 
L 498.089478 -241.473395 
L 491.820887 -241.473215 
L 485.552296 -241.473425 
L 479.283705 -241.473972 
L 473.015114 -241.473949 
L 466.746523 -241.474613 
L 460.477932 -241.47486 
L 454.209341 -241.47567 
L 447.94075 -241.476726 
L 441.672159 -241.476134 
L 435.403568 -241.477764 
L 429.134977 -241.47981 
L 422.866386 -241.480562 
L 416.597795 -241.484207 
L 410.329204 -241.486161 
L 404.060613 -241.500003 
L 397.792022 -241.707999 
z
" style="stroke: #1f77b4; stroke-opacity: 0.25"/>
    </defs>
    <g clip-path="url(#p0d31977575)">
     <use xlink:href="#m4e641446fc" x="0" y="433.44" style="fill: #1f77b4; fill-opacity: 0.25; stroke: #1f77b4; stroke-opacity: 0.25"/>
    </g>
   </g>
   <g id="matplotlib.axis_3">
    <g id="xtick_7">
     <g id="line2d_24">
      <path d="M 391.523431 198.87 
L 391.523431 47.04 
" clip-path="url(#p0d31977575)" style="fill: none; stroke: #b0b0b0; stroke-opacity: 0.3; stroke-width: 0.8; stroke-linecap: square"/>
     </g>
     <g id="line2d_25">
      <g>
       <use xlink:href="#m5716f08ccc" x="391.523431" y="198.87" style="stroke: #000000; stroke-width: 0.8"/>
      </g>
     </g>
    </g>
    <g id="xtick_8">
     <g id="line2d_26">
      <path d="M 454.209341 198.87 
L 454.209341 47.04 
" clip-path="url(#p0d31977575)" style="fill: none; stroke: #b0b0b0; stroke-opacity: 0.3; stroke-width: 0.8; stroke-linecap: square"/>
     </g>
     <g id="line2d_27">
      <g>
       <use xlink:href="#m5716f08ccc" x="454.209341" y="198.87" style="stroke: #000000; stroke-width: 0.8"/>
      </g>
     </g>
    </g>
    <g id="xtick_9">
     <g id="line2d_28">
      <path d="M 516.895251 198.87 
L 516.895251 47.04 
" clip-path="url(#p0d31977575)" style="fill: none; stroke: #b0b0b0; stroke-opacity: 0.3; stroke-width: 0.8; stroke-linecap: square"/>
     </g>
     <g id="line2d_29">
      <g>
       <use xlink:href="#m5716f08ccc" x="516.895251" y="198.87" style="stroke: #000000; stroke-width: 0.8"/>
      </g>
     </g>
    </g>
    <g id="xtick_10">
     <g id="line2d_30">
      <path d="M 579.581161 198.87 
L 579.581161 47.04 
" clip-path="url(#p0d31977575)" style="fill: none; stroke: #b0b0b0; stroke-opacity: 0.3; stroke-width: 0.8; stroke-linecap: square"/>
     </g>
     <g id="line2d_31">
      <g>
       <use xlink:href="#m5716f08ccc" x="579.581161" y="198.87" style="stroke: #000000; stroke-width: 0.8"/>
      </g>
     </g>
    </g>
    <g id="xtick_11">
     <g id="line2d_32">
      <path d="M 642.267072 198.87 
L 642.267072 47.04 
" clip-path="url(#p0d31977575)" style="fill: none; stroke: #b0b0b0; stroke-opacity: 0.3; stroke-width: 0.8; stroke-linecap: square"/>
     </g>
     <g id="line2d_33">
      <g>
       <use xlink:href="#m5716f08ccc" x="642.267072" y="198.87" style="stroke: #000000; stroke-width: 0.8"/>
      </g>
     </g>
    </g>
    <g id="xtick_12">
     <g id="line2d_34">
      <path d="M 704.952982 198.87 
L 704.952982 47.04 
" clip-path="url(#p0d31977575)" style="fill: none; stroke: #b0b0b0; stroke-opacity: 0.3; stroke-width: 0.8; stroke-linecap: square"/>
     </g>
     <g id="line2d_35">
      <g>
       <use xlink:href="#m5716f08ccc" x="704.952982" y="198.87" style="stroke: #000000; stroke-width: 0.8"/>
      </g>
     </g>
    </g>
   </g>
   <g id="matplotlib.axis_4">
    <g id="ytick_6">
     <g id="line2d_36">
      <path d="M 383.060833 191.969566 
L 707.146989 191.969566 
" clip-path="url(#p0d31977575)" style="fill: none; stroke: #b0b0b0; stroke-opacity: 0.3; stroke-width: 0.8; stroke-linecap: square"/>
     </g>
     <g id="line2d_37">
      <g>
       <use xlink:href="#me4824dc7fa" x="383.060833" y="191.969566" style="stroke: #000000; stroke-width: 0.8"/>
      </g>
     </g>
    </g>
    <g id="ytick_7">
     <g id="line2d_38">
      <path d="M 383.060833 162.633225 
L 707.146989 162.633225 
" clip-path="url(#p0d31977575)" style="fill: none; stroke: #b0b0b0; stroke-opacity: 0.3; stroke-width: 0.8; stroke-linecap: square"/>
     </g>
     <g id="line2d_39">
      <g>
       <use xlink:href="#me4824dc7fa" x="383.060833" y="162.633225" style="stroke: #000000; stroke-width: 0.8"/>
      </g>
     </g>
    </g>
    <g id="ytick_8">
     <g id="line2d_40">
      <path d="M 383.060833 133.296884 
L 707.146989 133.296884 
" clip-path="url(#p0d31977575)" style="fill: none; stroke: #b0b0b0; stroke-opacity: 0.3; stroke-width: 0.8; stroke-linecap: square"/>
     </g>
     <g id="line2d_41">
      <g>
       <use xlink:href="#me4824dc7fa" x="383.060833" y="133.296884" style="stroke: #000000; stroke-width: 0.8"/>
      </g>
     </g>
    </g>
    <g id="ytick_9">
     <g id="line2d_42">
      <path d="M 383.060833 103.960542 
L 707.146989 103.960542 
" clip-path="url(#p0d31977575)" style="fill: none; stroke: #b0b0b0; stroke-opacity: 0.3; stroke-width: 0.8; stroke-linecap: square"/>
     </g>
     <g id="line2d_43">
      <g>
       <use xlink:href="#me4824dc7fa" x="383.060833" y="103.960542" style="stroke: #000000; stroke-width: 0.8"/>
      </g>
     </g>
    </g>
    <g id="ytick_10">
     <g id="line2d_44">
      <path d="M 383.060833 74.624201 
L 707.146989 74.624201 
" clip-path="url(#p0d31977575)" style="fill: none; stroke: #b0b0b0; stroke-opacity: 0.3; stroke-width: 0.8; stroke-linecap: square"/>
     </g>
     <g id="line2d_45">
      <g>
       <use xlink:href="#me4824dc7fa" x="383.060833" y="74.624201" style="stroke: #000000; stroke-width: 0.8"/>
      </g>
     </g>
    </g>
   </g>
   <g id="line2d_46">
    <path d="M 397.792022 191.735421 
L 404.060613 191.946567 
L 410.329204 191.953869 
L 416.597795 191.957558 
L 422.866386 191.960452 
L 429.134977 191.961055 
L 435.403568 191.962345 
L 441.672159 191.964077 
L 447.94075 191.963771 
L 454.209341 191.964715 
L 460.477932 191.96552 
L 466.746523 191.965688 
L 473.015114 191.966231 
L 479.283705 191.966554 
L 485.552296 191.96662 
L 491.820887 191.966795 
L 498.089478 191.96698 
L 504.358069 191.966896 
L 510.62666 191.967041 
L 516.895251 191.967222 
L 523.163842 191.967304 
L 529.432433 191.967503 
L 535.701024 191.967315 
L 541.969615 191.96752 
L 548.238206 191.967426 
L 554.506797 191.967485 
L 560.775388 191.967508 
L 567.043979 191.967548 
L 573.31257 191.967541 
L 579.581161 191.967538 
L 585.849752 191.967477 
L 592.118343 191.967477 
L 598.386935 191.967444 
L 604.655526 191.9674 
L 610.924117 191.967424 
L 617.192708 191.967382 
L 623.461299 191.967129 
L 629.72989 191.96729 
L 635.998481 191.967291 
L 642.267072 191.967218 
L 648.535663 191.967233 
L 654.804254 191.967123 
L 661.072845 191.967114 
L 667.341436 191.967097 
L 673.610027 191.966969 
L 679.878618 191.96691 
L 686.147209 191.967008 
L 692.4158 191.966949 
" clip-path="url(#p0d31977575)" style="fill: none; stroke: #1f77b4; stroke-width: 1.5; stroke-linecap: square"/>
   </g>
   <g id="patch_8">
    <path d="M 383.060833 198.87 
L 383.060833 47.04 
" style="fill: none; stroke: #000000; stroke-width: 0.8; stroke-linejoin: miter; stroke-linecap: square"/>
   </g>
   <g id="patch_9">
    <path d="M 707.146989 198.87 
L 707.146989 47.04 
" style="fill: none; stroke: #000000; stroke-width: 0.8; stroke-linejoin: miter; stroke-linecap: square"/>
   </g>
   <g id="patch_10">
    <path d="M 383.060833 198.87 
L 707.146989 198.87 
" style="fill: none; stroke: #000000; stroke-width: 0.8; stroke-linejoin: miter; stroke-linecap: square"/>
   </g>
   <g id="patch_11">
    <path d="M 383.060833 47.04 
L 707.146989 47.04 
" style="fill: none; stroke: #000000; stroke-width: 0.8; stroke-linejoin: miter; stroke-linecap: square"/>
   </g>
   <g id="text_7">
    <!-- variant=V0  market=IBEX -->
    <g transform="translate(480.05313 41.04) scale(0.1 -0.1)">
     <defs>
      <path id="DejaVuSans-42" d="M 1259 2228 
L 1259 519 
L 2272 519 
Q 2781 519 3026 730 
Q 3272 941 3272 1375 
Q 3272 1813 3026 2020 
Q 2781 2228 2272 2228 
L 1259 2228 
z
M 1259 4147 
L 1259 2741 
L 2194 2741 
Q 2656 2741 2882 2914 
Q 3109 3088 3109 3444 
Q 3109 3797 2882 3972 
Q 2656 4147 2194 4147 
L 1259 4147 
z
M 628 4666 
L 2241 4666 
Q 2963 4666 3353 4366 
Q 3744 4066 3744 3513 
Q 3744 3084 3544 2831 
Q 3344 2578 2956 2516 
Q 3422 2416 3680 2098 
Q 3938 1781 3938 1306 
Q 3938 681 3513 340 
Q 3088 0 2303 0 
L 628 0 
L 628 4666 
z
" transform="scale(0.015625)"/>
      <path id="DejaVuSans-45" d="M 628 4666 
L 3578 4666 
L 3578 4134 
L 1259 4134 
L 1259 2753 
L 3481 2753 
L 3481 2222 
L 1259 2222 
L 1259 531 
L 3634 531 
L 3634 0 
L 628 0 
L 628 4666 
z
" transform="scale(0.015625)"/>
      <path id="DejaVuSans-58" d="M 403 4666 
L 1081 4666 
L 2241 2931 
L 3406 4666 
L 4084 4666 
L 2584 2425 
L 4184 0 
L 3506 0 
L 2194 1984 
L 872 0 
L 191 0 
L 1856 2491 
L 403 4666 
z
" transform="scale(0.015625)"/>
     </defs>
     <use xlink:href="#DejaVuSans-76"/>
     <use xlink:href="#DejaVuSans-61" transform="translate(59.179688 0)"/>
     <use xlink:href="#DejaVuSans-72" transform="translate(120.458984 0)"/>
     <use xlink:href="#DejaVuSans-69" transform="translate(161.572266 0)"/>
     <use xlink:href="#DejaVuSans-61" transform="translate(189.355469 0)"/>
     <use xlink:href="#DejaVuSans-6e" transform="translate(250.634766 0)"/>
     <use xlink:href="#DejaVuSans-74" transform="translate(314.013672 0)"/>
     <use xlink:href="#DejaVuSans-3d" transform="translate(353.222656 0)"/>
     <use xlink:href="#DejaVuSans-56" transform="translate(437.011719 0)"/>
     <use xlink:href="#DejaVuSans-30" transform="translate(505.419922 0)"/>
     <use xlink:href="#DejaVuSans-20" transform="translate(569.042969 0)"/>
     <use xlink:href="#DejaVuSans-20" transform="translate(600.830078 0)"/>
     <use xlink:href="#DejaVuSans-6d" transform="translate(632.617188 0)"/>
     <use xlink:href="#DejaVuSans-61" transform="translate(730.029297 0)"/>
     <use xlink:href="#DejaVuSans-72" transform="translate(791.308594 0)"/>
     <use xlink:href="#DejaVuSans-6b" transform="translate(832.421875 0)"/>
     <use xlink:href="#DejaVuSans-65" transform="translate(886.707031 0)"/>
     <use xlink:href="#DejaVuSans-74" transform="translate(948.230469 0)"/>
     <use xlink:href="#DejaVuSans-3d" transform="translate(987.439453 0)"/>
     <use xlink:href="#DejaVuSans-49" transform="translate(1071.228516 0)"/>
     <use xlink:href="#DejaVuSans-42" transform="translate(1100.720703 0)"/>
     <use xlink:href="#DejaVuSans-45" transform="translate(1169.324219 0)"/>
     <use xlink:href="#DejaVuSans-58" transform="translate(1232.507812 0)"/>
    </g>
   </g>
  </g>
  <g id="axes_3">
   <g id="patch_12">
    <path d="M 726.080417 198.87 
L 1050.166572 198.87 
L 1050.166572 47.04 
L 726.080417 47.04 
z
" style="fill: #ffffff"/>
   </g>
   <g id="FillBetweenPolyCollection_3">
    <defs>
     <path id="m005ddc6be0" d="M 740.811606 -241.764322 
L 740.811606 -241.749213 
L 747.080197 -241.497381 
L 753.348788 -241.484528 
L 759.617379 -241.480845 
L 765.88597 -241.478014 
L 772.154561 -241.477911 
L 778.423152 -241.475717 
L 784.691743 -241.474639 
L 790.960334 -241.474246 
L 797.228925 -241.473727 
L 803.497516 -241.473193 
L 809.766107 -241.472885 
L 816.034698 -241.472476 
L 822.303289 -241.472096 
L 828.57188 -241.471937 
L 834.840471 -241.471962 
L 841.109062 -241.471895 
L 847.377653 -241.471859 
L 853.646244 -241.471851 
L 859.914835 -241.471644 
L 866.183426 -241.471648 
L 872.452017 -241.471591 
L 878.720608 -241.471582 
L 884.989199 -241.471522 
L 891.25779 -241.471565 
L 897.526381 -241.471513 
L 903.794972 -241.471468 
L 910.063563 -241.471557 
L 916.332154 -241.471399 
L 922.600745 -241.471397 
L 928.869336 -241.471457 
L 935.137927 -241.471364 
L 941.406518 -241.471454 
L 947.675109 -241.471404 
L 953.9437 -241.47146 
L 960.212291 -241.471427 
L 966.480882 -241.471457 
L 972.749473 -241.47149 
L 979.018064 -241.471518 
L 985.286655 -241.471473 
L 991.555246 -241.47146 
L 997.823837 -241.471488 
L 1004.092428 -241.471526 
L 1010.361019 -241.471481 
L 1016.62961 -241.471607 
L 1022.898201 -241.471544 
L 1029.166792 -241.471584 
L 1035.435383 -241.471528 
L 1035.435383 -241.471737 
L 1035.435383 -241.471737 
L 1029.166792 -241.471619 
L 1022.898201 -241.471623 
L 1016.62961 -241.471702 
L 1010.361019 -241.471637 
L 1004.092428 -241.4717 
L 997.823837 -241.471591 
L 991.555246 -241.471524 
L 985.286655 -241.471544 
L 979.018064 -241.471635 
L 972.749473 -241.471543 
L 966.480882 -241.471665 
L 960.212291 -241.471518 
L 953.9437 -241.471556 
L 947.675109 -241.471519 
L 941.406518 -241.471487 
L 935.137927 -241.471683 
L 928.869336 -241.471549 
L 922.600745 -241.471472 
L 916.332154 -241.471729 
L 910.063563 -241.471642 
L 903.794972 -241.471523 
L 897.526381 -241.471585 
L 891.25779 -241.471593 
L 884.989199 -241.471591 
L 878.720608 -241.471765 
L 872.452017 -241.471753 
L 866.183426 -241.472027 
L 859.914835 -241.471962 
L 853.646244 -241.472067 
L 847.377653 -241.472293 
L 841.109062 -241.472598 
L 834.840471 -241.472299 
L 828.57188 -241.47219 
L 822.303289 -241.473237 
L 816.034698 -241.473283 
L 809.766107 -241.473726 
L 803.497516 -241.473308 
L 797.228925 -241.474111 
L 790.960334 -241.475108 
L 784.691743 -241.476283 
L 778.423152 -241.47667 
L 772.154561 -241.479123 
L 765.88597 -241.480233 
L 759.617379 -241.484501 
L 753.348788 -241.493451 
L 747.080197 -241.503494 
L 740.811606 -241.764322 
z
" style="stroke: #1f77b4; stroke-opacity: 0.25"/>
    </defs>
    <g clip-path="url(#p741eb7e34a)">
     <use xlink:href="#m005ddc6be0" x="0" y="433.44" style="fill: #1f77b4; fill-opacity: 0.25; stroke: #1f77b4; stroke-opacity: 0.25"/>
    </g>
   </g>
   <g id="matplotlib.axis_5">
    <g id="xtick_13">
     <g id="line2d_47">
      <path d="M 734.543015 198.87 
L 734.543015 47.04 
" clip-path="url(#p741eb7e34a)" style="fill: none; stroke: #b0b0b0; stroke-opacity: 0.3; stroke-width: 0.8; stroke-linecap: square"/>
     </g>
     <g id="line2d_48">
      <g>
       <use xlink:href="#m5716f08ccc" x="734.543015" y="198.87" style="stroke: #000000; stroke-width: 0.8"/>
      </g>
     </g>
    </g>
    <g id="xtick_14">
     <g id="line2d_49">
      <path d="M 797.228925 198.87 
L 797.228925 47.04 
" clip-path="url(#p741eb7e34a)" style="fill: none; stroke: #b0b0b0; stroke-opacity: 0.3; stroke-width: 0.8; stroke-linecap: square"/>
     </g>
     <g id="line2d_50">
      <g>
       <use xlink:href="#m5716f08ccc" x="797.228925" y="198.87" style="stroke: #000000; stroke-width: 0.8"/>
      </g>
     </g>
    </g>
    <g id="xtick_15">
     <g id="line2d_51">
      <path d="M 859.914835 198.87 
L 859.914835 47.04 
" clip-path="url(#p741eb7e34a)" style="fill: none; stroke: #b0b0b0; stroke-opacity: 0.3; stroke-width: 0.8; stroke-linecap: square"/>
     </g>
     <g id="line2d_52">
      <g>
       <use xlink:href="#m5716f08ccc" x="859.914835" y="198.87" style="stroke: #000000; stroke-width: 0.8"/>
      </g>
     </g>
    </g>
    <g id="xtick_16">
     <g id="line2d_53">
      <path d="M 922.600745 198.87 
L 922.600745 47.04 
" clip-path="url(#p741eb7e34a)" style="fill: none; stroke: #b0b0b0; stroke-opacity: 0.3; stroke-width: 0.8; stroke-linecap: square"/>
     </g>
     <g id="line2d_54">
      <g>
       <use xlink:href="#m5716f08ccc" x="922.600745" y="198.87" style="stroke: #000000; stroke-width: 0.8"/>
      </g>
     </g>
    </g>
    <g id="xtick_17">
     <g id="line2d_55">
      <path d="M 985.286655 198.87 
L 985.286655 47.04 
" clip-path="url(#p741eb7e34a)" style="fill: none; stroke: #b0b0b0; stroke-opacity: 0.3; stroke-width: 0.8; stroke-linecap: square"/>
     </g>
     <g id="line2d_56">
      <g>
       <use xlink:href="#m5716f08ccc" x="985.286655" y="198.87" style="stroke: #000000; stroke-width: 0.8"/>
      </g>
     </g>
    </g>
    <g id="xtick_18">
     <g id="line2d_57">
      <path d="M 1047.972565 198.87 
L 1047.972565 47.04 
" clip-path="url(#p741eb7e34a)" style="fill: none; stroke: #b0b0b0; stroke-opacity: 0.3; stroke-width: 0.8; stroke-linecap: square"/>
     </g>
     <g id="line2d_58">
      <g>
       <use xlink:href="#m5716f08ccc" x="1047.972565" y="198.87" style="stroke: #000000; stroke-width: 0.8"/>
      </g>
     </g>
    </g>
   </g>
   <g id="matplotlib.axis_6">
    <g id="ytick_11">
     <g id="line2d_59">
      <path d="M 726.080417 191.969566 
L 1050.166572 191.969566 
" clip-path="url(#p741eb7e34a)" style="fill: none; stroke: #b0b0b0; stroke-opacity: 0.3; stroke-width: 0.8; stroke-linecap: square"/>
     </g>
     <g id="line2d_60">
      <g>
       <use xlink:href="#me4824dc7fa" x="726.080417" y="191.969566" style="stroke: #000000; stroke-width: 0.8"/>
      </g>
     </g>
    </g>
    <g id="ytick_12">
     <g id="line2d_61">
      <path d="M 726.080417 162.633225 
L 1050.166572 162.633225 
" clip-path="url(#p741eb7e34a)" style="fill: none; stroke: #b0b0b0; stroke-opacity: 0.3; stroke-width: 0.8; stroke-linecap: square"/>
     </g>
     <g id="line2d_62">
      <g>
       <use xlink:href="#me4824dc7fa" x="726.080417" y="162.633225" style="stroke: #000000; stroke-width: 0.8"/>
      </g>
     </g>
    </g>
    <g id="ytick_13">
     <g id="line2d_63">
      <path d="M 726.080417 133.296884 
L 1050.166572 133.296884 
" clip-path="url(#p741eb7e34a)" style="fill: none; stroke: #b0b0b0; stroke-opacity: 0.3; stroke-width: 0.8; stroke-linecap: square"/>
     </g>
     <g id="line2d_64">
      <g>
       <use xlink:href="#me4824dc7fa" x="726.080417" y="133.296884" style="stroke: #000000; stroke-width: 0.8"/>
      </g>
     </g>
    </g>
    <g id="ytick_14">
     <g id="line2d_65">
      <path d="M 726.080417 103.960542 
L 1050.166572 103.960542 
" clip-path="url(#p741eb7e34a)" style="fill: none; stroke: #b0b0b0; stroke-opacity: 0.3; stroke-width: 0.8; stroke-linecap: square"/>
     </g>
     <g id="line2d_66">
      <g>
       <use xlink:href="#me4824dc7fa" x="726.080417" y="103.960542" style="stroke: #000000; stroke-width: 0.8"/>
      </g>
     </g>
    </g>
    <g id="ytick_15">
     <g id="line2d_67">
      <path d="M 726.080417 74.624201 
L 1050.166572 74.624201 
" clip-path="url(#p741eb7e34a)" style="fill: none; stroke: #b0b0b0; stroke-opacity: 0.3; stroke-width: 0.8; stroke-linecap: square"/>
     </g>
     <g id="line2d_68">
      <g>
       <use xlink:href="#me4824dc7fa" x="726.080417" y="74.624201" style="stroke: #000000; stroke-width: 0.8"/>
      </g>
     </g>
    </g>
   </g>
   <g id="line2d_69">
    <path d="M 740.811606 191.68945 
L 747.080197 191.938755 
L 753.348788 191.951936 
L 759.617379 191.95688 
L 765.88597 191.961176 
L 772.154561 191.961977 
L 778.423152 191.963634 
L 784.691743 191.965166 
L 790.960334 191.965432 
L 797.228925 191.966059 
L 803.497516 191.966692 
L 809.766107 191.966921 
L 816.034698 191.967506 
L 822.303289 191.967688 
L 828.57188 191.967969 
L 834.840471 191.967854 
L 841.109062 191.967821 
L 847.377653 191.967936 
L 853.646244 191.968087 
L 859.914835 191.968187 
L 866.183426 191.968288 
L 872.452017 191.968353 
L 878.720608 191.968314 
L 884.989199 191.968438 
L 891.25779 191.968421 
L 897.526381 191.968465 
L 903.794972 191.968511 
L 910.063563 191.968408 
L 916.332154 191.968465 
L 922.600745 191.968542 
L 928.869336 191.968529 
L 935.137927 191.968559 
L 941.406518 191.968521 
L 947.675109 191.968485 
L 953.9437 191.968499 
L 960.212291 191.968559 
L 966.480882 191.968539 
L 972.749473 191.968502 
L 979.018064 191.968476 
L 985.286655 191.96849 
L 991.555246 191.968536 
L 997.823837 191.968492 
L 1004.092428 191.968423 
L 1010.361019 191.96843 
L 1016.62961 191.968352 
L 1022.898201 191.968419 
L 1029.166792 191.968407 
L 1035.435383 191.968413 
" clip-path="url(#p741eb7e34a)" style="fill: none; stroke: #1f77b4; stroke-width: 1.5; stroke-linecap: square"/>
   </g>
   <g id="patch_13">
    <path d="M 726.080417 198.87 
L 726.080417 47.04 
" style="fill: none; stroke: #000000; stroke-width: 0.8; stroke-linejoin: miter; stroke-linecap: square"/>
   </g>
   <g id="patch_14">
    <path d="M 1050.166572 198.87 
L 1050.166572 47.04 
" style="fill: none; stroke: #000000; stroke-width: 0.8; stroke-linejoin: miter; stroke-linecap: square"/>
   </g>
   <g id="patch_15">
    <path d="M 726.080417 198.87 
L 1050.166572 198.87 
" style="fill: none; stroke: #000000; stroke-width: 0.8; stroke-linejoin: miter; stroke-linecap: square"/>
   </g>
   <g id="patch_16">
    <path d="M 726.080417 47.04 
L 1050.166572 47.04 
" style="fill: none; stroke: #000000; stroke-width: 0.8; stroke-linejoin: miter; stroke-linecap: square"/>
   </g>
   <g id="text_8">
    <!-- variant=V0  market=SP50 -->
    <g transform="translate(822.010994 41.04) scale(0.1 -0.1)">
     <defs>
      <path id="DejaVuSans-53" d="M 3425 4513 
L 3425 3897 
Q 3066 4069 2747 4153 
Q 2428 4238 2131 4238 
Q 1616 4238 1336 4038 
Q 1056 3838 1056 3469 
Q 1056 3159 1242 3001 
Q 1428 2844 1947 2747 
L 2328 2669 
Q 3034 2534 3370 2195 
Q 3706 1856 3706 1288 
Q 3706 609 3251 259 
Q 2797 -91 1919 -91 
Q 1588 -91 1214 -16 
Q 841 59 441 206 
L 441 856 
Q 825 641 1194 531 
Q 1563 422 1919 422 
Q 2459 422 2753 634 
Q 3047 847 3047 1241 
Q 3047 1584 2836 1778 
Q 2625 1972 2144 2069 
L 1759 2144 
Q 1053 2284 737 2584 
Q 422 2884 422 3419 
Q 422 4038 858 4394 
Q 1294 4750 2059 4750 
Q 2388 4750 2728 4690 
Q 3069 4631 3425 4513 
z
" transform="scale(0.015625)"/>
      <path id="DejaVuSans-50" d="M 1259 4147 
L 1259 2394 
L 2053 2394 
Q 2494 2394 2734 2622 
Q 2975 2850 2975 3272 
Q 2975 3691 2734 3919 
Q 2494 4147 2053 4147 
L 1259 4147 
z
M 628 4666 
L 2053 4666 
Q 2838 4666 3239 4311 
Q 3641 3956 3641 3272 
Q 3641 2581 3239 2228 
Q 2838 1875 2053 1875 
L 1259 1875 
L 1259 0 
L 628 0 
L 628 4666 
z
" transform="scale(0.015625)"/>
     </defs>
     <use xlink:href="#DejaVuSans-76"/>
     <use xlink:href="#DejaVuSans-61" transform="translate(59.179688 0)"/>
     <use xlink:href="#DejaVuSans-72" transform="translate(120.458984 0)"/>
     <use xlink:href="#DejaVuSans-69" transform="translate(161.572266 0)"/>
     <use xlink:href="#DejaVuSans-61" transform="translate(189.355469 0)"/>
     <use xlink:href="#DejaVuSans-6e" transform="translate(250.634766 0)"/>
     <use xlink:href="#DejaVuSans-74" transform="translate(314.013672 0)"/>
     <use xlink:href="#DejaVuSans-3d" transform="translate(353.222656 0)"/>
     <use xlink:href="#DejaVuSans-56" transform="translate(437.011719 0)"/>
     <use xlink:href="#DejaVuSans-30" transform="translate(505.419922 0)"/>
     <use xlink:href="#DejaVuSans-20" transform="translate(569.042969 0)"/>
     <use xlink:href="#DejaVuSans-20" transform="translate(600.830078 0)"/>
     <use xlink:href="#DejaVuSans-6d" transform="translate(632.617188 0)"/>
     <use xlink:href="#DejaVuSans-61" transform="translate(730.029297 0)"/>
     <use xlink:href="#DejaVuSans-72" transform="translate(791.308594 0)"/>
     <use xlink:href="#DejaVuSans-6b" transform="translate(832.421875 0)"/>
     <use xlink:href="#DejaVuSans-65" transform="translate(886.707031 0)"/>
     <use xlink:href="#DejaVuSans-74" transform="translate(948.230469 0)"/>
     <use xlink:href="#DejaVuSans-3d" transform="translate(987.439453 0)"/>
     <use xlink:href="#DejaVuSans-53" transform="translate(1071.228516 0)"/>
     <use xlink:href="#DejaVuSans-50" transform="translate(1134.705078 0)"/>
     <use xlink:href="#DejaVuSans-35" transform="translate(1195.007812 0)"/>
     <use xlink:href="#DejaVuSans-30" transform="translate(1258.630859 0)"/>
    </g>
   </g>
  </g>
  <g id="axes_4">
   <g id="patch_17">
    <path d="M 40.04125 378.92 
L 364.127405 378.92 
L 364.127405 227.09 
L 40.04125 227.09 
z
" style="fill: #ffffff"/>
   </g>
   <g id="FillBetweenPolyCollection_4">
    <defs>
     <path id="m2144ebea69" d="M 54.772439 -111.687552 
L 54.772439 -102.244653 
L 61.04103 -87.884476 
L 67.309621 -91.416438 
L 73.578212 -84.099326 
L 79.846803 -85.015582 
L 86.115394 -85.922755 
L 92.383985 -81.558631 
L 98.652576 -83.148395 
L 104.921167 -83.210701 
L 111.189758 -84.000398 
L 117.458349 -77.305664 
L 123.72694 -83.877048 
L 129.995531 -80.54751 
L 136.264122 -82.24397 
L 142.532713 -79.876787 
L 148.801304 -78.252001 
L 155.069895 -83.598191 
L 161.338486 -80.978527 
L 167.607077 -81.622553 
L 173.875668 -80.959936 
L 180.144259 -83.053338 
L 186.41285 -83.28701 
L 192.681441 -80.704069 
L 198.950032 -84.007579 
L 205.218623 -84.223956 
L 211.487214 -83.153526 
L 217.755805 -84.073189 
L 224.024396 -84.174987 
L 230.292987 -84.943788 
L 236.561578 -82.688863 
L 242.830169 -84.630557 
L 249.09876 -83.526163 
L 255.367351 -83.735131 
L 261.635942 -83.493708 
L 267.904533 -82.928245 
L 274.173124 -83.6057 
L 280.441715 -85.825509 
L 286.710306 -86.372832 
L 292.978897 -83.308102 
L 299.247488 -83.699629 
L 305.516079 -84.999479 
L 311.78467 -83.751982 
L 318.053261 -85.781085 
L 324.321852 -82.898581 
L 330.590443 -83.647481 
L 336.859034 -83.421738 
L 343.127625 -83.488189 
L 349.396216 -82.879623 
L 349.396216 -84.861336 
L 349.396216 -84.861336 
L 343.127625 -85.190782 
L 336.859034 -84.129376 
L 330.590443 -84.8827 
L 324.321852 -84.64862 
L 318.053261 -85.811461 
L 311.78467 -84.604446 
L 305.516079 -87.530029 
L 299.247488 -86.960784 
L 292.978897 -85.435543 
L 286.710306 -86.938683 
L 280.441715 -86.628038 
L 274.173124 -86.085762 
L 267.904533 -84.251138 
L 261.635942 -87.060346 
L 255.367351 -87.698674 
L 249.09876 -85.517326 
L 242.830169 -87.315084 
L 236.561578 -86.653934 
L 230.292987 -85.540906 
L 224.024396 -85.336116 
L 217.755805 -86.864189 
L 211.487214 -86.798248 
L 205.218623 -87.557963 
L 198.950032 -85.484549 
L 192.681441 -84.495373 
L 186.41285 -83.764077 
L 180.144259 -86.558057 
L 173.875668 -84.962879 
L 167.607077 -84.025302 
L 161.338486 -85.616752 
L 155.069895 -85.558554 
L 148.801304 -83.227591 
L 142.532713 -84.577838 
L 136.264122 -84.882023 
L 129.995531 -86.902445 
L 123.72694 -86.052005 
L 117.458349 -82.445974 
L 111.189758 -91.7195 
L 104.921167 -86.16999 
L 98.652576 -85.860829 
L 92.383985 -86.206514 
L 86.115394 -88.445601 
L 79.846803 -89.614845 
L 73.578212 -89.305767 
L 67.309621 -96.133874 
L 61.04103 -93.66439 
L 54.772439 -111.687552 
z
" style="stroke: #1f77b4; stroke-opacity: 0.25"/>
    </defs>
    <g clip-path="url(#p3efa3fa681)">
     <use xlink:href="#m2144ebea69" x="0" y="433.44" style="fill: #1f77b4; fill-opacity: 0.25; stroke: #1f77b4; stroke-opacity: 0.25"/>
    </g>
   </g>
   <g id="matplotlib.axis_7">
    <g id="xtick_19">
     <g id="line2d_70">
      <path d="M 48.503848 378.92 
L 48.503848 227.09 
" clip-path="url(#p3efa3fa681)" style="fill: none; stroke: #b0b0b0; stroke-opacity: 0.3; stroke-width: 0.8; stroke-linecap: square"/>
     </g>
     <g id="line2d_71">
      <g>
       <use xlink:href="#m5716f08ccc" x="48.503848" y="378.92" style="stroke: #000000; stroke-width: 0.8"/>
      </g>
     </g>
     <g id="text_9">
      <!-- 0 -->
      <g transform="translate(45.322598 393.518437) scale(0.1 -0.1)">
       <use xlink:href="#DejaVuSans-30"/>
      </g>
     </g>
    </g>
    <g id="xtick_20">
     <g id="line2d_72">
      <path d="M 111.189758 378.92 
L 111.189758 227.09 
" clip-path="url(#p3efa3fa681)" style="fill: none; stroke: #b0b0b0; stroke-opacity: 0.3; stroke-width: 0.8; stroke-linecap: square"/>
     </g>
     <g id="line2d_73">
      <g>
       <use xlink:href="#m5716f08ccc" x="111.189758" y="378.92" style="stroke: #000000; stroke-width: 0.8"/>
      </g>
     </g>
     <g id="text_10">
      <!-- 10 -->
      <g transform="translate(104.827258 393.518437) scale(0.1 -0.1)">
       <use xlink:href="#DejaVuSans-31"/>
       <use xlink:href="#DejaVuSans-30" transform="translate(63.623047 0)"/>
      </g>
     </g>
    </g>
    <g id="xtick_21">
     <g id="line2d_74">
      <path d="M 173.875668 378.92 
L 173.875668 227.09 
" clip-path="url(#p3efa3fa681)" style="fill: none; stroke: #b0b0b0; stroke-opacity: 0.3; stroke-width: 0.8; stroke-linecap: square"/>
     </g>
     <g id="line2d_75">
      <g>
       <use xlink:href="#m5716f08ccc" x="173.875668" y="378.92" style="stroke: #000000; stroke-width: 0.8"/>
      </g>
     </g>
     <g id="text_11">
      <!-- 20 -->
      <g transform="translate(167.513168 393.518437) scale(0.1 -0.1)">
       <use xlink:href="#DejaVuSans-32"/>
       <use xlink:href="#DejaVuSans-30" transform="translate(63.623047 0)"/>
      </g>
     </g>
    </g>
    <g id="xtick_22">
     <g id="line2d_76">
      <path d="M 236.561578 378.92 
L 236.561578 227.09 
" clip-path="url(#p3efa3fa681)" style="fill: none; stroke: #b0b0b0; stroke-opacity: 0.3; stroke-width: 0.8; stroke-linecap: square"/>
     </g>
     <g id="line2d_77">
      <g>
       <use xlink:href="#m5716f08ccc" x="236.561578" y="378.92" style="stroke: #000000; stroke-width: 0.8"/>
      </g>
     </g>
     <g id="text_12">
      <!-- 30 -->
      <g transform="translate(230.199078 393.518437) scale(0.1 -0.1)">
       <defs>
        <path id="DejaVuSans-33" d="M 2597 2516 
Q 3050 2419 3304 2112 
Q 3559 1806 3559 1356 
Q 3559 666 3084 287 
Q 2609 -91 1734 -91 
Q 1441 -91 1130 -33 
Q 819 25 488 141 
L 488 750 
Q 750 597 1062 519 
Q 1375 441 1716 441 
Q 2309 441 2620 675 
Q 2931 909 2931 1356 
Q 2931 1769 2642 2001 
Q 2353 2234 1838 2234 
L 1294 2234 
L 1294 2753 
L 1863 2753 
Q 2328 2753 2575 2939 
Q 2822 3125 2822 3475 
Q 2822 3834 2567 4026 
Q 2313 4219 1838 4219 
Q 1578 4219 1281 4162 
Q 984 4106 628 3988 
L 628 4550 
Q 988 4650 1302 4700 
Q 1616 4750 1894 4750 
Q 2613 4750 3031 4423 
Q 3450 4097 3450 3541 
Q 3450 3153 3228 2886 
Q 3006 2619 2597 2516 
z
" transform="scale(0.015625)"/>
       </defs>
       <use xlink:href="#DejaVuSans-33"/>
       <use xlink:href="#DejaVuSans-30" transform="translate(63.623047 0)"/>
      </g>
     </g>
    </g>
    <g id="xtick_23">
     <g id="line2d_78">
      <path d="M 299.247488 378.92 
L 299.247488 227.09 
" clip-path="url(#p3efa3fa681)" style="fill: none; stroke: #b0b0b0; stroke-opacity: 0.3; stroke-width: 0.8; stroke-linecap: square"/>
     </g>
     <g id="line2d_79">
      <g>
       <use xlink:href="#m5716f08ccc" x="299.247488" y="378.92" style="stroke: #000000; stroke-width: 0.8"/>
      </g>
     </g>
     <g id="text_13">
      <!-- 40 -->
      <g transform="translate(292.884988 393.518437) scale(0.1 -0.1)">
       <defs>
        <path id="DejaVuSans-34" d="M 2419 4116 
L 825 1625 
L 2419 1625 
L 2419 4116 
z
M 2253 4666 
L 3047 4666 
L 3047 1625 
L 3713 1625 
L 3713 1100 
L 3047 1100 
L 3047 0 
L 2419 0 
L 2419 1100 
L 313 1100 
L 313 1709 
L 2253 4666 
z
" transform="scale(0.015625)"/>
       </defs>
       <use xlink:href="#DejaVuSans-34"/>
       <use xlink:href="#DejaVuSans-30" transform="translate(63.623047 0)"/>
      </g>
     </g>
    </g>
    <g id="xtick_24">
     <g id="line2d_80">
      <path d="M 361.933398 378.92 
L 361.933398 227.09 
" clip-path="url(#p3efa3fa681)" style="fill: none; stroke: #b0b0b0; stroke-opacity: 0.3; stroke-width: 0.8; stroke-linecap: square"/>
     </g>
     <g id="line2d_81">
      <g>
       <use xlink:href="#m5716f08ccc" x="361.933398" y="378.92" style="stroke: #000000; stroke-width: 0.8"/>
      </g>
     </g>
     <g id="text_14">
      <!-- 50 -->
      <g transform="translate(355.570898 393.518437) scale(0.1 -0.1)">
       <use xlink:href="#DejaVuSans-35"/>
       <use xlink:href="#DejaVuSans-30" transform="translate(63.623047 0)"/>
      </g>
     </g>
    </g>
   </g>
   <g id="matplotlib.axis_8">
    <g id="ytick_16">
     <g id="line2d_82">
      <path d="M 40.04125 372.019566 
L 364.127405 372.019566 
" clip-path="url(#p3efa3fa681)" style="fill: none; stroke: #b0b0b0; stroke-opacity: 0.3; stroke-width: 0.8; stroke-linecap: square"/>
     </g>
     <g id="line2d_83">
      <g>
       <use xlink:href="#me4824dc7fa" x="40.04125" y="372.019566" style="stroke: #000000; stroke-width: 0.8"/>
      </g>
     </g>
     <g id="text_15">
      <!-- 0 -->
      <g transform="translate(26.67875 375.818785) scale(0.1 -0.1)">
       <use xlink:href="#DejaVuSans-30"/>
      </g>
     </g>
    </g>
    <g id="ytick_17">
     <g id="line2d_84">
      <path d="M 40.04125 342.683225 
L 364.127405 342.683225 
" clip-path="url(#p3efa3fa681)" style="fill: none; stroke: #b0b0b0; stroke-opacity: 0.3; stroke-width: 0.8; stroke-linecap: square"/>
     </g>
     <g id="line2d_85">
      <g>
       <use xlink:href="#me4824dc7fa" x="40.04125" y="342.683225" style="stroke: #000000; stroke-width: 0.8"/>
      </g>
     </g>
     <g id="text_16">
      <!-- 5 -->
      <g transform="translate(26.67875 346.482444) scale(0.1 -0.1)">
       <use xlink:href="#DejaVuSans-35"/>
      </g>
     </g>
    </g>
    <g id="ytick_18">
     <g id="line2d_86">
      <path d="M 40.04125 313.346884 
L 364.127405 313.346884 
" clip-path="url(#p3efa3fa681)" style="fill: none; stroke: #b0b0b0; stroke-opacity: 0.3; stroke-width: 0.8; stroke-linecap: square"/>
     </g>
     <g id="line2d_87">
      <g>
       <use xlink:href="#me4824dc7fa" x="40.04125" y="313.346884" style="stroke: #000000; stroke-width: 0.8"/>
      </g>
     </g>
     <g id="text_17">
      <!-- 10 -->
      <g transform="translate(20.31625 317.146102) scale(0.1 -0.1)">
       <use xlink:href="#DejaVuSans-31"/>
       <use xlink:href="#DejaVuSans-30" transform="translate(63.623047 0)"/>
      </g>
     </g>
    </g>
    <g id="ytick_19">
     <g id="line2d_88">
      <path d="M 40.04125 284.010542 
L 364.127405 284.010542 
" clip-path="url(#p3efa3fa681)" style="fill: none; stroke: #b0b0b0; stroke-opacity: 0.3; stroke-width: 0.8; stroke-linecap: square"/>
     </g>
     <g id="line2d_89">
      <g>
       <use xlink:href="#me4824dc7fa" x="40.04125" y="284.010542" style="stroke: #000000; stroke-width: 0.8"/>
      </g>
     </g>
     <g id="text_18">
      <!-- 15 -->
      <g transform="translate(20.31625 287.809761) scale(0.1 -0.1)">
       <use xlink:href="#DejaVuSans-31"/>
       <use xlink:href="#DejaVuSans-35" transform="translate(63.623047 0)"/>
      </g>
     </g>
    </g>
    <g id="ytick_20">
     <g id="line2d_90">
      <path d="M 40.04125 254.674201 
L 364.127405 254.674201 
" clip-path="url(#p3efa3fa681)" style="fill: none; stroke: #b0b0b0; stroke-opacity: 0.3; stroke-width: 0.8; stroke-linecap: square"/>
     </g>
     <g id="line2d_91">
      <g>
       <use xlink:href="#me4824dc7fa" x="40.04125" y="254.674201" style="stroke: #000000; stroke-width: 0.8"/>
      </g>
     </g>
     <g id="text_19">
      <!-- 20 -->
      <g transform="translate(20.31625 258.473419) scale(0.1 -0.1)">
       <use xlink:href="#DejaVuSans-32"/>
       <use xlink:href="#DejaVuSans-30" transform="translate(63.623047 0)"/>
      </g>
     </g>
    </g>
   </g>
   <g id="line2d_92">
    <path d="M 54.772439 327.002117 
L 61.04103 340.438937 
L 67.309621 341.334192 
L 73.578212 348.139598 
L 79.846803 347.914154 
L 86.115394 346.362701 
L 92.383985 351.769907 
L 98.652576 350.202354 
L 104.921167 347.402247 
L 111.189758 345.844699 
L 117.458349 352.044706 
L 123.72694 348.598711 
L 129.995531 351.135973 
L 136.264122 350.11301 
L 142.532713 348.988363 
L 148.801304 352.747868 
L 155.069895 348.852691 
L 161.338486 350.447265 
L 167.607077 349.729721 
L 173.875668 351.132543 
L 180.144259 346.998346 
L 186.41285 349.912263 
L 192.681441 351.817188 
L 198.950032 348.297413 
L 205.218623 346.79364 
L 211.487214 348.165922 
L 217.755805 348.910598 
L 224.024396 348.154286 
L 230.292987 348.46762 
L 236.561578 347.639782 
L 242.830169 348.65397 
L 249.09876 348.881095 
L 255.367351 346.642015 
L 261.635942 348.014953 
L 267.904533 349.315957 
L 274.173124 349.421231 
L 280.441715 347.088673 
L 286.710306 346.742815 
L 292.978897 348.466197 
L 299.247488 348.179493 
L 305.516079 347.80862 
L 311.78467 348.912662 
L 318.053261 347.658257 
L 324.321852 349.797577 
L 330.590443 349.219153 
L 336.859034 349.872401 
L 343.127625 349.001004 
L 349.396216 349.049295 
" clip-path="url(#p3efa3fa681)" style="fill: none; stroke: #1f77b4; stroke-width: 1.5; stroke-linecap: square"/>
   </g>
   <g id="patch_18">
    <path d="M 40.04125 378.92 
L 40.04125 227.09 
" style="fill: none; stroke: #000000; stroke-width: 0.8; stroke-linejoin: miter; stroke-linecap: square"/>
   </g>
   <g id="patch_19">
    <path d="M 364.127405 378.92 
L 364.127405 227.09 
" style="fill: none; stroke: #000000; stroke-width: 0.8; stroke-linejoin: miter; stroke-linecap: square"/>
   </g>
   <g id="patch_20">
    <path d="M 40.04125 378.92 
L 364.127405 378.92 
" style="fill: none; stroke: #000000; stroke-width: 0.8; stroke-linejoin: miter; stroke-linecap: square"/>
   </g>
   <g id="patch_21">
    <path d="M 40.04125 227.09 
L 364.127405 227.09 
" style="fill: none; stroke: #000000; stroke-width: 0.8; stroke-linejoin: miter; stroke-linecap: square"/>
   </g>
   <g id="text_20">
    <!-- variant=V4  market=DJIA -->
    <g transform="translate(138.303078 221.09) scale(0.1 -0.1)">
     <use xlink:href="#DejaVuSans-76"/>
     <use xlink:href="#DejaVuSans-61" transform="translate(59.179688 0)"/>
     <use xlink:href="#DejaVuSans-72" transform="translate(120.458984 0)"/>
     <use xlink:href="#DejaVuSans-69" transform="translate(161.572266 0)"/>
     <use xlink:href="#DejaVuSans-61" transform="translate(189.355469 0)"/>
     <use xlink:href="#DejaVuSans-6e" transform="translate(250.634766 0)"/>
     <use xlink:href="#DejaVuSans-74" transform="translate(314.013672 0)"/>
     <use xlink:href="#DejaVuSans-3d" transform="translate(353.222656 0)"/>
     <use xlink:href="#DejaVuSans-56" transform="translate(437.011719 0)"/>
     <use xlink:href="#DejaVuSans-34" transform="translate(505.419922 0)"/>
     <use xlink:href="#DejaVuSans-20" transform="translate(569.042969 0)"/>
     <use xlink:href="#DejaVuSans-20" transform="translate(600.830078 0)"/>
     <use xlink:href="#DejaVuSans-6d" transform="translate(632.617188 0)"/>
     <use xlink:href="#DejaVuSans-61" transform="translate(730.029297 0)"/>
     <use xlink:href="#DejaVuSans-72" transform="translate(791.308594 0)"/>
     <use xlink:href="#DejaVuSans-6b" transform="translate(832.421875 0)"/>
     <use xlink:href="#DejaVuSans-65" transform="translate(886.707031 0)"/>
     <use xlink:href="#DejaVuSans-74" transform="translate(948.230469 0)"/>
     <use xlink:href="#DejaVuSans-3d" transform="translate(987.439453 0)"/>
     <use xlink:href="#DejaVuSans-44" transform="translate(1071.228516 0)"/>
     <use xlink:href="#DejaVuSans-4a" transform="translate(1148.230469 0)"/>
     <use xlink:href="#DejaVuSans-49" transform="translate(1177.722656 0)"/>
     <use xlink:href="#DejaVuSans-41" transform="translate(1207.214844 0)"/>
    </g>
   </g>
  </g>
  <g id="axes_5">
   <g id="patch_22">
    <path d="M 383.060833 378.92 
L 707.146989 378.92 
L 707.146989 227.09 
L 383.060833 227.09 
z
" style="fill: #ffffff"/>
   </g>
   <g id="FillBetweenPolyCollection_5">
    <defs>
     <path id="m55a0616a82" d="M 397.792022 -199.448636 
L 397.792022 -187.391715 
L 404.060613 -135.656236 
L 410.329204 -139.085653 
L 416.597795 -120.216558 
L 422.866386 -125.712971 
L 429.134977 -123.712513 
L 435.403568 -112.124586 
L 441.672159 -121.700004 
L 447.94075 -113.075067 
L 454.209341 -121.315648 
L 460.477932 -104.979011 
L 466.746523 -111.923965 
L 473.015114 -110.156078 
L 479.283705 -111.639785 
L 485.552296 -105.292721 
L 491.820887 -104.438585 
L 498.089478 -112.696766 
L 504.358069 -105.804789 
L 510.62666 -110.64433 
L 516.895251 -109.645408 
L 523.163842 -110.366567 
L 529.432433 -109.26474 
L 535.701024 -107.019736 
L 541.969615 -108.063749 
L 548.238206 -106.071349 
L 554.506797 -107.559063 
L 560.775388 -108.87862 
L 567.043979 -107.351942 
L 573.31257 -103.867716 
L 579.581161 -104.554126 
L 585.849752 -106.592966 
L 592.118343 -103.033365 
L 598.386935 -102.501504 
L 604.655526 -103.056197 
L 610.924117 -101.096366 
L 617.192708 -101.614553 
L 623.461299 -101.071388 
L 629.72989 -104.493465 
L 635.998481 -99.983565 
L 642.267072 -100.551099 
L 648.535663 -104.03285 
L 654.804254 -103.995441 
L 661.072845 -100.637134 
L 667.341436 -99.574201 
L 673.610027 -101.473575 
L 679.878618 -99.748059 
L 686.147209 -100.908623 
L 692.4158 -98.129798 
L 692.4158 -101.90523 
L 692.4158 -101.90523 
L 686.147209 -103.87132 
L 679.878618 -104.396521 
L 673.610027 -103.024252 
L 667.341436 -101.324447 
L 661.072845 -103.673997 
L 654.804254 -105.485677 
L 648.535663 -104.540667 
L 642.267072 -106.536009 
L 635.998481 -104.790795 
L 629.72989 -109.730179 
L 623.461299 -107.177743 
L 617.192708 -103.276193 
L 610.924117 -104.027395 
L 604.655526 -106.719012 
L 598.386935 -111.276726 
L 592.118343 -106.489853 
L 585.849752 -109.779654 
L 579.581161 -109.210884 
L 573.31257 -107.305228 
L 567.043979 -107.973515 
L 560.775388 -110.073571 
L 554.506797 -111.043079 
L 548.238206 -111.780557 
L 541.969615 -111.791735 
L 535.701024 -113.249136 
L 529.432433 -110.701561 
L 523.163842 -115.130018 
L 516.895251 -111.708303 
L 510.62666 -114.956013 
L 504.358069 -118.02428 
L 498.089478 -115.001819 
L 491.820887 -110.247228 
L 485.552296 -114.15665 
L 479.283705 -116.25582 
L 473.015114 -121.986231 
L 466.746523 -121.228956 
L 460.477932 -115.446069 
L 454.209341 -125.341979 
L 447.94075 -128.470579 
L 441.672159 -122.648589 
L 435.403568 -121.230615 
L 429.134977 -128.008517 
L 422.866386 -140.003308 
L 416.597795 -136.240281 
L 410.329204 -141.697494 
L 404.060613 -142.131698 
L 397.792022 -199.448636 
z
" style="stroke: #1f77b4; stroke-opacity: 0.25"/>
    </defs>
    <g clip-path="url(#paf40763965)">
     <use xlink:href="#m55a0616a82" x="0" y="433.44" style="fill: #1f77b4; fill-opacity: 0.25; stroke: #1f77b4; stroke-opacity: 0.25"/>
    </g>
   </g>
   <g id="matplotlib.axis_9">
    <g id="xtick_25">
     <g id="line2d_93">
      <path d="M 391.523431 378.92 
L 391.523431 227.09 
" clip-path="url(#paf40763965)" style="fill: none; stroke: #b0b0b0; stroke-opacity: 0.3; stroke-width: 0.8; stroke-linecap: square"/>
     </g>
     <g id="line2d_94">
      <g>
       <use xlink:href="#m5716f08ccc" x="391.523431" y="378.92" style="stroke: #000000; stroke-width: 0.8"/>
      </g>
     </g>
     <g id="text_21">
      <!-- 0 -->
      <g transform="translate(388.342181 393.518437) scale(0.1 -0.1)">
       <use xlink:href="#DejaVuSans-30"/>
      </g>
     </g>
    </g>
    <g id="xtick_26">
     <g id="line2d_95">
      <path d="M 454.209341 378.92 
L 454.209341 227.09 
" clip-path="url(#paf40763965)" style="fill: none; stroke: #b0b0b0; stroke-opacity: 0.3; stroke-width: 0.8; stroke-linecap: square"/>
     </g>
     <g id="line2d_96">
      <g>
       <use xlink:href="#m5716f08ccc" x="454.209341" y="378.92" style="stroke: #000000; stroke-width: 0.8"/>
      </g>
     </g>
     <g id="text_22">
      <!-- 10 -->
      <g transform="translate(447.846841 393.518437) scale(0.1 -0.1)">
       <use xlink:href="#DejaVuSans-31"/>
       <use xlink:href="#DejaVuSans-30" transform="translate(63.623047 0)"/>
      </g>
     </g>
    </g>
    <g id="xtick_27">
     <g id="line2d_97">
      <path d="M 516.895251 378.92 
L 516.895251 227.09 
" clip-path="url(#paf40763965)" style="fill: none; stroke: #b0b0b0; stroke-opacity: 0.3; stroke-width: 0.8; stroke-linecap: square"/>
     </g>
     <g id="line2d_98">
      <g>
       <use xlink:href="#m5716f08ccc" x="516.895251" y="378.92" style="stroke: #000000; stroke-width: 0.8"/>
      </g>
     </g>
     <g id="text_23">
      <!-- 20 -->
      <g transform="translate(510.532751 393.518437) scale(0.1 -0.1)">
       <use xlink:href="#DejaVuSans-32"/>
       <use xlink:href="#DejaVuSans-30" transform="translate(63.623047 0)"/>
      </g>
     </g>
    </g>
    <g id="xtick_28">
     <g id="line2d_99">
      <path d="M 579.581161 378.92 
L 579.581161 227.09 
" clip-path="url(#paf40763965)" style="fill: none; stroke: #b0b0b0; stroke-opacity: 0.3; stroke-width: 0.8; stroke-linecap: square"/>
     </g>
     <g id="line2d_100">
      <g>
       <use xlink:href="#m5716f08ccc" x="579.581161" y="378.92" style="stroke: #000000; stroke-width: 0.8"/>
      </g>
     </g>
     <g id="text_24">
      <!-- 30 -->
      <g transform="translate(573.218661 393.518437) scale(0.1 -0.1)">
       <use xlink:href="#DejaVuSans-33"/>
       <use xlink:href="#DejaVuSans-30" transform="translate(63.623047 0)"/>
      </g>
     </g>
    </g>
    <g id="xtick_29">
     <g id="line2d_101">
      <path d="M 642.267072 378.92 
L 642.267072 227.09 
" clip-path="url(#paf40763965)" style="fill: none; stroke: #b0b0b0; stroke-opacity: 0.3; stroke-width: 0.8; stroke-linecap: square"/>
     </g>
     <g id="line2d_102">
      <g>
       <use xlink:href="#m5716f08ccc" x="642.267072" y="378.92" style="stroke: #000000; stroke-width: 0.8"/>
      </g>
     </g>
     <g id="text_25">
      <!-- 40 -->
      <g transform="translate(635.904572 393.518437) scale(0.1 -0.1)">
       <use xlink:href="#DejaVuSans-34"/>
       <use xlink:href="#DejaVuSans-30" transform="translate(63.623047 0)"/>
      </g>
     </g>
    </g>
    <g id="xtick_30">
     <g id="line2d_103">
      <path d="M 704.952982 378.92 
L 704.952982 227.09 
" clip-path="url(#paf40763965)" style="fill: none; stroke: #b0b0b0; stroke-opacity: 0.3; stroke-width: 0.8; stroke-linecap: square"/>
     </g>
     <g id="line2d_104">
      <g>
       <use xlink:href="#m5716f08ccc" x="704.952982" y="378.92" style="stroke: #000000; stroke-width: 0.8"/>
      </g>
     </g>
     <g id="text_26">
      <!-- 50 -->
      <g transform="translate(698.590482 393.518437) scale(0.1 -0.1)">
       <use xlink:href="#DejaVuSans-35"/>
       <use xlink:href="#DejaVuSans-30" transform="translate(63.623047 0)"/>
      </g>
     </g>
    </g>
   </g>
   <g id="matplotlib.axis_10">
    <g id="ytick_21">
     <g id="line2d_105">
      <path d="M 383.060833 372.019566 
L 707.146989 372.019566 
" clip-path="url(#paf40763965)" style="fill: none; stroke: #b0b0b0; stroke-opacity: 0.3; stroke-width: 0.8; stroke-linecap: square"/>
     </g>
     <g id="line2d_106">
      <g>
       <use xlink:href="#me4824dc7fa" x="383.060833" y="372.019566" style="stroke: #000000; stroke-width: 0.8"/>
      </g>
     </g>
    </g>
    <g id="ytick_22">
     <g id="line2d_107">
      <path d="M 383.060833 342.683225 
L 707.146989 342.683225 
" clip-path="url(#paf40763965)" style="fill: none; stroke: #b0b0b0; stroke-opacity: 0.3; stroke-width: 0.8; stroke-linecap: square"/>
     </g>
     <g id="line2d_108">
      <g>
       <use xlink:href="#me4824dc7fa" x="383.060833" y="342.683225" style="stroke: #000000; stroke-width: 0.8"/>
      </g>
     </g>
    </g>
    <g id="ytick_23">
     <g id="line2d_109">
      <path d="M 383.060833 313.346884 
L 707.146989 313.346884 
" clip-path="url(#paf40763965)" style="fill: none; stroke: #b0b0b0; stroke-opacity: 0.3; stroke-width: 0.8; stroke-linecap: square"/>
     </g>
     <g id="line2d_110">
      <g>
       <use xlink:href="#me4824dc7fa" x="383.060833" y="313.346884" style="stroke: #000000; stroke-width: 0.8"/>
      </g>
     </g>
    </g>
    <g id="ytick_24">
     <g id="line2d_111">
      <path d="M 383.060833 284.010542 
L 707.146989 284.010542 
" clip-path="url(#paf40763965)" style="fill: none; stroke: #b0b0b0; stroke-opacity: 0.3; stroke-width: 0.8; stroke-linecap: square"/>
     </g>
     <g id="line2d_112">
      <g>
       <use xlink:href="#me4824dc7fa" x="383.060833" y="284.010542" style="stroke: #000000; stroke-width: 0.8"/>
      </g>
     </g>
    </g>
    <g id="ytick_25">
     <g id="line2d_113">
      <path d="M 383.060833 254.674201 
L 707.146989 254.674201 
" clip-path="url(#paf40763965)" style="fill: none; stroke: #b0b0b0; stroke-opacity: 0.3; stroke-width: 0.8; stroke-linecap: square"/>
     </g>
     <g id="line2d_114">
      <g>
       <use xlink:href="#me4824dc7fa" x="383.060833" y="254.674201" style="stroke: #000000; stroke-width: 0.8"/>
      </g>
     </g>
    </g>
   </g>
   <g id="line2d_115">
    <path d="M 397.792022 244.377081 
L 404.060613 295.436749 
L 410.329204 292.722485 
L 416.597795 308.831082 
L 422.866386 305.870236 
L 429.134977 309.079627 
L 435.403568 316.175634 
L 441.672159 311.557245 
L 447.94075 311.375199 
L 454.209341 309.212165 
L 460.477932 319.108823 
L 466.746523 321.139587 
L 473.015114 314.651765 
L 479.283705 320.588964 
L 485.552296 321.427457 
L 491.820887 324.230932 
L 498.089478 319.127868 
L 504.358069 322.231006 
L 510.62666 319.557912 
L 516.895251 322.227743 
L 523.163842 321.913135 
L 529.432433 323.353639 
L 535.701024 325.320642 
L 541.969615 323.4165 
L 548.238206 322.720029 
L 554.506797 324.303633 
L 560.775388 323.53832 
L 567.043979 325.490972 
L 573.31257 326.790782 
L 579.581161 327.036179 
L 585.849752 325.72491 
L 592.118343 327.841646 
L 598.386935 327.611391 
L 604.655526 327.71567 
L 610.924117 329.846805 
L 617.192708 330.2752 
L 623.461299 327.945526 
L 629.72989 328.639223 
L 635.998481 330.955507 
L 642.267072 331.713549 
L 648.535663 329.124905 
L 654.804254 328.010899 
L 661.072845 330.846361 
L 667.341436 332.43422 
L 673.610027 330.53541 
L 679.878618 332.179571 
L 686.147209 330.898567 
L 692.4158 334.807051 
" clip-path="url(#paf40763965)" style="fill: none; stroke: #1f77b4; stroke-width: 1.5; stroke-linecap: square"/>
   </g>
   <g id="patch_23">
    <path d="M 383.060833 378.92 
L 383.060833 227.09 
" style="fill: none; stroke: #000000; stroke-width: 0.8; stroke-linejoin: miter; stroke-linecap: square"/>
   </g>
   <g id="patch_24">
    <path d="M 707.146989 378.92 
L 707.146989 227.09 
" style="fill: none; stroke: #000000; stroke-width: 0.8; stroke-linejoin: miter; stroke-linecap: square"/>
   </g>
   <g id="patch_25">
    <path d="M 383.060833 378.92 
L 707.146989 378.92 
" style="fill: none; stroke: #000000; stroke-width: 0.8; stroke-linejoin: miter; stroke-linecap: square"/>
   </g>
   <g id="patch_26">
    <path d="M 383.060833 227.09 
L 707.146989 227.09 
" style="fill: none; stroke: #000000; stroke-width: 0.8; stroke-linejoin: miter; stroke-linecap: square"/>
   </g>
   <g id="text_27">
    <!-- variant=V4  market=IBEX -->
    <g transform="translate(480.05313 221.09) scale(0.1 -0.1)">
     <use xlink:href="#DejaVuSans-76"/>
     <use xlink:href="#DejaVuSans-61" transform="translate(59.179688 0)"/>
     <use xlink:href="#DejaVuSans-72" transform="translate(120.458984 0)"/>
     <use xlink:href="#DejaVuSans-69" transform="translate(161.572266 0)"/>
     <use xlink:href="#DejaVuSans-61" transform="translate(189.355469 0)"/>
     <use xlink:href="#DejaVuSans-6e" transform="translate(250.634766 0)"/>
     <use xlink:href="#DejaVuSans-74" transform="translate(314.013672 0)"/>
     <use xlink:href="#DejaVuSans-3d" transform="translate(353.222656 0)"/>
     <use xlink:href="#DejaVuSans-56" transform="translate(437.011719 0)"/>
     <use xlink:href="#DejaVuSans-34" transform="translate(505.419922 0)"/>
     <use xlink:href="#DejaVuSans-20" transform="translate(569.042969 0)"/>
     <use xlink:href="#DejaVuSans-20" transform="translate(600.830078 0)"/>
     <use xlink:href="#DejaVuSans-6d" transform="translate(632.617188 0)"/>
     <use xlink:href="#DejaVuSans-61" transform="translate(730.029297 0)"/>
     <use xlink:href="#DejaVuSans-72" transform="translate(791.308594 0)"/>
     <use xlink:href="#DejaVuSans-6b" transform="translate(832.421875 0)"/>
     <use xlink:href="#DejaVuSans-65" transform="translate(886.707031 0)"/>
     <use xlink:href="#DejaVuSans-74" transform="translate(948.230469 0)"/>
     <use xlink:href="#DejaVuSans-3d" transform="translate(987.439453 0)"/>
     <use xlink:href="#DejaVuSans-49" transform="translate(1071.228516 0)"/>
     <use xlink:href="#DejaVuSans-42" transform="translate(1100.720703 0)"/>
     <use xlink:href="#DejaVuSans-45" transform="translate(1169.324219 0)"/>
     <use xlink:href="#DejaVuSans-58" transform="translate(1232.507812 0)"/>
    </g>
   </g>
  </g>
  <g id="axes_6">
   <g id="patch_27">
    <path d="M 726.080417 378.92 
L 1050.166572 378.92 
L 1050.166572 227.09 
L 726.080417 227.09 
z
" style="fill: #ffffff"/>
   </g>
   <g id="FillBetweenPolyCollection_6">
    <defs>
     <path id="m8ff78344b2" d="M 740.811606 -103.166323 
L 740.811606 -94.72453 
L 747.080197 -86.538254 
L 753.348788 -90.982311 
L 759.617379 -83.115047 
L 765.88597 -81.895937 
L 772.154561 -82.160791 
L 778.423152 -79.406514 
L 784.691743 -79.554703 
L 790.960334 -78.724706 
L 797.228925 -81.03942 
L 803.497516 -75.989119 
L 809.766107 -79.660643 
L 816.034698 -77.635833 
L 822.303289 -80.190375 
L 828.57188 -77.325521 
L 834.840471 -76.295207 
L 841.109062 -83.296355 
L 847.377653 -79.442762 
L 853.646244 -80.539805 
L 859.914835 -77.216181 
L 866.183426 -82.761076 
L 872.452017 -83.442234 
L 878.720608 -78.225261 
L 884.989199 -83.235671 
L 891.25779 -86.76933 
L 897.526381 -82.894553 
L 903.794972 -83.421688 
L 910.063563 -85.093412 
L 916.332154 -83.756442 
L 922.600745 -82.287962 
L 928.869336 -85.704511 
L 935.137927 -86.222561 
L 941.406518 -85.642906 
L 947.675109 -85.004978 
L 953.9437 -83.622726 
L 960.212291 -85.437951 
L 966.480882 -87.665565 
L 972.749473 -88.561729 
L 979.018064 -86.896393 
L 985.286655 -86.438966 
L 991.555246 -88.568316 
L 997.823837 -88.266916 
L 1004.092428 -86.775662 
L 1010.361019 -86.646082 
L 1016.62961 -87.756018 
L 1022.898201 -87.398556 
L 1029.166792 -87.581947 
L 1035.435383 -87.834365 
L 1035.435383 -89.793419 
L 1035.435383 -89.793419 
L 1029.166792 -90.074908 
L 1022.898201 -88.677614 
L 1016.62961 -89.535902 
L 1010.361019 -88.58819 
L 1004.092428 -89.883938 
L 997.823837 -89.808055 
L 991.555246 -89.706642 
L 985.286655 -91.077456 
L 979.018064 -90.471116 
L 972.749473 -91.143441 
L 966.480882 -89.958105 
L 960.212291 -88.411549 
L 953.9437 -87.485105 
L 947.675109 -88.967858 
L 941.406518 -90.069557 
L 935.137927 -87.711305 
L 928.869336 -90.475764 
L 922.600745 -90.250714 
L 916.332154 -88.555672 
L 910.063563 -86.126662 
L 903.794972 -86.479246 
L 897.526381 -84.699912 
L 891.25779 -89.032099 
L 884.989199 -85.300777 
L 878.720608 -82.776127 
L 872.452017 -84.64941 
L 866.183426 -88.577581 
L 859.914835 -82.776334 
L 853.646244 -82.055271 
L 847.377653 -82.568948 
L 841.109062 -84.442591 
L 834.840471 -81.554774 
L 828.57188 -82.772269 
L 822.303289 -84.529138 
L 816.034698 -82.220989 
L 809.766107 -83.26665 
L 803.497516 -79.92104 
L 797.228925 -84.835327 
L 790.960334 -84.670573 
L 784.691743 -81.548295 
L 778.423152 -81.608806 
L 772.154561 -83.75169 
L 765.88597 -84.592161 
L 759.617379 -86.771014 
L 753.348788 -93.605122 
L 747.080197 -91.191683 
L 740.811606 -103.166323 
z
" style="stroke: #1f77b4; stroke-opacity: 0.25"/>
    </defs>
    <g clip-path="url(#p0150653ade)">
     <use xlink:href="#m8ff78344b2" x="0" y="433.44" style="fill: #1f77b4; fill-opacity: 0.25; stroke: #1f77b4; stroke-opacity: 0.25"/>
    </g>
   </g>
   <g id="matplotlib.axis_11">
    <g id="xtick_31">
     <g id="line2d_116">
      <path d="M 734.543015 378.92 
L 734.543015 227.09 
" clip-path="url(#p0150653ade)" style="fill: none; stroke: #b0b0b0; stroke-opacity: 0.3; stroke-width: 0.8; stroke-linecap: square"/>
     </g>
     <g id="line2d_117">
      <g>
       <use xlink:href="#m5716f08ccc" x="734.543015" y="378.92" style="stroke: #000000; stroke-width: 0.8"/>
      </g>
     </g>
     <g id="text_28">
      <!-- 0 -->
      <g transform="translate(731.361765 393.518437) scale(0.1 -0.1)">
       <use xlink:href="#DejaVuSans-30"/>
      </g>
     </g>
    </g>
    <g id="xtick_32">
     <g id="line2d_118">
      <path d="M 797.228925 378.92 
L 797.228925 227.09 
" clip-path="url(#p0150653ade)" style="fill: none; stroke: #b0b0b0; stroke-opacity: 0.3; stroke-width: 0.8; stroke-linecap: square"/>
     </g>
     <g id="line2d_119">
      <g>
       <use xlink:href="#m5716f08ccc" x="797.228925" y="378.92" style="stroke: #000000; stroke-width: 0.8"/>
      </g>
     </g>
     <g id="text_29">
      <!-- 10 -->
      <g transform="translate(790.866425 393.518437) scale(0.1 -0.1)">
       <use xlink:href="#DejaVuSans-31"/>
       <use xlink:href="#DejaVuSans-30" transform="translate(63.623047 0)"/>
      </g>
     </g>
    </g>
    <g id="xtick_33">
     <g id="line2d_120">
      <path d="M 859.914835 378.92 
L 859.914835 227.09 
" clip-path="url(#p0150653ade)" style="fill: none; stroke: #b0b0b0; stroke-opacity: 0.3; stroke-width: 0.8; stroke-linecap: square"/>
     </g>
     <g id="line2d_121">
      <g>
       <use xlink:href="#m5716f08ccc" x="859.914835" y="378.92" style="stroke: #000000; stroke-width: 0.8"/>
      </g>
     </g>
     <g id="text_30">
      <!-- 20 -->
      <g transform="translate(853.552335 393.518437) scale(0.1 -0.1)">
       <use xlink:href="#DejaVuSans-32"/>
       <use xlink:href="#DejaVuSans-30" transform="translate(63.623047 0)"/>
      </g>
     </g>
    </g>
    <g id="xtick_34">
     <g id="line2d_122">
      <path d="M 922.600745 378.92 
L 922.600745 227.09 
" clip-path="url(#p0150653ade)" style="fill: none; stroke: #b0b0b0; stroke-opacity: 0.3; stroke-width: 0.8; stroke-linecap: square"/>
     </g>
     <g id="line2d_123">
      <g>
       <use xlink:href="#m5716f08ccc" x="922.600745" y="378.92" style="stroke: #000000; stroke-width: 0.8"/>
      </g>
     </g>
     <g id="text_31">
      <!-- 30 -->
      <g transform="translate(916.238245 393.518437) scale(0.1 -0.1)">
       <use xlink:href="#DejaVuSans-33"/>
       <use xlink:href="#DejaVuSans-30" transform="translate(63.623047 0)"/>
      </g>
     </g>
    </g>
    <g id="xtick_35">
     <g id="line2d_124">
      <path d="M 985.286655 378.92 
L 985.286655 227.09 
" clip-path="url(#p0150653ade)" style="fill: none; stroke: #b0b0b0; stroke-opacity: 0.3; stroke-width: 0.8; stroke-linecap: square"/>
     </g>
     <g id="line2d_125">
      <g>
       <use xlink:href="#m5716f08ccc" x="985.286655" y="378.92" style="stroke: #000000; stroke-width: 0.8"/>
      </g>
     </g>
     <g id="text_32">
      <!-- 40 -->
      <g transform="translate(978.924155 393.518437) scale(0.1 -0.1)">
       <use xlink:href="#DejaVuSans-34"/>
       <use xlink:href="#DejaVuSans-30" transform="translate(63.623047 0)"/>
      </g>
     </g>
    </g>
    <g id="xtick_36">
     <g id="line2d_126">
      <path d="M 1047.972565 378.92 
L 1047.972565 227.09 
" clip-path="url(#p0150653ade)" style="fill: none; stroke: #b0b0b0; stroke-opacity: 0.3; stroke-width: 0.8; stroke-linecap: square"/>
     </g>
     <g id="line2d_127">
      <g>
       <use xlink:href="#m5716f08ccc" x="1047.972565" y="378.92" style="stroke: #000000; stroke-width: 0.8"/>
      </g>
     </g>
     <g id="text_33">
      <!-- 50 -->
      <g transform="translate(1041.610065 393.518437) scale(0.1 -0.1)">
       <use xlink:href="#DejaVuSans-35"/>
       <use xlink:href="#DejaVuSans-30" transform="translate(63.623047 0)"/>
      </g>
     </g>
    </g>
   </g>
   <g id="matplotlib.axis_12">
    <g id="ytick_26">
     <g id="line2d_128">
      <path d="M 726.080417 372.019566 
L 1050.166572 372.019566 
" clip-path="url(#p0150653ade)" style="fill: none; stroke: #b0b0b0; stroke-opacity: 0.3; stroke-width: 0.8; stroke-linecap: square"/>
     </g>
     <g id="line2d_129">
      <g>
       <use xlink:href="#me4824dc7fa" x="726.080417" y="372.019566" style="stroke: #000000; stroke-width: 0.8"/>
      </g>
     </g>
    </g>
    <g id="ytick_27">
     <g id="line2d_130">
      <path d="M 726.080417 342.683225 
L 1050.166572 342.683225 
" clip-path="url(#p0150653ade)" style="fill: none; stroke: #b0b0b0; stroke-opacity: 0.3; stroke-width: 0.8; stroke-linecap: square"/>
     </g>
     <g id="line2d_131">
      <g>
       <use xlink:href="#me4824dc7fa" x="726.080417" y="342.683225" style="stroke: #000000; stroke-width: 0.8"/>
      </g>
     </g>
    </g>
    <g id="ytick_28">
     <g id="line2d_132">
      <path d="M 726.080417 313.346884 
L 1050.166572 313.346884 
" clip-path="url(#p0150653ade)" style="fill: none; stroke: #b0b0b0; stroke-opacity: 0.3; stroke-width: 0.8; stroke-linecap: square"/>
     </g>
     <g id="line2d_133">
      <g>
       <use xlink:href="#me4824dc7fa" x="726.080417" y="313.346884" style="stroke: #000000; stroke-width: 0.8"/>
      </g>
     </g>
    </g>
    <g id="ytick_29">
     <g id="line2d_134">
      <path d="M 726.080417 284.010542 
L 1050.166572 284.010542 
" clip-path="url(#p0150653ade)" style="fill: none; stroke: #b0b0b0; stroke-opacity: 0.3; stroke-width: 0.8; stroke-linecap: square"/>
     </g>
     <g id="line2d_135">
      <g>
       <use xlink:href="#me4824dc7fa" x="726.080417" y="284.010542" style="stroke: #000000; stroke-width: 0.8"/>
      </g>
     </g>
    </g>
    <g id="ytick_30">
     <g id="line2d_136">
      <path d="M 726.080417 254.674201 
L 1050.166572 254.674201 
" clip-path="url(#p0150653ade)" style="fill: none; stroke: #b0b0b0; stroke-opacity: 0.3; stroke-width: 0.8; stroke-linecap: square"/>
     </g>
     <g id="line2d_137">
      <g>
       <use xlink:href="#me4824dc7fa" x="726.080417" y="254.674201" style="stroke: #000000; stroke-width: 0.8"/>
      </g>
     </g>
    </g>
   </g>
   <g id="line2d_138">
    <path d="M 740.811606 335.843892 
L 747.080197 344.250126 
L 753.348788 341.697421 
L 759.617379 348.569938 
L 765.88597 350.706006 
L 772.154561 350.657667 
L 778.423152 351.831917 
L 784.691743 352.967674 
L 790.960334 353.914077 
L 797.228925 348.663671 
L 803.497516 356.188877 
L 809.766107 350.33829 
L 816.034698 355.066355 
L 822.303289 353.235163 
L 828.57188 351.674518 
L 834.840471 353.586203 
L 841.109062 349.811006 
L 847.377653 351.681978 
L 853.646244 351.773456 
L 859.914835 350.667765 
L 866.183426 348.948303 
L 872.452017 349.276816 
L 878.720608 352.913406 
L 884.989199 348.450387 
L 891.25779 345.996363 
L 897.526381 350.09876 
L 903.794972 347.501168 
L 910.063563 348.288821 
L 916.332154 345.612698 
L 922.600745 349.630623 
L 928.869336 344.971411 
L 935.137927 346.546106 
L 941.406518 343.47376 
L 947.675109 345.325739 
L 953.9437 348.839316 
L 960.212291 346.982125 
L 966.480882 345.163068 
L 972.749473 342.727988 
L 979.018064 345.543068 
L 985.286655 344.421211 
L 991.555246 343.825214 
L 997.823837 344.436884 
L 1004.092428 344.153572 
L 1010.361019 345.431506 
L 1016.62961 345.406996 
L 1022.898201 344.925701 
L 1029.166792 344.259158 
L 1035.435383 344.939485 
" clip-path="url(#p0150653ade)" style="fill: none; stroke: #1f77b4; stroke-width: 1.5; stroke-linecap: square"/>
   </g>
   <g id="patch_28">
    <path d="M 726.080417 378.92 
L 726.080417 227.09 
" style="fill: none; stroke: #000000; stroke-width: 0.8; stroke-linejoin: miter; stroke-linecap: square"/>
   </g>
   <g id="patch_29">
    <path d="M 1050.166572 378.92 
L 1050.166572 227.09 
" style="fill: none; stroke: #000000; stroke-width: 0.8; stroke-linejoin: miter; stroke-linecap: square"/>
   </g>
   <g id="patch_30">
    <path d="M 726.080417 378.92 
L 1050.166572 378.92 
" style="fill: none; stroke: #000000; stroke-width: 0.8; stroke-linejoin: miter; stroke-linecap: square"/>
   </g>
   <g id="patch_31">
    <path d="M 726.080417 227.09 
L 1050.166572 227.09 
" style="fill: none; stroke: #000000; stroke-width: 0.8; stroke-linejoin: miter; stroke-linecap: square"/>
   </g>
   <g id="text_34">
    <!-- variant=V4  market=SP50 -->
    <g transform="translate(822.010994 221.09) scale(0.1 -0.1)">
     <use xlink:href="#DejaVuSans-76"/>
     <use xlink:href="#DejaVuSans-61" transform="translate(59.179688 0)"/>
     <use xlink:href="#DejaVuSans-72" transform="translate(120.458984 0)"/>
     <use xlink:href="#DejaVuSans-69" transform="translate(161.572266 0)"/>
     <use xlink:href="#DejaVuSans-61" transform="translate(189.355469 0)"/>
     <use xlink:href="#DejaVuSans-6e" transform="translate(250.634766 0)"/>
     <use xlink:href="#DejaVuSans-74" transform="translate(314.013672 0)"/>
     <use xlink:href="#DejaVuSans-3d" transform="translate(353.222656 0)"/>
     <use xlink:href="#DejaVuSans-56" transform="translate(437.011719 0)"/>
     <use xlink:href="#DejaVuSans-34" transform="translate(505.419922 0)"/>
     <use xlink:href="#DejaVuSans-20" transform="translate(569.042969 0)"/>
     <use xlink:href="#DejaVuSans-20" transform="translate(600.830078 0)"/>
     <use xlink:href="#DejaVuSans-6d" transform="translate(632.617188 0)"/>
     <use xlink:href="#DejaVuSans-61" transform="translate(730.029297 0)"/>
     <use xlink:href="#DejaVuSans-72" transform="translate(791.308594 0)"/>
     <use xlink:href="#DejaVuSans-6b" transform="translate(832.421875 0)"/>
     <use xlink:href="#DejaVuSans-65" transform="translate(886.707031 0)"/>
     <use xlink:href="#DejaVuSans-74" transform="translate(948.230469 0)"/>
     <use xlink:href="#DejaVuSans-3d" transform="translate(987.439453 0)"/>
     <use xlink:href="#DejaVuSans-53" transform="translate(1071.228516 0)"/>
     <use xlink:href="#DejaVuSans-50" transform="translate(1134.705078 0)"/>
     <use xlink:href="#DejaVuSans-35" transform="translate(1195.007812 0)"/>
     <use xlink:href="#DejaVuSans-30" transform="translate(1258.630859 0)"/>
    </g>
   </g>
  </g>
  <g id="text_35">
   <!-- value_loss -->
   <g transform="translate(490.920938 16.318125) scale(0.12 -0.12)">
    <defs>
     <path id="DejaVuSans-Bold-76" d="M 97 3500 
L 1216 3500 
L 2088 1081 
L 2956 3500 
L 4078 3500 
L 2700 0 
L 1472 0 
L 97 3500 
z
" transform="scale(0.015625)"/>
     <path id="DejaVuSans-Bold-61" d="M 2106 1575 
Q 1756 1575 1579 1456 
Q 1403 1338 1403 1106 
Q 1403 894 1545 773 
Q 1688 653 1941 653 
Q 2256 653 2472 879 
Q 2688 1106 2688 1447 
L 2688 1575 
L 2106 1575 
z
M 3816 1997 
L 3816 0 
L 2688 0 
L 2688 519 
Q 2463 200 2181 54 
Q 1900 -91 1497 -91 
Q 953 -91 614 226 
Q 275 544 275 1050 
Q 275 1666 698 1953 
Q 1122 2241 2028 2241 
L 2688 2241 
L 2688 2328 
Q 2688 2594 2478 2717 
Q 2269 2841 1825 2841 
Q 1466 2841 1156 2769 
Q 847 2697 581 2553 
L 581 3406 
Q 941 3494 1303 3539 
Q 1666 3584 2028 3584 
Q 2975 3584 3395 3211 
Q 3816 2838 3816 1997 
z
" transform="scale(0.015625)"/>
     <path id="DejaVuSans-Bold-6c" d="M 538 4863 
L 1656 4863 
L 1656 0 
L 538 0 
L 538 4863 
z
" transform="scale(0.015625)"/>
     <path id="DejaVuSans-Bold-75" d="M 500 1363 
L 500 3500 
L 1625 3500 
L 1625 3150 
Q 1625 2866 1622 2436 
Q 1619 2006 1619 1863 
Q 1619 1441 1641 1255 
Q 1663 1069 1716 984 
Q 1784 875 1895 815 
Q 2006 756 2150 756 
Q 2500 756 2700 1025 
Q 2900 1294 2900 1772 
L 2900 3500 
L 4019 3500 
L 4019 0 
L 2900 0 
L 2900 506 
Q 2647 200 2364 54 
Q 2081 -91 1741 -91 
Q 1134 -91 817 281 
Q 500 653 500 1363 
z
" transform="scale(0.015625)"/>
     <path id="DejaVuSans-Bold-65" d="M 4031 1759 
L 4031 1441 
L 1416 1441 
Q 1456 1047 1700 850 
Q 1944 653 2381 653 
Q 2734 653 3104 758 
Q 3475 863 3866 1075 
L 3866 213 
Q 3469 63 3072 -14 
Q 2675 -91 2278 -91 
Q 1328 -91 801 392 
Q 275 875 275 1747 
Q 275 2603 792 3093 
Q 1309 3584 2216 3584 
Q 3041 3584 3536 3087 
Q 4031 2591 4031 1759 
z
M 2881 2131 
Q 2881 2450 2695 2645 
Q 2509 2841 2209 2841 
Q 1884 2841 1681 2658 
Q 1478 2475 1428 2131 
L 2881 2131 
z
" transform="scale(0.015625)"/>
     <path id="DejaVuSans-Bold-5f" d="M 3200 -916 
L 3200 -1509 
L 0 -1509 
L 0 -916 
L 3200 -916 
z
" transform="scale(0.015625)"/>
     <path id="DejaVuSans-Bold-6f" d="M 2203 2784 
Q 1831 2784 1636 2517 
Q 1441 2250 1441 1747 
Q 1441 1244 1636 976 
Q 1831 709 2203 709 
Q 2569 709 2762 976 
Q 2956 1244 2956 1747 
Q 2956 2250 2762 2517 
Q 2569 2784 2203 2784 
z
M 2203 3584 
Q 3106 3584 3614 3096 
Q 4122 2609 4122 1747 
Q 4122 884 3614 396 
Q 3106 -91 2203 -91 
Q 1297 -91 786 396 
Q 275 884 275 1747 
Q 275 2609 786 3096 
Q 1297 3584 2203 3584 
z
" transform="scale(0.015625)"/>
     <path id="DejaVuSans-Bold-73" d="M 3272 3391 
L 3272 2541 
Q 2913 2691 2578 2766 
Q 2244 2841 1947 2841 
Q 1628 2841 1473 2761 
Q 1319 2681 1319 2516 
Q 1319 2381 1436 2309 
Q 1553 2238 1856 2203 
L 2053 2175 
Q 2913 2066 3209 1816 
Q 3506 1566 3506 1031 
Q 3506 472 3093 190 
Q 2681 -91 1863 -91 
Q 1516 -91 1145 -36 
Q 775 19 384 128 
L 384 978 
Q 719 816 1070 734 
Q 1422 653 1784 653 
Q 2113 653 2278 743 
Q 2444 834 2444 1013 
Q 2444 1163 2330 1236 
Q 2216 1309 1875 1350 
L 1678 1375 
Q 931 1469 631 1722 
Q 331 1975 331 2491 
Q 331 3047 712 3315 
Q 1094 3584 1881 3584 
Q 2191 3584 2531 3537 
Q 2872 3491 3272 3391 
z
" transform="scale(0.015625)"/>
    </defs>
    <use xlink:href="#DejaVuSans-Bold-76"/>
    <use xlink:href="#DejaVuSans-Bold-61" transform="translate(65.185547 0)"/>
    <use xlink:href="#DejaVuSans-Bold-6c" transform="translate(132.666016 0)"/>
    <use xlink:href="#DejaVuSans-Bold-75" transform="translate(166.943359 0)"/>
    <use xlink:href="#DejaVuSans-Bold-65" transform="translate(238.134766 0)"/>
    <use xlink:href="#DejaVuSans-Bold-5f" transform="translate(305.957031 0)"/>
    <use xlink:href="#DejaVuSans-Bold-6c" transform="translate(355.957031 0)"/>
    <use xlink:href="#DejaVuSans-Bold-6f" transform="translate(390.234375 0)"/>
    <use xlink:href="#DejaVuSans-Bold-73" transform="translate(458.935547 0)"/>
    <use xlink:href="#DejaVuSans-Bold-73" transform="translate(518.457031 0)"/>
   </g>
  </g>
  <g id="text_36">
   <!-- PPO rollout iteration -->
   <g transform="translate(465.317813 423.744375) scale(0.12 -0.12)">
    <defs>
     <path id="DejaVuSans-4f" d="M 2522 4238 
Q 1834 4238 1429 3725 
Q 1025 3213 1025 2328 
Q 1025 1447 1429 934 
Q 1834 422 2522 422 
Q 3209 422 3611 934 
Q 4013 1447 4013 2328 
Q 4013 3213 3611 3725 
Q 3209 4238 2522 4238 
z
M 2522 4750 
Q 3503 4750 4090 4092 
Q 4678 3434 4678 2328 
Q 4678 1225 4090 567 
Q 3503 -91 2522 -91 
Q 1538 -91 948 565 
Q 359 1222 359 2328 
Q 359 3434 948 4092 
Q 1538 4750 2522 4750 
z
" transform="scale(0.015625)"/>
     <path id="DejaVuSans-6f" d="M 1959 3097 
Q 1497 3097 1228 2736 
Q 959 2375 959 1747 
Q 959 1119 1226 758 
Q 1494 397 1959 397 
Q 2419 397 2687 759 
Q 2956 1122 2956 1747 
Q 2956 2369 2687 2733 
Q 2419 3097 1959 3097 
z
M 1959 3584 
Q 2709 3584 3137 3096 
Q 3566 2609 3566 1747 
Q 3566 888 3137 398 
Q 2709 -91 1959 -91 
Q 1206 -91 779 398 
Q 353 888 353 1747 
Q 353 2609 779 3096 
Q 1206 3584 1959 3584 
z
" transform="scale(0.015625)"/>
     <path id="DejaVuSans-6c" d="M 603 4863 
L 1178 4863 
L 1178 0 
L 603 0 
L 603 4863 
z
" transform="scale(0.015625)"/>
     <path id="DejaVuSans-75" d="M 544 1381 
L 544 3500 
L 1119 3500 
L 1119 1403 
Q 1119 906 1312 657 
Q 1506 409 1894 409 
Q 2359 409 2629 706 
Q 2900 1003 2900 1516 
L 2900 3500 
L 3475 3500 
L 3475 0 
L 2900 0 
L 2900 538 
Q 2691 219 2414 64 
Q 2138 -91 1772 -91 
Q 1169 -91 856 284 
Q 544 659 544 1381 
z
M 1991 3584 
L 1991 3584 
z
" transform="scale(0.015625)"/>
    </defs>
    <use xlink:href="#DejaVuSans-50"/>
    <use xlink:href="#DejaVuSans-50" transform="translate(60.302734 0)"/>
    <use xlink:href="#DejaVuSans-4f" transform="translate(120.605469 0)"/>
    <use xlink:href="#DejaVuSans-20" transform="translate(199.316406 0)"/>
    <use xlink:href="#DejaVuSans-72" transform="translate(231.103516 0)"/>
    <use xlink:href="#DejaVuSans-6f" transform="translate(269.966797 0)"/>
    <use xlink:href="#DejaVuSans-6c" transform="translate(331.148438 0)"/>
    <use xlink:href="#DejaVuSans-6c" transform="translate(358.931641 0)"/>
    <use xlink:href="#DejaVuSans-6f" transform="translate(386.714844 0)"/>
    <use xlink:href="#DejaVuSans-75" transform="translate(447.896484 0)"/>
    <use xlink:href="#DejaVuSans-74" transform="translate(511.275391 0)"/>
    <use xlink:href="#DejaVuSans-20" transform="translate(550.484375 0)"/>
    <use xlink:href="#DejaVuSans-69" transform="translate(582.271484 0)"/>
    <use xlink:href="#DejaVuSans-74" transform="translate(610.054688 0)"/>
    <use xlink:href="#DejaVuSans-65" transform="translate(649.263672 0)"/>
    <use xlink:href="#DejaVuSans-72" transform="translate(710.787109 0)"/>
    <use xlink:href="#DejaVuSans-61" transform="translate(751.900391 0)"/>
    <use xlink:href="#DejaVuSans-74" transform="translate(813.179688 0)"/>
    <use xlink:href="#DejaVuSans-69" transform="translate(852.388672 0)"/>
    <use xlink:href="#DejaVuSans-6f" transform="translate(880.171875 0)"/>
    <use xlink:href="#DejaVuSans-6e" transform="translate(941.353516 0)"/>
   </g>
  </g>
  <g id="text_37">
   <!-- value_loss -->
   <g transform="translate(16.318125 245.53875) rotate(-90) scale(0.12 -0.12)">
    <defs>
     <path id="DejaVuSans-5f" d="M 3263 -1063 
L 3263 -1509 
L -63 -1509 
L -63 -1063 
L 3263 -1063 
z
" transform="scale(0.015625)"/>
     <path id="DejaVuSans-73" d="M 2834 3397 
L 2834 2853 
Q 2591 2978 2328 3040 
Q 2066 3103 1784 3103 
Q 1356 3103 1142 2972 
Q 928 2841 928 2578 
Q 928 2378 1081 2264 
Q 1234 2150 1697 2047 
L 1894 2003 
Q 2506 1872 2764 1633 
Q 3022 1394 3022 966 
Q 3022 478 2636 193 
Q 2250 -91 1575 -91 
Q 1294 -91 989 -36 
Q 684 19 347 128 
L 347 722 
Q 666 556 975 473 
Q 1284 391 1588 391 
Q 1994 391 2212 530 
Q 2431 669 2431 922 
Q 2431 1156 2273 1281 
Q 2116 1406 1581 1522 
L 1381 1569 
Q 847 1681 609 1914 
Q 372 2147 372 2553 
Q 372 3047 722 3315 
Q 1072 3584 1716 3584 
Q 2034 3584 2315 3537 
Q 2597 3491 2834 3397 
z
" transform="scale(0.015625)"/>
    </defs>
    <use xlink:href="#DejaVuSans-76"/>
    <use xlink:href="#DejaVuSans-61" transform="translate(59.179688 0)"/>
    <use xlink:href="#DejaVuSans-6c" transform="translate(120.458984 0)"/>
    <use xlink:href="#DejaVuSans-75" transform="translate(148.242188 0)"/>
    <use xlink:href="#DejaVuSans-65" transform="translate(211.621094 0)"/>
    <use xlink:href="#DejaVuSans-5f" transform="translate(273.144531 0)"/>
    <use xlink:href="#DejaVuSans-6c" transform="translate(323.144531 0)"/>
    <use xlink:href="#DejaVuSans-6f" transform="translate(350.927734 0)"/>
    <use xlink:href="#DejaVuSans-73" transform="translate(412.109375 0)"/>
    <use xlink:href="#DejaVuSans-73" transform="translate(464.208984 0)"/>
   </g>
  </g>
 </g>
 <defs>
  <clipPath id="p606aad65df">
   <rect x="40.04125" y="47.04" width="324.086155" height="151.83"/>
  </clipPath>
  <clipPath id="p0d31977575">
   <rect x="383.060833" y="47.04" width="324.086155" height="151.83"/>
  </clipPath>
  <clipPath id="p741eb7e34a">
   <rect x="726.080417" y="47.04" width="324.086155" height="151.83"/>
  </clipPath>
  <clipPath id="p3efa3fa681">
   <rect x="40.04125" y="227.09" width="324.086155" height="151.83"/>
  </clipPath>
  <clipPath id="paf40763965">
   <rect x="383.060833" y="227.09" width="324.086155" height="151.83"/>
  </clipPath>
  <clipPath id="p0150653ade">
   <rect x="726.080417" y="227.09" width="324.086155" height="151.83"/>
  </clipPath>
 </defs>
</svg>
